<svg xmlns="http://www.w3.org/2000/svg" version="1.0" viewBox="0 -2.3 374.7 502.3">
  <path fill="#079baa" d="m222.1 380.8 81-45 40.6 72.4-100.9 62z"/>
  <path fill="#f6d20c" d="M277.5 500c-11.6-116.4-37-293.4-85.1-299.1-71.8-8.4-98.4 3.2-98.4 3.2L43.2 500h234.3zm64-186.1-14-.1h-2.9l-30.5-.3 15.4 94.4 10.8.1h6.3l6.6.1 10.5.1 17.2-94.1z"/>
  <g >
    <path d="M219 491.5a21.6 21.6 0 0 1 13.7 8.5h6.7l-2.4-3.4-3.7-5.1h14.8l-3.7 5.1-2.4 3.4h6.5a21 21 0 0 1 13.7-8.5c0 3.4-1 6.2-2.4 8.5h11.3a16.6 16.6 0 0 1-2.4-8.5c3.3.5 6 1.8 8.3 3.3l-1.3-12.5c-2 1.2-4.3 2.1-7 2.5 0-5.6 2.6-9.8 5.8-12.7l-.7-5.9-.2.2-5.1 3.7v-14.8l4.5 3.2-1.1-9a16.2 16.2 0 0 1-3.2-9.8l2.1.5-.8-6.6-1.2.3c0-1.7.3-3.2.7-4.6a1973 1973 0 0 0-5.8-40.5 4 4 0 0 1-2.2-3.5c0-1.1.4-2.1 1.2-2.8l-2.8-17-2.8-2-5.1-3.7 5.1-3.7 1-.7-1.2-6.4c-5.7 5.6-13.9 7.5-13.9 7.5s2.7-11.6 12.1-17.1l-2.8-13.9c-6.1-5-8.5-12.4-9.1-14.5-.7.5-1.5.9-2.5.9s-1.9-.4-2.6-1c-.7 2.7-5.3 16.9-19.1 19.2.1-14.1 15.9-18.8 18.7-19.6a4 4 0 0 1-1-2.6c0-2.2 1.8-4 4-4s4 1.8 4 4c0 1-.4 1.9-1 2.7 1 .3 3.2 1 5.8 2.2l-2.2-9.6c-2.5 1-4.2 1.4-4.2 1.4s.7-3.2 2.8-7.1l-1.8-7-3.3 4.6-3.7-5.1-3.7-5.1h9.2l-1.7-6h-7.5l3.7-5.1 1.6-2.2-2.3-7.1c-2.4 5.3-7.5 13-17.4 14.6.1-11.4 10.6-16.7 16-18.7l-3.3-9.2c-5.5-2.7-12.6-7.9-12.7-17.3 2.4.4 4.5 1.2 6.3 2.2-1.6-3.5-3.3-6.8-5-9.8l-1.3.3.2-2.3a64.8 64.8 0 0 0-11.8-15.3l-1.3-.9-5.1-3.7.2-.1a22.4 22.4 0 0 0-8.4-3l-.7.2c.8.7 1.3 1.7 1.3 2.9 0 1-.4 1.9-1 2.7 3.2.9 18.5 5.7 18.6 19.5-13.6-2.3-18.2-16.1-19-19.1-.7.5-1.5.9-2.5.9s-1.9-.4-2.6-1c-.7 2.7-5.3 16.9-19.1 19.2.1-14.1 15.9-18.8 18.7-19.6a4 4 0 0 1-1-2.6 4 4 0 0 1 1.3-2.9c-.8-.2-2.1-.6-3.8-1.3l-12.4-1.1 2.1 1.5 5.1 3.7-5.1 3.7-5.1 3.7v-12.8l-6.4-.4v13.2l-5.1-3.7-5.1-3.7 5.1-3.7 3-2.2-8.9-.3a38 38 0 0 1-7.8 3.3c.8.7 1.3 1.7 1.3 2.9 0 1-.4 1.9-1 2.7 3.2.9 18.5 5.7 18.6 19.5-13.6-2.3-18.2-16.1-19-19.1-.7.5-1.5.9-2.5.9s-1.9-.4-2.6-1c-.7 2.7-5.3 16.9-19.1 19.2.1-14.1 15.9-18.8 18.7-19.6a4 4 0 0 1-1-2.6 4 4 0 0 1 1.3-2.9c-1.3-.3-4.1-1.3-7.3-3l-8.7.6 2.1 1.5 5.1 3.7-5.1 3.7-5.1 3.7v-12.3l-7.2.9v11.4l-5.1-3.7-5.1-3.7 3.9-2.8a59 59 0 0 0-10.4 2.9l-.5 3.1c5.1 1.7 16.8 6.9 16.9 19-10.1-1.7-15.3-9.8-17.6-15.1l-1.4 8.2 1.2 1.6 3.7 5.1h-6l-1.3 7.5h7.3l-3.7 5.1-3.7 5.1-1.4-1.9-1.6 9.6.5 1.7-.8-.2-.3 1.9c.6-1.4 2-2.3 3.6-2.3a4 4 0 0 1 4 4c0 1-.4 1.9-1 2.7 3.2.9 18.5 5.7 18.6 19.5-13.6-2.3-18.2-16.1-19-19.1-.7.5-1.5.9-2.5.9s-1.9-.4-2.6-1c-.3 1.1-1.2 3.9-3 7.1l-4.2 24.4c5.5 5.8 7.3 13.3 7.3 13.3s-4.4-1-8.9-3.7l-1.1 6.4.9.7-1.2.9-1.2 7c4.5-3.4 9.5-4.9 11-5.3a4 4 0 0 1-1-2.6c0-2.2 1.8-4 4-4s4 1.8 4 4c0 1-.4 1.9-1 2.7 3.2.9 18.5 5.7 18.6 19.5-13.6-2.3-18.2-16.1-19-19.1-.7.5-1.5.9-2.5.9s-1.9-.4-2.6-1c-.6 2.3-4 12.9-13.5 17.5l-1.6 9.5c12 4.5 15.3 18.6 15.3 18.6s-11.4-2.6-16.6-10.9l-1.3 7.8 3.7 2.7 5.1 3.7-5.1 3.7L67 367v-5.6l-3.4 19.8h.3c2.2 0 4 1.8 4 4s-1.8 4-4 4c-.6 0-1.1-.1-1.6-.3L59.5 405l1.1-.8V419l-3.1-2.3-1 6.1a17 17 0 0 1 4.2 11c-2.1-.4-4-1-5.7-1.9l-1.8 10.5a19 19 0 0 1 7.6-2.8c-.1 7.8-4.9 12.7-9.8 15.7l-2.2 12.6c5.4 2.8 11.9 8 11.9 16.9-6.2-1-10.5-4.5-13.4-8.2l-1.2 7.2.6.8H46l-1.2 6.8h1.9l-2.4 3.4-.9 5.1h3.7a21 21 0 0 1 13.7-8.5c0 3.4-1 6.2-2.4 8.5h11.3a16.6 16.6 0 0 1-2.4-8.5 21.6 21.6 0 0 1 13.7 8.5h6.7l-2.4-3.4-3.7-5.1h14.8l-3.7 5.1-2.4 3.4h6.5a21 21 0 0 1 13.7-8.5c0 3.4-1 6.2-2.4 8.5h12.4a16.6 16.6 0 0 1-2.4-8.5 21.6 21.6 0 0 1 13.7 8.5h6.7l-2.4-3.4-3.7-5.1h14.8l-3.7 5.1-2.4 3.4h6.5a21 21 0 0 1 13.7-8.5c0 3.4-1 6.2-2.4 8.5h11.3a16.6 16.6 0 0 1-2.4-8.5 21.6 21.6 0 0 1 13.7 8.5h6.7l-2.4-3.4-3.7-5.1h14.8l-3.7 5.1-2.4 3.4h6.5a21 21 0 0 1 13.7-8.5c0 3.4-1 6.2-2.4 8.5h12.9a15.2 15.2 0 0 1-2.5-8.4zm21.7-6.9h-7.4l3.7-5.1 3.7-5.1 3.7 5.1 3.7 5.1h-7.4zm2.5-18.9c-.7.5-1.5.9-2.5.9s-1.9-.4-2.6-1c-.7 2.7-5.3 16.9-19.1 19.2.1-14.1 15.9-18.8 18.7-19.6a4 4 0 0 1-1-2.6c0-2.2 1.8-4 4-4s4 1.8 4 4c0 1-.4 1.9-1 2.7 3.2.9 18.5 5.7 18.6 19.5-13.7-2.3-18.3-16.1-19.1-19.1zm-6.5-54.2c0-2.2 1.8-4 4-4s4 1.8 4 4c0 1-.4 1.9-1 2.7 3.2.9 18.5 5.7 18.6 19.5-13.6-2.3-18.2-16.1-19-19.1-.7.5-1.5.9-2.5.9s-1.9-.4-2.6-1c-.7 2.7-5.3 16.9-19.1 19.2.1-14.1 15.9-18.8 18.7-19.6a3.5 3.5 0 0 1-1.1-2.6zm4-23h7.4l-3.7 5.1-3.7 5.1-3.7-5.1-3.7-5.1h7.4zm-7.4-6.8 3.7-5.1 3.7-5.1 3.7 5.1 3.7 5.1h-14.8zm4.9 26.5s-19.1-4.2-19.2-19.7c15.2 2.5 19.2 19.7 19.2 19.7zm13.7 3.3 5.1-3.7 5.1-3.7v14.8l-5.1-3.7-5.1-3.7zm-8.9 47.8s4-17.2 19.2-19.7c-.1 15.4-19.2 19.7-19.2 19.7zm19.2-4.1V470l-5.1-3.7-5.1-3.7 5.1-3.7 5.1-3.7zm-21.5-15.6h7.4l-3.7 5.1-3.7 5.1-3.7-5.1-3.7-5.1h7.4zm-7.4-6 3.7-5.1 3.7-5.1 3.7 5.1 3.7 5.1h-14.8zm4.9 25.7s-19.1-4.2-19.2-19.7c15.2 2.5 19.2 19.7 19.2 19.7zm31.2 28.8c0 2.2-1.8 4-4 4s-4-1.8-4-4 1.8-4 4-4c2.3.1 4 1.8 4 4zm-3.9-55c2.2 0 4 1.8 4 4s-1.8 4-4 4-4-1.8-4-4 1.8-4 4-4zm-3.3-44.6c-.1 15.5-19.2 19.7-19.2 19.7s4-17.2 19.2-19.7zm-17.5-28.9c0 1-.4 1.9-1 2.7 3.2.9 18.5 5.7 18.6 19.5-13.6-2.3-18.2-16.1-19-19.1-.7.5-1.5.9-2.5.9s-1.9-.4-2.6-1c-.7 2.7-5.3 16.9-19.1 19.2.1-14.1 15.9-18.8 18.7-19.6a4 4 0 0 1-1-2.6 4 4 0 0 1 4-4 4 4 0 0 1 3.9 4zm-7.7-35 3.7-5.1 3.7 5.1 3.7 5.1h-14.8l3.7-5.1zm3.7 12h7.4l-3.7 5.1-3.7 5.1-3.7-5.1-3.7-5.1h7.4zm-2.5 19.7s-19.1-4.2-19.2-19.7c15.2 2.5 19.2 19.7 19.2 19.7zm0-51.9s-19.1-4.2-19.2-19.7c15.2 2.5 19.2 19.7 19.2 19.7zm-19.3-47.7v-7.4l5.1 3.7 5.1 3.7-5.1 3.7-5.1 3.7v-7.4zm0 51v-7.4l5.1 3.7 5.1 3.7-5.1 3.7-5.1 3.7v-7.4zm0 51.9v-7.4l5.1 3.7 5.1 3.7-5.1 3.7-5.1 3.7v-7.4zm0 51.9v-7.4l5.1 3.7 5.1 3.7-5.1 3.7-5.1 3.7v-7.4zm-8-177.9c-.1 15.5-19.2 19.7-19.2 19.7s4-17.2 19.2-19.7zm-19.2 225.7s4-17.2 19.2-19.7c-.1 15.4-19.2 19.7-19.2 19.7zm19.6-4.1V470l-5.1-3.7-5.1-3.7 5.1-3.7 5.1-3.7zm-69.3 4.1s4-17.2 19.2-19.7c-.1 15.4-19.2 19.7-19.2 19.7zm19.2-4.1V470l-5.1-3.7-5.1-3.7 5.1-3.7 5.1-3.7zm-25.5-43.7c0-2.2 1.8-4 4-4s4 1.8 4 4c0 1-.4 1.9-1 2.7 3.2.9 18.5 5.7 18.6 19.5-13.6-2.3-18.2-16.1-19-19.1-.7.5-1.5.9-2.5.9s-1.9-.4-2.6-1c-.7 2.7-5.3 16.9-19.1 19.2.1-14.1 15.9-18.8 18.7-19.6a3.5 3.5 0 0 1-1.1-2.6zm0-51.9c0-2.2 1.8-4 4-4s4 1.8 4 4c0 1-.4 1.9-1 2.7 3.2.9 18.5 5.7 18.6 19.5-13.6-2.3-18.2-16.1-19-19.1-.7.5-1.5.9-2.5.9s-1.9-.4-2.6-1c-.7 2.7-5.3 16.9-19.1 19.2.1-14.1 15.9-18.8 18.7-19.6a3.6 3.6 0 0 1-1.1-2.6zm0-51.9c0-2.2 1.8-4 4-4s4 1.8 4 4c0 1-.4 1.9-1 2.7 3.2.9 18.5 5.7 18.6 19.5-13.6-2.3-18.2-16.1-19-19.1-.7.5-1.5.9-2.5.9s-1.9-.4-2.6-1c-.7 2.7-5.3 16.9-19.1 19.2.1-14.1 15.9-18.8 18.7-19.6a3.6 3.6 0 0 1-1.1-2.6zm0-51c0-2.2 1.8-4 4-4s4 1.8 4 4c0 1-.4 1.9-1 2.7 3.2.9 18.5 5.7 18.6 19.5-13.6-2.3-18.2-16.1-19-19.1-.7.5-1.5.9-2.5.9s-1.9-.4-2.6-1c-.7 2.7-5.3 16.9-19.1 19.2.1-14.1 15.9-18.8 18.7-19.6a3.6 3.6 0 0 1-1.1-2.6zm53.7 28h7.4l-3.7 5.1-3.7 5.1-3.7-5.1-3.7-5.1h7.4zm-7.4-6 3.7-5.1 3.7-5.1 3.7 5.1 3.7 5.1H182zm4.9 25.7s-19.1-4.2-19.2-19.7c15.3 2.5 19.2 19.7 19.2 19.7zm2.5 32.2h7.4l-3.7 5.1-3.7 5.1-3.7-5.1-3.7-5.1h7.4zm-7.4-6.8 3.7-5.1 3.7-5.1 3.7 5.1 3.7 5.1H182zm4.9 26.5s-19.1-4.2-19.2-19.7c15.3 2.5 19.2 19.7 19.2 19.7zm2.5 32.2h7.4l-3.7 5.1-3.7 5.1-3.7-5.1-3.7-5.1h7.4zm-7.4-6.8 3.7-5.1 3.7-5.1 3.7 5.1 3.7 5.1H182zm4.9 26.5s-19.1-4.2-19.2-19.7c15.3 2.5 19.2 19.7 19.2 19.7zm-9.1 3.3-5.1 3.7-5.1 3.7v-14.8l5.1 3.7 5.1 3.7zm-13.3-22.4c-2.2 0-4-1.8-4-4s1.8-4 4-4 4 1.8 4 4c-.1 2.3-1.8 4-4 4zM142 408.2s4-17.2 19.2-19.7c-.1 15.5-19.2 19.7-19.2 19.7zm19.2-4.1v14.8l-5.1-3.7-5.1-3.7 5.1-3.7 5.1-3.7zm-21.5-15.6h7.4l-3.7 5.1-3.7 5.1-3.7-5.1-3.7-5.1h7.4zm-7.4-6.8 3.7-5.1 3.7-5.1 3.7 5.1 3.7 5.1h-14.8zm7.4-45.1h7.4l-3.7 5.1-3.7 5.1-3.7-5.1-3.7-5.1h7.4zm-7.4-6.8 3.7-5.1 3.7-5.1 3.7 5.1 3.7 5.1h-14.8zm28.9 6.8c-.1 15.5-19.2 19.7-19.2 19.7s4-17.2 19.2-19.7zm-5.1 19.3 5.1-3.7V367l-5.1-3.7-5.1-3.7 5.1-3.7zm21.7 3.7-5.1 3.7-5.1 3.7v-14.8l5.1 3.7 5.1 3.7zm-13.3-22.4c-2.2 0-4-1.8-4-4s1.8-4 4-4 4 1.8 4 4a4 4 0 0 1-4 4zm-24.8-52.5h7.4l-3.7 5.1-3.7 5.1-3.7-5.1-3.7-5.1h7.4zm-7.4-6 3.7-5.1 3.7-5.1 3.7 5.1 3.7 5.1h-14.8zm28.9 6c-.1 15.5-19.2 19.7-19.2 19.7s4-17.2 19.2-19.7zm-5.1 19.3 5.1-3.7v14.8l-5.1-3.7-5.1-3.7 5.1-3.7zm21.7 3.7-5.1 3.7-5.1 3.7v-14.8l5.1 3.7 5.1 3.7zm-13.3-21.5c-2.2 0-4-1.8-4-4s1.8-4 4-4 4 1.8 4 4a4 4 0 0 1-4 4zm-3.3-29.5v7.4l-5.1-3.7-5.1-3.7 5.1-3.7 5.1-3.7v7.4zm-24 47.7s-19.1-4.2-19.2-19.7c15.2 2.5 19.2 19.7 19.2 19.7zm0 51.9s-19.1-4.2-19.2-19.7c15.2 2.5 19.2 19.7 19.2 19.7zm0 51.9s-19.1-4.2-19.2-19.7c15.2 2.5 19.2 19.7 19.2 19.7zm9.9 25.4h-14.8l3.7-5.1 3.7-5.1 3.7 5.1 3.7 5.1zm-9.9 25.7s-19.1-4.2-19.2-19.7c15.2 2.5 19.2 19.7 19.2 19.7zm-1.2-14.6-3.7-5.1h14.8l-3.7 5.1-3.7 5.1-3.7-5.1zm24.5-7.6c0-2.2 1.8-4 4-4s4 1.8 4 4-1.8 4-4 4a4 4 0 0 1-4-4zm7.1 25.5v-7.4l5.1 3.7 5.1 3.7-5.1 3.7-5.1 3.7v-7.4zm.1-23c15.2 2.5 19.2 19.7 19.2 19.7s-19.1-4.3-19.2-19.7zm18 5.1-3.7-5.1h14.8l-3.7 5.1-3.7 5.1-3.7-5.1zm-3.7-11.1 3.7-5.1 3.7-5.1 3.7 5.1 3.7 5.1H182zm9.9-19c-.7.5-1.5.9-2.5.9s-1.9-.4-2.6-1c-.7 2.7-5.3 16.9-19.1 19.2.1-14.1 15.9-18.8 18.7-19.6a4 4 0 0 1-1-2.6c0-2.2 1.8-4 4-4s4 1.8 4 4c0 1-.4 1.9-1 2.7 3.2.9 18.5 5.7 18.6 19.5-13.7-2.2-18.3-16.1-19.1-19.1zm14.3.6-5.1-3.7 5.1-3.7 5.1-3.7v14.8l-5.1-3.7zm-14.5-7s4-17.2 19.2-19.7c-.1 15.5-19.2 19.7-19.2 19.7zm.2-45.5c-.7.5-1.5.9-2.5.9s-1.9-.4-2.6-1c-.7 2.7-5.3 16.9-19.1 19.2.1-14.1 15.9-18.8 18.7-19.6a4 4 0 0 1-1-2.6c0-2.2 1.8-4 4-4s4 1.8 4 4c0 1-.4 1.9-1 2.7 3.2.9 18.5 5.7 18.6 19.5-13.7-2.2-18.3-16.1-19.1-19.1zm14.3.6-5.1-3.7 5.1-3.7 5.1-3.7V367l-5.1-3.7zm-14.5-7s4-17.2 19.2-19.7c-.1 15.4-19.2 19.7-19.2 19.7zm.2-45.5c-.7.5-1.5.9-2.5.9s-1.9-.4-2.6-1c-.7 2.7-5.3 16.9-19.1 19.2.1-14.1 15.9-18.8 18.7-19.6a4 4 0 0 1-1-2.6c0-2.2 1.8-4 4-4s4 1.8 4 4c0 1-.4 1.9-1 2.7 3.2.9 18.5 5.7 18.6 19.5-13.7-2.2-18.3-16.1-19.1-19.1zm14.3.6-5.1-3.7 5.1-3.7 5.1-3.7v14.8l-5.1-3.7zm-14.5-7s4-17.2 19.2-19.7c-.1 15.4-19.2 19.7-19.2 19.7zm.2-44.6c-.7.5-1.5.9-2.5.9s-1.9-.4-2.6-1c-.7 2.7-5.3 16.9-19.1 19.2.1-14.1 15.9-18.8 18.7-19.6a4 4 0 0 1-1-2.6c0-2.2 1.8-4 4-4s4 1.8 4 4c0 1-.4 1.9-1 2.7 3.2.9 18.5 5.7 18.6 19.5-13.7-2.3-18.3-16.2-19.1-19.1zm-24.3 4.3v-14.8l5.1 3.7 5.1 3.7-5.1 3.7-5.1 3.7zm38.6-3.7-5.1-3.7 5.1-3.7 5.1-3.7v14.8l-5.1-3.7zM185.7 221l3.7-5.1 3.7 5.1 3.7 5.1H182l3.7-5.1zm3.7 12.6h7.4l-3.7 5.1-3.7 5.1-3.7-5.1-3.7-5.1h7.4zm-2.5 19.7s-19.1-4.2-19.2-19.7c15.3 2.5 19.2 19.7 19.2 19.7zm-22.4-27.6c2.2 0 4 1.8 4 4s-1.8 4-4 4-4-1.8-4-4 1.8-4 4-4zm-3.3 7.9c-.1 15.5-19.2 19.7-19.2 19.7s4-17.2 19.2-19.7zM136 221l3.7-5.1 3.7 5.1 3.7 5.1h-14.8l3.7-5.1zm3.7 12.6h7.4l-3.7 5.1-3.7 5.1-3.7-5.1-3.7-5.1h7.4zm-2.5 19.7s-19.1-4.2-19.2-19.7c15.2 2.5 19.2 19.7 19.2 19.7zm-19.3 3.4v-7.4l5.1 3.7 5.1 3.7-5.1 3.7-5.1 3.7v-7.4zm0 51v-7.4l5.1 3.7 5.1 3.7-5.1 3.7-5.1 3.7v-7.4zm0 51.9v-7.4l5.1 3.7 5.1 3.7-5.1 3.7-5.1 3.7v-7.4zm0 51.9v-7.4l5.1 3.7 5.1 3.7-5.1 3.7-5.1 3.7v-7.4zM91.2 253.3s4-17.2 19.2-19.7c-.1 15.5-19.2 19.7-19.2 19.7zm14.4 7.1-5.1-3.7 5.1-3.7 5.1-3.7v14.8l-5.1-3.7zm-20.4 13.2 3.7-5.1 3.7 5.1 3.7 5.1H81.5l3.7-5.1zm0 16.2-3.7-5.1h14.8l-3.7 5.1-3.7 5.1-3.7-5.1zm6 14.6s4-17.2 19.2-19.7c-.1 15.4-19.2 19.7-19.2 19.7zm14.4 7-5.1-3.7 5.1-3.7 5.1-3.7v14.8l-5.1-3.7zm4.8 25.2c-.1 15.5-19.2 19.7-19.2 19.7s3.9-17.2 19.2-19.7zm.3 15.6V367l-5.1-3.7-5.1-3.7 5.1-3.7 5.1-3.7zm-25.5-27.6 3.7-5.1 3.7 5.1 3.7 5.1H81.5l3.7-5.1zm0 17.1-3.7-5.1h14.8l-3.7 5.1-3.7 5.1-3.7-5.1zm-18 40.1c.1-14.1 15.9-18.8 18.7-19.6a4 4 0 0 1-1-2.6c0-2.2 1.8-4 4-4s4 1.8 4 4c0 1-.4 1.9-1 2.7 3.2.9 18.5 5.7 18.6 19.5-13.6-2.3-18.2-16.1-19-19.1-.7.5-1.5.9-2.5.9s-1.9-.4-2.6-1c-.9 2.7-5.4 16.9-19.2 19.2zm24 77.5s4-17.2 19.2-19.7c-.1 15.4-19.2 19.7-19.2 19.7zm19.5-4.1V470l-5.1-3.7-5.1-3.7 5.1-3.7 5.1-3.7zm-43.5-15.6c15.2 2.5 19.2 19.7 19.2 19.7s-19.1-4.3-19.2-19.7zm10.1 23-5.1 3.7L67 470v-14.8l5.1 3.7 5.2 3.7zm7.9-17.9-3.7-5.1h14.8l-3.7 5.1-3.7 5.1-3.7-5.1zm-3.7-11.1 3.7-5.1 3.7-5.1 3.7 5.1 3.7 5.1H81.5zm9.8-19c-.7.5-1.5.9-2.5.9s-1.9-.4-2.6-1c-.7 2.7-5.3 16.9-19.1 19.2.1-14.1 15.9-18.8 18.7-19.6a4 4 0 0 1-1-2.6c0-2.2 1.8-4 4-4s4 1.8 4 4c0 1-.4 1.9-1 2.7 3.2.9 18.5 5.7 18.6 19.5-13.6-2.2-18.2-16.1-19.1-19.1zm-2.4-26.1h7.4l-3.7 5.1-3.7 5.1-3.7-5.1-3.7-5.1h7.4zm-7.4-6.8 3.7-5.1 3.7-5.1 3.7 5.1 3.7 5.1H81.5zm24.1 33.5-5.1-3.7 5.1-3.7 5.1-3.7v14.8l-5.1-3.7zm-14.4-7s4-17.2 19.2-19.7c-.1 15.5-19.2 19.7-19.2 19.7zm-4.8 0s-19.1-4.2-19.2-19.7c15.2 2.5 19.2 19.7 19.2 19.7zM67 411.5v-7.4l5.1 3.7 5.1 3.7-5.1 3.7-5.1 3.7v-7.4zm-7.1 25.6c0-2.2 1.8-4 4-4s4 1.8 4 4-1.8 4-4 4a4 4 0 0 1-4-4zm-4.4 29.2-5.1-3.7 5.1-3.7 5.1-3.7V470l-5.1-3.7zm8.4 25.8c-2.2 0-4-1.8-4-4s1.8-4 4-4 4 1.8 4 4-1.8 4-4 4zm25-7.5h-7.4l3.7-5.1 3.7-5.1 3.7 5.1 3.7 5.1h-7.4zm2.4-18.9c-.7.5-1.5.9-2.5.9s-1.9-.4-2.6-1c-.7 2.7-5.3 16.9-19.1 19.2.1-14.1 15.9-18.8 18.7-19.6a4 4 0 0 1-1-2.6c0-2.2 1.8-4 4-4s4 1.8 4 4c0 1-.4 1.9-1 2.7 3.2.9 18.5 5.7 18.6 19.5-13.6-2.3-18.2-16.1-19.1-19.1zm22.5 26.4c-2.2 0-4-1.8-4-4s1.8-4 4-4 4 1.8 4 4-1.8 4-4 4zm0-51.1c-2.2 0-4-1.8-4-4s1.8-4 4-4 4 1.8 4 4a4 4 0 0 1-4 4zm0-51.9c-2.2 0-4-1.8-4-4s1.8-4 4-4 4 1.8 4 4a4 4 0 0 1-4 4zm0-51.9c-2.2 0-4-1.8-4-4s1.8-4 4-4 4 1.8 4 4-1.8 4-4 4zm0-51c-2.2 0-4-1.8-4-4s1.8-4 4-4 4 1.8 4 4-1.8 4-4 4zm0-52.6c-2.2 0-4-1.8-4-4s1.8-4 4-4 4 1.8 4 4-1.8 4-4 4zm4.1 236.4v-14.8l5.1 3.7 5.1 3.7-5.1 3.7-5.1 3.7zm21.8 14.6h-7.4l3.7-5.1 3.7-5.1 3.7 5.1 3.7 5.1h-7.4zm2.5-18.9c-.7.5-1.5.9-2.5.9s-1.9-.4-2.6-1c-.7 2.7-5.3 16.9-19.1 19.2.1-14.1 15.9-18.8 18.7-19.6a4 4 0 0 1-1-2.6c0-2.2 1.8-4 4-4s4 1.8 4 4c0 1-.4 1.9-1 2.7 3.2.9 18.5 5.7 18.6 19.5-13.7-2.3-18.3-16.1-19.1-19.1zm22.3 26.4c-2.2 0-4-1.8-4-4s1.8-4 4-4 4 1.8 4 4a4 4 0 0 1-4 4zm24.9-7.5H182l3.7-5.1 3.7-5.1 3.7 5.1 3.7 5.1h-7.4zm2.5-18.9c-.7.5-1.5.9-2.5.9s-1.9-.4-2.6-1c-.7 2.7-5.3 16.9-19.1 19.2.1-14.1 15.9-18.8 18.7-19.6a4 4 0 0 1-1-2.6c0-2.2 1.8-4 4-4s4 1.8 4 4c0 1-.4 1.9-1 2.7 3.2.9 18.5 5.7 18.6 19.5-13.7-2.3-18.3-16.1-19.1-19.1zm22.7 26.4c-2.2 0-4-1.8-4-4s1.8-4 4-4 4 1.8 4 4-1.8 4-4 4zm0-51.1c-2.2 0-4-1.8-4-4s1.8-4 4-4 4 1.8 4 4a4 4 0 0 1-4 4zm0-51.9c-2.2 0-4-1.8-4-4s1.8-4 4-4 4 1.8 4 4a4 4 0 0 1-4 4zm0-51.9c-2.2 0-4-1.8-4-4s1.8-4 4-4 4 1.8 4 4-1.8 4-4 4zm0-51c-2.2 0-4-1.8-4-4s1.8-4 4-4 4 1.8 4 4-1.8 4-4 4zm0-52.6c-2.2 0-4-1.8-4-4s1.8-4 4-4 4 1.8 4 4-1.8 4-4 4zm4.3 229v-7.4l5.1 3.7 5.1 3.7-5.1 3.7-5.1 3.7v-7.4z"/>
    <path d="M85.9 259.3c-.5-.6-.9-1.4-1-2.3l-.5 2.7 1.5-.4zm101.2-58.9.1.4.6-.3-.7-.1zm-50.5-2.4 1 2.8c.6-.4 1.4-.7 2.2-.7.8 0 1.5.2 2.2.7l1-2.9-6.4.1z"/>
  </g>
  <path fill="#e2413d" d="m215 44-90.1-16.7s-19.4 33.4-23 58.6c-3-2.9-9.3-7.4-16.1-3.5-8.9 5.2-14 50.2 17.4 39.4 2.8 15.5 9.7 34.3 26 46.2l.4 40.8 51.8.6 4.2-32.3C243.2 159.3 215 44 215 44zm126.5 342.5c0 .4.8 4.2 9.2 2.2 8.8-2.1 15.3-10.6 18.5-15.9 5.5-12.2 3-23.6-.7-31.8a13 13 0 0 0-12.3-7.5c-31.5 1.3-32.7 7.4-32.7 8.3.2 4.3 4.2 8.7 12.7 7.8l10.9-1.1s-24.6 5-23.5 11.8c1.2 6.9 23.6 3.8 23.6 3.8s-17.2 3.3-19.6 11.5c-2.4 8.2 17.9 3.5 17.9 3.5s-4.1 2.8-4 7.4z"/>
  <path fill="#261e33" d="M208 165.7c-15.2 4.9-30.1 10.6-30.1 10.6L168 195l-4.2-19.3s-36.1-11.5-52.1-17.8c-4-1.6-8.2 1.7-8.4 6.6l-1.7 36.8s42.2 13.1 70.3 11.1l-.2-.7c10.4.2 23.8 0 31.4-2.4 8.9-2.7 11.9-24.4 12.2-38.3 0-3.7-3.7-6.4-7.3-5.3z"/>
  <path fill="#079baa" d="m84.1 500 1.7-89.3c.3-15.7 3.1-31.2 8.4-45.9 17.2-48.4 53.6-163.4 12.8-172.9 0 0-53.5-19.8-81.1 67.3C3.8 328.8.5 452.9 0 500h84.1z"/>
  <ellipse cx="327.5" cy="313.8" fill="#2b807d" rx="9.5" ry="33.4" transform="rotate(-89 327.5 313.8)"/>
  <path fill="#261e33" d="M229.1 19.4c-20.8-21.7-61.3-20.6-83.9-18-42.3 1-78 24.6-61.1 82.7 0 0 6.3-7.7 17.8 1.8 0 0 20.7-46 33.3-45 0 0 67.9 37.7 85 35.1 1.1 9.8 1.7 19.4 1.7 19.4s14.1-32.8 2.7-59.1c11.1.1 17.1-3.7 4.5-16.9zm101.3 294.4-10-43.7-5.9 1.4-17 4.2 3.6 6.5 15.2-2.9 7.9 34.5zm-1.7 32.7c.3 1.4 2.3 1.8 3.3 2 6.8 1.4 14.7-.1 21.5-1 1.6-.2 1.6-2.8 0-2.6-6.2.8-12.8 1.9-19.1 1.3-1-.1-2.1-.2-3.1-.6-.5-.2-.2-.2-.1.2-.3-1.6-2.8-.9-2.5.7zm.3 18.8c1.2.8 3.3.8 4.7.9 7 .3 14.2-1.2 21-2.5 1.6-.3.9-2.8-.7-2.5-6.4 1.2-13.1 2.6-19.7 2.5-1.1 0-3.2 0-4-.5-1.4-1.1-2.7 1.2-1.3 2.1zm3.3 17.2c1.4.7 3.3.4 4.7.2 7-.8 13.8-3.3 20.4-5.6 1.6-.6.9-3.1-.7-2.5-6.1 2.2-12.3 4.4-18.7 5.4a23 23 0 0 1-3.7.3c-.3 0-1.2-.3-.6 0-1.6-.8-2.9 1.5-1.4 2.2zM61.9 407.2l-23.8-85.3c-.4-1.6-2.9-.9-2.5.7l23.8 85.3c.5 1.6 3 .9 2.5-.7zm26.9-311 12.1 8.1-.3-2-10.5 8.4c-1.3 1 .5 2.9 1.8 1.8l10.5-8.4c.7-.6.4-1.6-.3-2L90 94c-1.3-.9-2.6 1.3-1.2 2.2zm-21 287.9-13.9-49.7c-.4-1.6-2.9-.9-2.5.7l13.9 49.7c.4 1.6 2.9.9 2.5-.7zM170.1 96.2c2.1 4.3 4.3 9.1 5.3 13.9.6 2.9 1.2 6.2-1.1 8.5s-5.6 2.5-8.7 2.2c-1.5-.2-1.4 2.1 0 2.3 4.9.5 10.7-1.1 12.4-6.2 2.2-6.7-3.2-15.9-6-21.7-.6-1.5-2.5-.3-1.9 1z"/>
  <ellipse cx="148.7" cy="99" fill="#261e33" rx="6.9" ry="5.7" transform="rotate(-85 148.7 99)"/>
  <ellipse cx="191.1" cy="102.9" fill="#261e33" rx="6.9" ry="5.7" transform="rotate(-85 191.1 103)"/>
  <path fill="#261e33" d="M141.1 82.1c4.5-3.9 10.2-3.8 13.8 1.2.8 1.2 2.8.1 2-1.2-4.4-6.3-11.7-6.6-17.4-1.7-1.1 1 .5 2.6 1.6 1.7zm45.2 0c4.5-3.9 10.2-3.8 13.8 1.2.8 1.2 2.8.1 2-1.2-4.4-6.3-11.7-6.6-17.4-1.7-1.2 1 .5 2.6 1.6 1.7zm-39.8 49.4c6.2 4.2 14.3 8.1 21.9 7.3 1.4-.1 1.5-2.4 0-2.3a33 33 0 0 1-20.8-7c-1.2-.8-2.3 1.1-1.1 2zm10 47.4c1.4 1.3 3.6 1.7 5.3 2 7.7 1.5 15.9.7 23.6-.2 1.6-.2 1.7-2.8 0-2.6-7.3.8-14.9 1.6-22.2.4-1.4-.2-4.3-.9-4.9-1.5-1.2-1.1-3 .8-1.8 1.9z"/>
</svg>
