<svg xmlns="http://www.w3.org/2000/svg" version="1.0" viewBox="-0.1 0 449 488.4">
  <defs>
    <clipPath id="a">
      <path d="M0 0h449v488.4H0Zm0 0"/>
    </clipPath>
    <clipPath id="b">
      <path d="M0 18h435v470.4H0Zm0 0"/>
    </clipPath>
  </defs>
  <g clip-path="url(#a)">
    <path fill="#e2413d" d="M447.4 79.5c-3.7 5.2-4.1 13.7-1.8 16.6 2.2 2.8-1.4 11-6 11.9a27 27 0 0 1-6.5 0l2.3 11.4-30 10.3c-.5 3.7-2.7 19-10.8 39.7l.2.1-2.2 4.8a222.6 222.6 0 0 1-35.7 57.9l-.8 1-2.3 2.6-1.6 1.9-1.6 1.8-2.3 2.6-1 1a649.9 649.9 0 0 1-2.7 3.2 405.3 405.3 0 0 1-3.7 4l-.3.3a450.4 450.4 0 0 1-3.5 3.7 563.8 563.8 0 0 1-3.4 3.5l-.2.2-.2.3a1452 1452 0 0 1-3.7 3.8l-4 3.9a262.6 262.6 0 0 1-5.4 5.2c-27.6 26.5-58.9 50.8-85.1 63.2l-3.6 2v-.3a110.2 110.2 0 0 1-9 3.5v.3l-.3 1.2a43.5 43.5 0 0 1-.6 2.8l-.2.8a63.2 63.2 0 0 0-.7 2l-.7 2.2-.6 1.8-.7 1.6-1.1 2.6-1 2.3-.3-.1-2.3 5.2a84 84 0 0 0-1.7 4.6l.9 3.4.4 2 .3.9-1.8.4-1.5.4a20.1 20.1 0 0 0-.1 2.6 15.8 15.8 0 0 0 2.3 8.2c1.3 2.2 3 4.4 5.2 7a185.5 185.5 0 0 0 3.3 3.7l.6.6 4 4.4.6.7 1.4 1.5.7.8c4.3 5 7.4 9.2 9.6 12.8l.8 1.3a61 61 0 0 1 1.6 2.8 46.5 46.5 0 0 1 1.4 3c1.7 3.7 1.8 5.6 1.8 5.6s-.6 1.5-2 3.4l.1.3-1 .8c1.9 3.3 4.7 10.7 5.6 26.7 0 0-73 34-156.3 22.6-2.3 1.5-5 2.8-8.1 4.1v.3l-2.7.5-.3.1c-3.3.8-6.9.8-10.6.2a42.2 42.2 0 0 1-9-2.2 43.5 43.5 0 0 1-3-1c-7.3-3-16.2-8.6-25-19.2 0-.2-.2-.3-.3-.4A90.1 90.1 0 0 1 14 437c-1.5-3.5-2.9-7.3-4-11l-1-2.8c-8.9-24-9-38.3-8.5-44.4l-.2-3-.2-3a73.4 73.4 0 0 1 0-5.9 86.4 86.4 0 0 1 7.8-32.3 74.2 74.2 0 0 1 10.6-16.3 74.1 74.1 0 0 1 22.3-17.7c3-1.7 5.4-2.8 7-3.5l2.7-1.1v.3a141.6 141.6 0 0 1 8.6-3.6 88.5 88.5 0 0 1-11.4-21.4c-1-4.4 2.1-10.4 5.3-15.1l-.3.4-.2-.2-1.5.8a9.5 9.5 0 0 1-.7.4l.2.2.6 1-.3.4-.3-.2-.6-.6-.5-.5c-7.9 2.6-12-9.3-7.1-11.7 5.2-2.6 6.8-9-3.8-19.4-8.6-8.3-9.4-13.3-5.8-19.4.8-1.4 2-2.9 3.3-4.5l3.7-4.4c-1.2-4.6-1-7 3.3-5.5.6-2.5-.5-5.1-4.6-9-12-11.2-4.5-21.9 4.2-27.7 8.8-5.7 9.7-11.5 10.1-22.9.8-19.8 21.4-43.6 45.1-46.3a50.6 50.6 0 0 1 32 5.2V92h2a39 39 0 0 1 27.9-13.3c25.5-.2 39.4 13.8 39.4 33.6 0 19.7-9.8 23.8 6.8 31 16.6 7.2 12 20 5.4 28.6l-.5.7v.3a28.2 28.2 0 0 1-2.1 4.4l-.7 1-.2.4-.2-.1c-.8 3.2 1.2 5 3.6 9 3.5 6.2-1.6 8-8.3 10.3h.4s-4.8 2.5-3 6l1.7 2c6.7 5.8 11.7 18.5-.5 21.4-12.2 3-11 1.9-11 6.4 0 9.8-4.3 13.4-9.9 14.6h-.3c-5.5 1-12.3-.2-17.3-.3l4.5 10.3-.6.3a19 19 0 0 0 7.3 8 28 28 0 0 0 19.4 2.5s4.3-4 6.4-1.7c14.6-4.7 32.6-16.2 57.4-30.6 41.4-24 81.5-66.3 91.1-85.3a576 576 0 0 0 21.8-57.2L352 15.8 411.7 0l3.6 18c1 .3 5 2.2 6.8 6.6 2 5 2.8 9.6 3.2 12.2a25.3 25.3 0 0 1 4 1.3l.5.3v.3c2 .4 4.7 2 6.7 6.6 4 9.5.4 16.6 5.9 19 5.4 2.3 8.6 10 5 15.2"/>
  </g>
  <path fill="#079baa" d="M158 423.4h-10.8v20.5h10.9Zm-13.8-69.5h-9.6v19.7h9.6Zm3 44.3h10.9v-21.6h-10.8Zm10.9 3h-10.8v19.2H158Zm0-47.3h-10.8v19.7H158Zm-36.6-3h10.1v-17h-10Zm0 47.3h10.1v-21.6h-10Zm0 22.2h10.1v-19.2h-10Zm13.1-22.2h9.6v-21.6h-9.6Zm-3 25.2h-10v20.5h10Zm0-69.5h-10v19.7h10Zm3 66.5h9.6v-19.2h-9.6Zm9.6 3h-9.6v20.5h9.6Zm-9.6-72.5h9.6v-17h-9.6Zm12.6 0h10.9v-17h-10.8Zm55.2 25.7h-12.8v21.6h12.8ZM186.6 354h-10.9v19.7h11Zm-10.9-3h11v-17h-11Zm29.7 69.5H222v-19.2h-16.5ZM189.6 351h12.8v-17h-12.8Zm12.8 3h-12.8v19.7h12.8Zm0 47.3h-12.8v19.2h12.8Zm-29.7-24.6h-11.6v21.6h11.6Zm0 24.6h-11.6v19.2h11.6Zm-11.6 22.2V444h11.6v-20.5Zm25.5-22.2h-10.9v19.2h11Zm0-24.6h-10.9v21.6h11ZM161.1 351h11.6v-17h-11.6Zm11.6 3h-11.6v19.7h11.6Zm-63-3h8.8v-17h-10.3v10l1.1 5.1.5 1.9Zm22 96h-10.2v27.8a227.5 227.5 0 0 0 10.1-2.5Zm3-130.5v14.4h9.5v-15l-9.4.6h-.2Zm-13.2.1v14.3h10.1v-14.3h-10Zm39.6 14.3h11.6v-19.4l-11.6 2.2Zm-9.7-8.2.3 1 1.5-.2-.4-1-1.4.2Zm-1.2-7.4 7.9-1v16.6h-10.8v-15.3l1.9-.2h1Zm-35.3 58.4h3.6V354h-8l.7 3.6a40007.8 40007.8 0 0 1 3.7 16.1ZM97.7 476c2.4.4 5 .6 7.5.6v-.3c-2.6-.3-4.1-.7-4.1-.7l.1-.6 1.7.3a49.4 49.4 0 0 0 2.3.3v-9.9a71.7 71.7 0 0 1-7.5 10.3Zm5.4-157 2 10.4.1.5v-14.8a107.4 107.4 0 0 1-2.9-.5l.8 4.3Zm94.2-14.4a263.9 263.9 0 0 1-7.7 2.4v23.8h12.8v-28c-1.2.5-2.4 1-3.7 1.3l-1.4.5Zm8.1 93.6H222V396l-.6-.6a185.5 185.5 0 0 1-3.3-3.8 37 37 0 0 1-5.2-7 21.6 21.6 0 0 1-.9-1.8 15.8 15.8 0 0 1-1.4-6.3h-5Zm11.4-43.6.3-.7h-11.7v19.7h6.7l1.8-.4-.3-1-.4-2a237 237 0 0 1-.9-3.3 84 84 0 0 1 1.7-4.6l2.3-5.2-.3-.2.8-2.3Zm-39.6-44.3-1.5.4v20.1h11v-23c-2.9.9-5.7 1.6-8.4 2.3l-1.1.2Zm47.7 110h15.7a61 61 0 0 0-2.4-4 105 105 0 0 0-9.6-12.8l-.7-.8-1.4-1.5H225ZM205.4 351h12.7l.2-.6.5-1.8 1.2-4.2.8-4.7.4-2.5.2-2.5v-.8h-16Zm16.8-9.7Zm-1.1 4.5Zm-112.9 130c2.8.2 6.3.1 10.3-.4V447h-4.4c-1.9 5.2-3.9 9.6-5.9 13.5Zm97.2-173.9v29h16.2v-1.5l-.2-2.6c0-1 0-1.8-.2-2.6-.3-1.7-.4-3.5-.9-5l-.6-2.4-.7-2.2-.7-2-.8-2-1.7-3.2-1.4-2.3-1-1.5-.4-.4.2-.2a37 37 0 0 0-2.3-3.1 263.8 263.8 0 0 1-5.5 2Zm-90 14.2-.4.1c-2.5-.1-4.8-.4-6.8-.6v15.3h10.3v-14.4l-3.1-.2v-.2Zm92.5 125 1.2.4c4-.1 8.2 0 12.8 0v-18h-16.5v17.2l1 .1a17.4 17.4 0 0 1 1.5.4Zm-89.4-64.4h-3.4c1.3 6 2.5 12.2 3.4 18.5Zm78 64.2c2-.3 4-.5 6-.5v-17h-12.9v18.8a34 34 0 0 1 5.2-1 38.2 38.2 0 0 1 1.7-.3Zm44.3-7.2-.2.2c-.9.7-2.2 1.7-4 2.8a50 50 0 0 1-6.6 3.6l-.4.2c5.5-1.4 9-4.3 11.2-6.8Zm-15.9 7.3a39.8 39.8 0 0 0 4.7-1.6 50.3 50.3 0 0 0 6.6-3.4 52.8 52.8 0 0 0 4-2.6l1.4-1 .1.1c1.5-2 2-3.4 2-3.4s0-1.9-1.7-5.6h-17Zm-38.3-17.5h-10.9V444h8.4a56 56 0 0 1 2.5-1ZM158.1 447h-10.8v19c3.5-2 7-4.6 10.8-7ZM141 469a73.2 73.2 0 0 0 3.2-1.5V447h-9.7v24.5l1-.3 5.6-2Zm31.6-19.2v-2.9H161v10.2a237 237 0 0 1 6.4-4 101.5 101.5 0 0 1 5.2-3.3Zm3-2.9v1l2-1Zm-60.6-3h3.4v-12.6a69.6 69.6 0 0 1-1 4.8 132 132 0 0 1-2.4 7.9Zm32-233.5h-2.5l-.8-.3a4.8 4.8 0 0 1-.8-.3c-.3 0-.5-.1-.8-.3l-.7-.4-.6-.4a9 9 0 0 1-.8-.4s1 4.8 4.7 4.7c3.7 0 5.4-3.7 5.4-3.7l-.5.1-1 .5c-.5.3-1 .4-1.6.5Zm-5.9-8.8h1.3l2.4-.1 1.2-.2 1.2-.2 1.2-.2 1.2-.2 3.1-.8h.2s0-1.7-1-2.5c-1-.7-3.3 1.6-3.3 1.6s-.8-1.6-2-1c-1.2.7-8 3.1-8 3.1l1.4.5Zm52.5 67.6s4.3-4 6.4-1.7l.4.5s9.3 19.1 13 34.7l-.2.2-2.3-3.1a263.8 263.8 0 0 1-8.5 3c-1.2.5-2.4 1-3.7 1.3 0-.3 1.7-26-5.1-35"/>
  <path fill="#f6d20c" d="m118.8 143.6.2-.1-.2-.9a17.4 17.4 0 0 1-.3-2.2c0-.9 0-1.9.2-2.8.2-.5.4-1 .7-1.3l1.2-.9 3.2-2c1-.8 1.8-1.7 2.3-2.6a4.5 4.5 0 0 0 .4-2.6c0-.6-.2-1-.2-1l-.5.2v.8l-.3.9c0 .3-.3.6-.5 1a17 17 0 0 1-3.6 2.8 39 39 0 0 1-1.6.9c-.6.2-1.3.7-1.7 1.3a5 5 0 0 0-1 2 7.3 7.3 0 0 0 1 5.8 7.8 7.8 0 0 0 .4.8Zm17.2-2.9.9-.7a5.9 5.9 0 0 0 1-1.5 6.7 6.7 0 0 0 .7-2.4c.3-1.7 0-3.8-.5-5.8-.4-2-1.1-4.2-1.9-6.3l-.5-1.5a6.3 6.3 0 0 1 0-4.1 13 13 0 0 1 2.7-4.4c1-1.2 2-2 2.8-2.6l1.1-1-.2-.5-1.4.7c-.8.5-2 1.3-3.2 2.4a14.6 14.6 0 0 0-1.8 2c-.7.8-1.2 1.7-1.6 2.8a7.7 7.7 0 0 0-.1 5.3l.5 1.6a46.9 46.9 0 0 1 3 11.3l-.4 2a5 5 0 0 1-.8 1.4 6.7 6.7 0 0 1-.7.8l-.3.2.2.3.1.2.4-.2Zm21.6-27.8c-.6-1.6-1.6-3-2.6-3.8a8.2 8.2 0 0 0-2.7-1.5l-1.1-.2-.2.5 1 .5a9.6 9.6 0 0 1 2.1 1.7 8 8 0 0 1 1.8 3.3c.2.7.3 1.5.3 2.2v2.4c0 1.6-.3 3.2-.5 4.8a19 19 0 0 0 0 4.4 9.2 9.2 0 0 0 .5 1.8l.6 1.2.6 1 .5-.3-.4-1-.3-1.3a11.8 11.8 0 0 1-.2-1.5v-2l.3-2c.3-1.6.6-3.3.7-5v-2.6a9.8 9.8 0 0 0-.4-2.6Zm-53 32.3.4-.3-.4-.7a24 24 0 0 1-1-2c-.5-1-1-2-1.3-3.4-.3-1.3-.4-2.8-.2-4.4a11 11 0 0 1 2.1-4.7c1.2-1.5 2.7-2.8 4.4-4a29.3 29.3 0 0 1 8.6-3.7 20.4 20.4 0 0 1 1.6-.3l1.7-.3a8.4 8.4 0 0 0 3.4-1.5c1-.8 1.8-1.7 2.4-2.7a24 24 0 0 0 2.7-6.4c.4-1 .6-2 .9-3.1l.3-1.5.1-.8.2-.6a6.4 6.4 0 0 1 3-3.9 12 12 0 0 1 4-1.3 20 20 0 0 1 3.4-.3c2 0 3 .2 3 .2l.1-.5-.8-.2a21 21 0 0 0-5.8-.4c-1.4.2-3 .5-4.6 1.3a7.9 7.9 0 0 0-3.8 4.6l-.8 3a58.5 58.5 0 0 1-.8 3c-.7 2-1.4 4-2.6 5.8a7.7 7.7 0 0 1-4.7 3.5c-.4.2-1 .2-1.6.3a21.9 21.9 0 0 0-1.7.3 29 29 0 0 0-9 4.2 18.8 18.8 0 0 0-4.7 4.4 12 12 0 0 0-2.2 5.4 12 12 0 0 0 .5 5 17 17 0 0 0 2.7 5.3l.5.7Zm65.5-4.5c.3-.1.9-.2 1.5-.6a9 9 0 0 0 3.8-4.7 11.5 11.5 0 0 0-.1-8.8 7.9 7.9 0 0 0-.6-1 7 7 0 0 0-.8-1.1l-.8-.9-.6-.8c-.8-1.2-1.3-2.6-1.6-4.1-.3-1.6-.5-3.2-1-4.8a25.3 25.3 0 0 0-1.5-4.6 13.3 13.3 0 0 0-2.7-3.8 16.4 16.4 0 0 0-3.2-2.4c-2-1.3-4-2-5.3-2.3l-2.2-.5v.6l2 .7a23.7 23.7 0 0 1 4.8 2.6 13 13 0 0 1 5 5.8 27.6 27.6 0 0 1 1.4 4.3l1 4.8a10 10 0 0 0 1.9 4.8l.8 1 .8.8.2.2.2.2.2.4.6.9c.6 1.2.8 2.6.8 3.9a11.7 11.7 0 0 1-.5 3.6c0 .4-.2.8-.4 1.2a8.9 8.9 0 0 1-.9 1.6 6.6 6.6 0 0 1-1.7 1.7c-.5.4-1 .6-1.3.7l-.5.1v.6l.7-.1Zm27.3 55.6a2.2 2.2 0 0 1-.2-.7 13.7 13.7 0 0 0-1.1 1.8 11.5 11.5 0 0 0-1.2 8.2c.4 1.6 1.1 3.4 1.7 5.2l.7 2.9a6 6 0 0 1-.2 3.5c-.5 1.2-1.4 2-2.2 2.6l-2.6 1.6-2.5 1.5a15 15 0 0 0-2.2 1.7 20.3 20.3 0 0 0-3.4 4.3 28 28 0 0 0-3.4 9.5 27.6 27.6 0 0 0-.3 7.2l.2 2 .2.7h-.3c5.6-1 10-4.7 9.9-14.5 0-4.5-1.2-3.5 11-6.4 12.2-2.9 7.2-15.6.5-21.4a6.8 6.8 0 0 1-1.7-2c-1.8-3.5 3-6 3-6h-.4c-1.3-.2-4.8-.7-5.5-1.7Zm-17 20.7.3.5h.3l.7-.4a9.3 9.3 0 0 0 1.2-.6c.5-.2 1-.6 1.4-1a6 6 0 0 0 1.1-2 8.1 8.1 0 0 0 .5-2.4 18.5 18.5 0 0 0-1-6.2 8.3 8.3 0 0 1-.2-1 6.4 6.4 0 0 1 .1-2c.3-1.3 1-2.4 1.6-3.3a15.8 15.8 0 0 1 2-2l.8-.7-.3-.5-1 .4c-.6.4-1.5 1-2.4 1.8-1 .9-1.9 2.2-2.4 3.9a7.3 7.3 0 0 0-.1 2.6l.2 1.4.3 1.1c.4 1.6.7 3.1.8 4.5 0 .7 0 1.4-.2 2a5 5 0 0 1-.7 1.5 7 7 0 0 1-2 1.8l-1 .6Zm-.3 30.7.2.7c-5.6 1-12.3-.2-17.3-.3s-1.8-2.6-3.4-23.7l.4-.4 1-1a76.4 76.4 0 0 0 4-4 87.6 87.6 0 0 0 5.7-7l2-2.8-.5-.3-2 2.4c3.5-5 7.2-11.2 10-18v-.5s5.5.2 11.5-.9a8 8 0 0 1 2.7 0 21.3 21.3 0 0 1 0-1.6 32.6 32.6 0 0 1 1.4-9.3 36.8 36.8 0 0 1 1.4-4l.9-2 .5-1 .4-1a11.7 11.7 0 0 0 .8-4.3c0-3-1-5.9-2.4-8.4a41 41 0 0 0-4.5-6.3 53.5 53.5 0 0 0-3.8-3.9l-1-1-.5-.4.2-.2.2.2 1.4 1.1a45.6 45.6 0 0 1 8.7 10.1c1.4 2.5 2.6 5.6 2.6 8.8 0 1.6-.3 3.2-.9 4.7a16.4 16.4 0 0 1-.5 1l-.4 1a31 31 0 0 0-1 2l-1.4 3.9a40 40 0 0 0-1 3.6 42 42 0 0 0-.5 3 32.3 32.3 0 0 0-.2 2.4 25.3 25.3 0 0 0 0 1.6c1.5.4 2 1.5 2.2 2.6a14.7 14.7 0 0 0-1.9 2.3 12.4 12.4 0 0 0-1.7 4 13.1 13.1 0 0 0 .7 7.9l.8 2.6.7 2.7c.1 1 .1 1.8-.2 2.4-.2.7-.8 1.3-1.6 1.8l-2.3 1.6-2.6 1.6a16.7 16.7 0 0 0-2.4 2 20.3 20.3 0 0 0-3.6 4.7 27.2 27.2 0 0 0-2.1 5.2 19 19 0 0 0-1.1 4.9 28.6 28.6 0 0 0 0 7.5l.4 2Zm-50-155.3 1.2.2c.3 0 .7 0 1.2.2.8 0 1.7.2 2.7.4l1.5.4c.5 0 1 .2 1.5.4.6 0 1 .3 1.6.4l1.4.6 1.3.6 1.1.7.9.6.5.5h-.1a31.4 31.4 0 0 0-2.7-.8 36.8 36.8 0 0 0-4.2-.7 21 21 0 0 0-5.6 0 16.5 16.5 0 0 0-7.3 2.3l-.7.6-1.5 1-1.3 1.1a56.7 56.7 0 0 1-4.2 1.8c-2.3.8-4.7 1.5-7.2 2l-1.9.2-1.8.2-3.8.2a86.4 86.4 0 0 1-3.7 0 22 22 0 0 0-4 .2c-2.6.4-5.2 1.8-7 4a17.4 17.4 0 0 0-3.4 7.4 28.3 28.3 0 0 0-.6 4 28.2 28.2 0 0 0 0 4.1v.2a32.1 32.1 0 0 1 .6 9c-.2 3-.8 6-2.3 8.6l-1.3 1.7-.7.8-.9.8-3.4 3c-1.1 1-2.4 2-3.3 3.6-.5.7-.9 1.6-1 2.6 0 1 .2 1.8.4 2.6a22 22 0 0 0 2 4.4c.8 1.4 1.6 2.7 2.2 4a24 24 0 0 1 2 9c.2 3-.2 6.1-.9 9.1-.6 3-1.4 5.9-2.3 8.8v.3h.2l.3.2c1-3 2-6 2.7-9a34 34 0 0 0 1.2-9.5c0-3.2-.7-6.5-2-9.4-.5-1.5-1.3-3-2-4.3-.8-1.3-1.5-2.7-1.9-4-.4-1.5-.3-2.8.4-3.9.8-1.1 2-2.1 3-3l3.6-3.1.8-.9.9-.8 1.4-2c.9-1.5 1.5-3 2-4.6a25.1 25.1 0 0 0 .7-9.7 34.8 34.8 0 0 0-.7-4.7 27.1 27.1 0 0 1 .5-7.5 17 17 0 0 1 3-6.7 10 10 0 0 1 6.1-3.4c1.2-.3 2.4-.3 3.7-.3a90 90 0 0 0 3.8 0l3.8-.4a28.6 28.6 0 0 0 2-.2l1.8-.3a38.5 38.5 0 0 0 7.4-2.2l1.4-.6c-1.6 1.5-3.2 3.2-5 4.7a51.4 51.4 0 0 1-9.8 6.9l-1.7.9a22.4 22.4 0 0 0-7.9 6.5c-3.3 4.2-5.2 9-5.7 13.3a19.8 19.8 0 0 0 .3 5.9 15.4 15.4 0 0 0 1.4 4.2 14.7 14.7 0 0 0 1.6 2.4l.7.8.4-.4-.6-.7a14 14 0 0 1-1.4-2.4 14.5 14.5 0 0 1-1.2-4 18.7 18.7 0 0 1 0-5.6 24.2 24.2 0 0 1 1.8-6.3 26.4 26.4 0 0 1 3.9-6.2 24.1 24.1 0 0 1 7.4-6l1.8-.9a52.7 52.7 0 0 0 10.2-7l5.7-5.6a46.9 46.9 0 0 1 2.7-2.5l1.4-1 3.7-2.2 3.6-.9a29 29 0 0 1 9.6.3c2.3.4 3.6.8 3.6.8V98l.1.2 3-.7a26.4 26.4 0 0 1 12.6.1 16.9 16.9 0 0 1 9.4 6.8 58.7 58.7 0 0 1 3.3 5.7l1.6 3a14 14 0 0 0 2.1 2.9c1.7 1.6 3.5 2.8 5.2 4a9 9 0 0 1 3.4 4.3c.6 1.6.8 3.4.7 5a9 9 0 0 1-1.4 4c-.8 1-1.7 1.7-2.5 2.1-.8.4-1.5.5-2 .7h-.8v.6h.9a7.2 7.2 0 0 0 5-2.4l.2-.3a9.1 9.1 0 0 0 1.8-4.5c.3-1.8.1-3.8-.6-5.8-.6-2-2-3.9-3.8-5.2-1.7-1.2-3.4-2.3-4.9-3.8a12.1 12.1 0 0 1-1.8-2.5l-1.5-3a58.6 58.6 0 0 0-3.5-5.8 18 18 0 0 0-4.7-4.8 17.6 17.6 0 0 0-5.6-2.5 22.4 22.4 0 0 0-5.4-.6 25.5 25.5 0 0 0-8 1.2 23 23 0 0 0-2.8 1c0-.2-.2-.3-.3-.5l-.6-.6-.8-.8-1.1-.8-1.4-.8-1.5-.6-.7-.3.7-.6c.8-.7 2-1.7 3.7-2.8a38.3 38.3 0 0 1 6.3-3.5c2.6-1 5.5-2 8.9-2.4 1.6-.2 3.3-.3 5.1 0 1.8.1 3.6.5 5.4 1.1a40.8 40.8 0 0 1 20.1 14.8 25.8 25.8 0 0 1 5.1 19.3l-1.3 7-.8 6.9a31 31 0 0 0 0 7 13 13 0 0 0 2.8 6.3c1.6 1.7 3.4 2.8 5.2 3.7 1.7 1 3.5 1.7 5 2.7a14 14 0 0 1 3.5 3.8c1.8 2.9 2.3 6.1 2.3 9 0 2.8-.6 5.2-1.3 7.1a29.2 29.2 0 0 1-1.3 3.2l-.6 1.2v.2l-.6.9-.2.3.3.2.2.1.2-.3.7-1.1c.5-1 1.3-2.4 2-4.4l.1-.3c.7-2 1.3-4.3 1.5-7.1 0-3-.4-6.5-2.3-9.7a15 15 0 0 0-3.8-4.2c-1.6-1.2-3.4-2-5-2.9-1.8-1-3.5-2-4.7-3.5-1.3-1.5-2-3.4-2.3-5.5-.3-2-.2-4.3 0-6.6.1-2.2.5-4.5.8-6.8l1.3-7a29.4 29.4 0 0 0-5.3-20.7 40.8 40.8 0 0 0-26.8-16.3 20.4 20.4 0 0 0-5.5.2 33.3 33.3 0 0 0-9.1 2.8 40 40 0 0 0-6.3 3.7 35.3 35.3 0 0 0-3.7 3l-1 1h-.1c-1-.4-2.2-.6-3.2-.7l-2.8-.3h-.7a19.7 19.7 0 0 0-2 0v.3h.3ZM51.2 180a26.2 26.2 0 0 0-1.4-12.8l-.7-1.3-.6-1.3c-.7-1.7-1.3-3.6-1.1-5.6.1-1.9 1.1-3.7 2.5-5.2s3.1-2.8 5-4a105.7 105.7 0 0 1 5.7-3.3l3-1.7a25.5 25.5 0 0 0 3-1.9c4-3 6.8-7.1 9-11.4 2.3-4.4 4-9 5.7-13.4l4.8-13.1 2.6-6.1a13 13 0 0 1 3.7-4.6c3-2.4 6.7-3.4 10.1-3.9a49.8 49.8 0 0 1 16.7.5 67 67 0 0 1 6.3 1.2l.1-.5-1.6-.5a67 67 0 0 0-4.6-1c-2-.4-4.5-.8-7.4-1.1a46.2 46.2 0 0 0-15 1.2c-1.9.6-3.7 1.5-5.4 2.8a14 14 0 0 0-4.3 5.1c-1 2-1.8 4-2.6 6.2l-5 13.1c-1.6 4.5-3.4 9-5.5 13.2a31.8 31.8 0 0 1-8.5 10.9c-.9.7-1.8 1.2-2.8 1.8l-3 1.6-5.8 3.5a27.1 27.1 0 0 0-5.2 4.4 10.4 10.4 0 0 0-2.7 6.1 13 13 0 0 0 1.3 6.2l.7 1.4.6 1.2 1 2.5c1 3.4 1 6.8.6 9.7-.3 2.9-1 5.4-1.5 7.4a48.3 48.3 0 0 1-1.6 4.6l-.7 1.6.4.2.8-1.6a49 49 0 0 0 1.8-4.6 47 47 0 0 0 1.7-7.5Zm54 285.7v9.9l2.4.1h.6v-15.3a90.3 90.3 0 0 1-3 5.3Zm2.6 10.9h-.3a62 62 0 0 1-2.3-.3v.3h2.6Zm97.6-75.4v19.2H222v-19.2Zm-3 19.2v-19.2h-12.8v19.2Zm-15.8 0v-19.2h-10.9v19.2Zm-13.9 3h-11.6v20.5h11.6Zm-14.6 20.5v-20.5h-10.8v20.5Zm-13.8 0v-20.5h-9.7v20.5Zm-12.7 0v-20.5h-10v20.5Zm-10-110v17h10v-17Zm0 67.3v19.2h10v-19.2Zm10-27.6V354h-10v19.7Zm-10 3v21.6h10v-21.6Zm13 24.6v19.2h9.6v-19.2Zm9.6-27.6V354h-9.6v19.7Zm-9.6 3v21.6h9.6v-21.6Zm0-42.8V351h9.6v-17Zm12.6 86.6h10.9v-19.2h-10.8Zm0-43.8v21.6h10.9v-21.6Zm10.9-3V354h-10.8v19.7Zm-10.8-39.8V351H158v-17Zm25.4 39.8V354h-11.6v19.7Zm0 24.6v-21.6h-11.6v21.6Zm-11.6 22.2h11.6v-19.2h-11.6Zm0-86.6V351h11.6v-17Zm25.5 39.8V354h-10.9v19.7Zm-10.9 24.6h11v-21.6h-11Zm0-64.4V351h11v-17Zm26.7 39.8V354h-12.8v19.7Zm-12.8 24.6h12.8v-21.6h-12.8Zm0-64.4V351h12.8v-17Zm15.8 39.8h6.7l-1.5.4a20.1 20.1 0 0 0-.1 2.6h-5v21.6h16.4V396l4 4.4.6.7H225v19.2h15.7a46.5 46.5 0 0 1 1.4 3H225v17.5l-1.3.4h-1.8v-18h-16.5v17.3a26 26 0 0 0-2.3-.3h-.7v-17h-12.8V442a41.4 41.4 0 0 0-3 .9v-19.6h-10.9V444h8.4a69 69 0 0 0-6.5 3h-1.9v1a89.9 89.9 0 0 0-3 1.8v-2.9h-11.6v10.2l-2.7 1.7-.3.2v-12h-10.8v19l-.4.1-2.7 1.4V447h-9.6v24.5a222.7 222.7 0 0 1-3 .8V447h-10v27.8l-3 .6V447H114l1-3h3.4v-12.6a110 110 0 0 0 0-36.2v-18.5H115l-.4-1.5.5-.1-.3-1.4h3.6V354h-8l-.7-3h8.7v-17h-10.3v10l-1-4.3a803.4 803.4 0 0 1-2-9.7v-14.8l3 .4v15.3h10.3v-14.4l3 .1v14.3h10.1v-14.3h3.1v14.3h9.6v-15l3-.3v15.3H158v-16.7l3-.5v17.2h11.6v-19.4l3-.7v20.1h11v-23l3-.8v23.8h12.7v-28l3-1v29h16.2v1.1l-.1 2h-16v17H218c0 .4-.2.7-.3 1l-.7 2h-11.7ZM59.3 208l1.3 2.4 1.4 3 1.4 3 .8 1.8-1.2-10a11 11 0 0 1-3.7-.2Zm-1.5 41.5 1.1-.8c2.8-4.2-8.7-26.2-14.9-39.3l-3.3 1.1a6.6 6.6 0 0 1-2.6.3l-.1.6a21.4 21.4 0 0 0-.4 6c.2 1.3.6 2.5 1.4 3.5.3.5.8 1 1.4 1.3.5.4 1.2.6 2 1 .3 0 .7.2 1 .4l1.2.6 2.1 1.5c1.4 1.1 2.6 2.5 3.6 4a23.8 23.8 0 0 1 2.6 4.6 28 28 0 0 1 1.6 4.9c.7 3.2.8 6.4.6 9a23.2 23.2 0 0 1-2 8l-.2.1h.1a74.1 74.1 0 0 1 5-6.5ZM94.7 236a10.6 10.6 0 0 1 3.4.9 17.5 17.5 0 0 1 8 6.1 13.4 13.4 0 0 1 1.6 3.1 10.5 10.5 0 0 1 .6 4.2c1 .1 2 0 2.7-.3h.2a5.2 5.2 0 0 0 1.4-1.2l-.2-.1.1-.5.4-1.2.2-1 .1-1v-2.7l-.4-1.4-.6-1.5-.4-.7-.5-.7-1.1-1.2-1.4-1.2-1.5-.9-.8-.4-.9-.3-1.8-.5-1.8-.3-1-.2-1-.2a9.9 9.9 0 0 1-3.8-1.6l-.8-.6-.7-.7c-.4-.6-.8-1-1-1.6-.7-1.1-1-2.3-1.2-3.3a27.7 27.7 0 0 1-.2-1.5v-3.6l.2-1.4.1-.5.6.1v1.8a20 20 0 0 0 .6 4.8c.2.9.6 1.9 1.2 2.7a8 8 0 0 0 2.2 2.4c1 .6 2 1 3.1 1.2l1 .2h.4l.5.1 2 .4c.7.1 1.4.3 2 .6l1 .3.9.5a12.8 12.8 0 0 1 4.5 4l.5.8.4.9c.3.5.4 1.1.6 1.7l.3 1.6a11.4 11.4 0 0 1-.2 3l-.2 1.2-.3 1-.1.2.1-.3c1.4-2.6 1.7-6 4.5-7.4a7 7 0 0 0 2.8-2.4c.7-1.8 1.6-4.3-3.7-11a107 107 0 0 0-4-3.3l-7.6-5.8c-4.3 3-14.3.3-14.3.3a21 21 0 0 1-12.7-14.9l-.4.1.5 1.6A48.9 48.9 0 0 1 81 211l.8 2.9.8 3c.4 2 1 4 1.2 6l.4 2.8.3 2.5v2l.4 1.6s-.7 1.3 3.6 3a305.7 305.7 0 0 0 3.9 1.5l2.2-.2Zm-42.5 20.3.3.1-1.5.8a9.5 9.5 0 0 1-.7.4 20.6 20.6 0 0 1-1.4-2.3 12.3 12.3 0 0 1-.7-1.8l-.4-2v-.5c.1-.1 0-.3.2-.5l.1-.4.2-.4.1-.2a.5.5 0 0 1 .2-.2l.4-.5.9-1 .8-1.2.5-1.3.3-2.7c0-.8 0-1.6-.2-2.4a17.4 17.4 0 0 0-.5-2 19.1 19.1 0 0 0-1-3l-.6-1.1-.5.2.3 1.1a35.8 35.8 0 0 1 .8 7.2 10.6 10.6 0 0 1-.4 2.2l-.3 1-.6.9-.8.9-.4.4c-.2.1-.3.5-.5.7a6.3 6.3 0 0 0-.4 4.2l.2.6.2.6 1 1.9a15 15 0 0 0 1.6 1.9c-7.9 2.6-12-9.3-7.1-11.7 5.2-2.6 6.8-9-3.8-19.4-8.6-8.3-9.4-13.3-5.8-19.4a9 9 0 0 0 4.6 3.2l-.1.5c-.5 1.5-1.2 3.6-1 6.4.1 1.4.5 3 1.4 4.4a6.8 6.8 0 0 0 1.9 1.7c.7.5 1.5.8 2.2 1.1l1 .5c.3.2.7.3 1 .6l2 1.3a18.4 18.4 0 0 1 3.2 3.5 24.3 24.3 0 0 1 2.5 4.3 30.5 30.5 0 0 1 1.6 19.2l-.5 1.6-.3.6"/>
  <path fill="#4c5498" d="M170.6 451.4c4.2-2.3 8.4-4.5 12.7-6.4 3.8-1.6 7.6-3 11.5-3.9a34 34 0 0 0-5.2 1 41.4 41.4 0 0 0-3 .9l-2.5 1a69 69 0 0 0-6.5 3l-1.9 1a89.9 89.9 0 0 0-3 1.8 101.5 101.5 0 0 0-5.2 3.4 173.2 173.2 0 0 1 3.1-1.8Zm4.2 6.2a49.4 49.4 0 0 1 17.8-14.1 74 74 0 0 0-8.6 3.1 134 134 0 0 0-12.5 6.4l-12.1 7.3a473.4 473.4 0 0 0-5.9 3.8 97.7 97.7 0 0 1-5.8 3.6c-4 2.2-8 4-11.8 5.3a75.3 75.3 0 0 1-11.2 2.8 69.1 69.1 0 0 1-11.5 1c27.7 3.6 56.9-11 61.6-19.2Zm-50.3 16.9a74.4 74.4 0 0 0 10.9-3 88.3 88.3 0 0 0 3.2-1.3l-3 .9-1 .3a222.7 222.7 0 0 1-3 .8 227.5 227.5 0 0 1-13 3.1 78.4 78.4 0 0 0 5.9-.8ZM144 240.3a15 15 0 0 0 9.8-11.8 33 33 0 0 1-4.7 2.5 25 25 0 0 1-3.5 1.2c-.6 0-1.2.3-1.9.3l-1.9.2c-2.5.1-5-.1-7.3-.5a44.2 44.2 0 0 1-6.9-1.8c-2.2-.8-4.2-1.6-6.1-2.6a66.1 66.1 0 0 1-5.3-2.9l-.5-.3 1.5 1.8c5.3 6.7 4.4 9.2 3.7 11-1 2 14.1 6 23.1 2.9Zm-132.5 185a142.5 142.5 0 0 0 8.7 21.3c1.7 3.3 3.6 6.5 5.6 9.3a93 93 0 0 0 6.4 8.2c4.4 5.1 9 9.5 13.7 13 4.7 3.5 9.4 6 13.8 7.7a40.7 40.7 0 0 0 13.2 2.7c-.9-1.7-5.3-8.7-18.4-12.2-15-4-6.3-31.5-24-46-14.4-12-25-40.4-28.4-50.4a242.2 242.2 0 0 0 9.4 46.5Zm-11-46.5C-.2 385 0 399.2 9 423.2a201 201 0 0 1-5-20.6c-1.6-7.9-2.7-15.8-3.5-23.8Zm31 86.8a63.2 63.2 0 0 0 25 19.1 57 57 0 0 1-11.3-6.5 89.6 89.6 0 0 1-13.7-12.6ZM386 83.4Zm-16.4-52.1a3 3 0 0 0 2.8-3 3 3 0 0 0-2.8-3 3 3 0 0 0-2.9 3 3 3 0 0 0 2.9 3Zm-1.7-7a3 3 0 0 0 2.8-3 3 3 0 0 0-2.8-3 3 3 0 0 0-2.9 3 3 3 0 0 0 2.9 3Zm-2.5 5.8a3 3 0 0 0-2.9-3 3 3 0 0 0-2.8 3 3 3 0 0 0 2.8 3 3 3 0 0 0 2.9-3Zm-4.6-4a3 3 0 0 0 2.9-3 3 3 0 0 0-2.9-3 3 3 0 0 0-2.8 3 3 3 0 0 0 2.8 3Zm67 81.4 5.2.5 2.3 11.4-30 10.3-25 8.6-10.1-43.9L352 15.8 411.7 0l3.6 18-.3-.2 4 18.7h-.1l-2.2.3-4.8.6-5 .7-5.3.7-5.3.7-5 .7a18 18 0 0 0-4 1c-3 .5-4.4 1.6-4.6 3.2-.4.7-.7 1.6-.5 2.3.1.8.5 1.4.9 1.9.7 1 1.6 1.5 2.3 2l1.6.8.6.3v-.3c5.5 4.3 12 6 15.1 6.7l-2 1.7a109 109 0 0 1-6.4 5c-2.2 1.5-4.5 3-7 4l-1.8.7-1.9.8a31.5 31.5 0 0 0-7.2 4.3 13.2 13.2 0 0 0-2.1 2.6c-.2.3-.4.6-.5 1.2l-.1.2.1.3a8.5 8.5 0 0 0 1.6 1.9 13 13 0 0 0 1.9 1.5 13.6 13.6 0 0 0 8.8 2 17.5 17.5 0 0 0 2.3-.4l2.2-.7-.1-.2c4.2-.7 7.7-2 9.7-2.9-1.3 2.2-2.4 4.4-3.5 6.6l-.6 1.2a33 33 0 0 0-5.6 12.4l-.4 1-.1.3v.2c.6 1.3 1.7 1.6 2.5 1.7a6 6 0 0 0 2.3-.4c1.5-.5 2.7-1.3 3.9-2.1a37 37 0 0 0 1.7-1.3l1.7-1.3a90.2 90.2 0 0 1 3.2-2.6c1.1-.9 2.3-1.7 3.4-2.4l.3-.2c2 0 3.7 1 4.7 1.6v.1l-1.5 1.6a64.7 64.7 0 0 0-4.6 6.7 113.1 113.1 0 0 0-4 7.2l-.3.4.2.4c.4.7.8 1.2 1.3 1.6a5 5 0 0 0 1.6 1c1.2.5 2.5.4 3.7.2a11.7 11.7 0 0 0 3.1-1.3l1.5-1 1.3-.8a46.4 46.4 0 0 1 2.7-1.7l1.5-.6c.4-.3 1-.4 1.4-.6 1-.3 2-.4 3-.4l3.2.2Zm-5.3-.8c-.7 0-1.2-.2-1.2-.2l-.8.6a9.3 9.3 0 0 1 2-.4ZM384 48a2 2 0 0 1-.5-1.2c.5 1 1.4 2 2.6 3.2l-.2-.2c-.6-.4-1.4-1-2-1.8"/>
  <g clip-path="url(#b)">
    <path fill="#281c17" d="m96.1 203-.1-1c-.2-.9-.4-1.8-.8-2.8l-.4-.8-.4-.7-.5-.8-.6-.7c-.3-.5-.8-.8-1.3-1.2l-.8-.4-.8-.4-.9-.2h-.8a6.1 6.1 0 0 0-2.6.3 6.4 6.4 0 0 0-1.4.7h-.1l.2.6h.7a9 9 0 0 1 2.4-.1h.6l.6.2.6.3.6.3.5.3c.4.3.8.6 1 1l.6.5.4.6.4.6.3.7.6 1.2.6 1.2.4 1c0 .3.2.5.3.8l.3.6h.6v-.8l-.2-1Zm144.1 230.3a52.8 52.8 0 0 1-4 2.6 50.3 50.3 0 0 1-6.6 3.4 39.8 39.8 0 0 1-6 2l-3.1.6c-3.5.5-7.3.5-11-.4a11.8 11.8 0 0 1-.4-.1l-1.2-.3a17.4 17.4 0 0 0-1.5-.4l-1-.1a26 26 0 0 0-2.3-.3h-.7a31.6 31.6 0 0 0-5.9.5 38.2 38.2 0 0 0-1.7.3c-3.9.9-7.7 2.3-11.5 3.9-4.3 1.9-8.5 4-12.7 6.4a173.2 173.2 0 0 0-3.1 1.8 237 237 0 0 0-6.4 3.9l-2.7 1.7-.3.2c-3.7 2.3-7.3 4.9-10.9 7l-.3.1-2.7 1.4a73.2 73.2 0 0 1-3 1.5 86.4 86.4 0 0 1-5.8 2.4 74.4 74.4 0 0 1-11 3l-5.7 1h-.2c-4 .4-7.5.5-10.3.4h-.6a68 68 0 0 1-2.4-.2 49.4 49.4 0 0 1-2.3-.3l-1.7-.3-.1.6s1.5.4 4.1.7l2.3.3h.3a65.6 65.6 0 0 0 16.9-.8 75.3 75.3 0 0 0 11.2-2.8c3.8-1.4 7.8-3.1 11.8-5.3a97.7 97.7 0 0 0 5.8-3.6 473.4 473.4 0 0 1 5.9-3.8c4-2.4 8-5 12-7.3 4.2-2.3 8.4-4.5 12.6-6.4a74 74 0 0 1 8.6-3.1 43.4 43.4 0 0 1 4.2-1 31 31 0 0 1 9.3-.3l1.5.3 1.5.4c4 1 8 .9 11.6.3 3.3-.6 6.3-1.6 8.9-2.8 0 0 .3 0 .4-.2a50 50 0 0 0 6.6-3.6 48.2 48.2 0 0 0 4-2.8l.2-.2 1.1-1-.3-.4-1.4 1Zm172-336.8a64.7 64.7 0 0 0-4.6 6.7 113.1 113.1 0 0 0-4 7.2l-.3.4.2.4c.4.7.8 1.2 1.3 1.6a5 5 0 0 0 1.6 1c1.2.5 2.5.4 3.7.2a11.7 11.7 0 0 0 3.1-1.3l1.5-1 1.3-.8a46.4 46.4 0 0 1 2.7-1.7l1.5-.6c.4-.3 1-.4 1.4-.6 1-.3 2-.4 3-.4l3.2.2v-.6l-3.1-.5a11 11 0 0 0-2 0 9.3 9.3 0 0 0-3 .7l-1.5.7a41.3 41.3 0 0 0-3 1.5l-1.3.8-1.4.8c-.9.5-1.8.9-2.8 1-1 .2-1.9.2-2.7 0a3.8 3.8 0 0 1-1-.8 3.7 3.7 0 0 1-.6-.6 178.7 178.7 0 0 1 3.7-6.6 77 77 0 0 1 5.6-8.2l1.3-1.3.4-.3h.1l.1-.1.2-.1.8-.4a6.5 6.5 0 0 1 1.8-.4 15.5 15.5 0 0 1 7.3 1.7l.3-.5a16.6 16.6 0 0 0-3.6-1.7 9.6 9.6 0 0 0-4.1-.7 8 8 0 0 0-2.1.3 7.3 7.3 0 0 0-1 .4l-.3.1-.1.1h-.1l-.5.4-1.5 1.3v.1l-1.5 1.6Zm-16-8.6a337.4 337.4 0 0 0-5.7 12.4l-.4 1-.1.3v.2c.6 1.3 1.7 1.6 2.5 1.7a6 6 0 0 0 2.3-.4c1.5-.5 2.7-1.3 3.9-2.1a37 37 0 0 0 1.7-1.3l1.7-1.3a90.2 90.2 0 0 1 3.2-2.6c1.1-.9 2.3-1.7 3.4-2.4l.3-.2 1.5-.9 1.8-.9 1-.3 1-.4a8.6 8.6 0 0 1 1.9-.3 10.4 10.4 0 0 1 2 0 7 7 0 0 1 2 .3l.2-.6a13 13 0 0 0-2.1-.5 10 10 0 0 0-2.2 0h-1a8 8 0 0 0-1 .3 8.6 8.6 0 0 0-1.1.2l-1 .4-2 .8-1.9 1-3.5 2.4a93.6 93.6 0 0 0-3.4 2.5l-1.6 1.3a33.7 33.7 0 0 1-5.3 3l-1.7.3a1.4 1.4 0 0 1-.6-.2l-.2-.1A325.4 325.4 0 0 1 402 80.6a43.6 43.6 0 0 1 4.5-6.2 13.6 13.6 0 0 1 9.8-4.5l3.6.3a34.2 34.2 0 0 1 7.3 2.2 95.2 95.2 0 0 1 7 3l.3-.5a73.3 73.3 0 0 0-7-3.4c-2.3-1-4.8-2-7.3-2.6a16 16 0 0 0-8 0 17 17 0 0 0-7 4.2 30.2 30.2 0 0 0-4.7 6.5l-.3.5c-1.3 2.2-2.4 4.4-3.5 6.6l-.6 1.2Zm-2-23.1c-2.1 1.5-4.4 3-6.8 4l-1.9.7-1.9.8a31.5 31.5 0 0 0-7.2 4.3 13.2 13.2 0 0 0-2.1 2.6c-.2.3-.4.6-.5 1.2l-.1.2.1.3a8.5 8.5 0 0 0 1.6 1.9 13 13 0 0 0 1.9 1.5 13.6 13.6 0 0 0 8.8 2 17.5 17.5 0 0 0 2.3-.4l2.2-.7-.1-.2v-.3a23.2 23.2 0 0 1-4.4.7 14.1 14.1 0 0 1-4.3-.4 12.3 12.3 0 0 1-3.9-1.8 11.5 11.5 0 0 1-1.6-1.4 12.4 12.4 0 0 1-.7-.8 8 8 0 0 1-.4-.6l.3-.5.5-.7 1.4-1.4a32 32 0 0 1 6.8-4l1.9-.6 2-.8c2.5-1 5-2.5 7.2-4a89 89 0 0 0 6.5-5.2l6.3-5.3c1-.8 2.1-1.7 3.2-2.4a15.6 15.6 0 0 1 1.7-1 8.7 8.7 0 0 1 1.8-.5c1.2-.3 2.5-.2 3.8 0 1.3.2 2.5.6 3.8 1a31 31 0 0 1 7.2 3.7l.3-.5a33.4 33.4 0 0 0-7.1-4.2c-1.3-.6-2.6-1-4-1.3a10 10 0 0 0-4.2-.1c-1.5.2-2.8.8-4 1.5l-3.5 2.4-4.4 3.6-2 1.7a109 109 0 0 1-6.4 5ZM423 36.4h-2l-2 .1h-.1l-2.2.3-4.8.6-5 .7-5.3.7-5.3.7-5 .7a18 18 0 0 0-4 1l-.9.4a8.5 8.5 0 0 0-3.7 2.8c-.4.7-.7 1.6-.5 2.3.1.8.5 1.4.9 1.9.7 1 1.6 1.5 2.3 2l1.6.8.6.3v-.3l.2-.2-.5-.3-1.3-1h-.2c-.6-.5-1.4-1.1-2-2-.2-.3-.4-.7-.4-1v-.3a2 2 0 0 1 .3-1.5c.7-.9 2-1.6 3.3-2.1a13 13 0 0 1 4.4-1.1l5.2-.6 5.2-.6 5.3-.8 5-.8a222.8 222.8 0 0 0 4.8-.8l2.2-.4 2-.2h1.8a162.5 162.5 0 0 1 2.6.2l1.8.4 1 .2a15.9 15.9 0 0 1 1.3.4l.2-.5-.6-.3a18.8 18.8 0 0 0-1.7-.6 25.4 25.4 0 0 0-2.2-.7h-.5l-1.8-.4ZM164.1 218.1a71.6 71.6 0 0 1-4.6 4.3 52 52 0 0 1-11 7c-2 .8-4.3 1.4-6.6 1.5a38.4 38.4 0 0 1-13.7-2.2 62 62 0 0 1-6-2.4 66.6 66.6 0 0 1-5.2-2.6 96 96 0 0 1-3.7-2.2 66 66 0 0 1-3.7-2.5c-1.8-1.2-2.7-2-2.7-2l-.4.5 1.9 1.6a65.6 65.6 0 0 0 5 3.9 54.2 54.2 0 0 0 2.4 1.6l.5.3a66.1 66.1 0 0 0 5.3 3c1.9.9 4 1.7 6.1 2.5a44.2 44.2 0 0 0 6.9 1.8 34.7 34.7 0 0 0 9.2.3c.7 0 1.3-.2 1.9-.3a25 25 0 0 0 3.5-1.2 33 33 0 0 0 4.7-2.5l1.6-1a52.9 52.9 0 0 0 4.5-3.6l1-.9a76.4 76.4 0 0 0 4-4 87.6 87.6 0 0 0 5.7-7l2-2.8-.5-.3-2 2.4-.1.2a91.4 91.4 0 0 1-6 6.6ZM79.3 487a36 36 0 0 1-6.3.4 34.6 34.6 0 0 1-1.5 0 43 43 0 0 1-11.7-2.7A55.1 55.1 0 0 1 46 477a88.7 88.7 0 0 1-13.7-13 93 93 0 0 1-6.3-8 112.3 112.3 0 0 1-14.3-30.6A213.7 213.7 0 0 1 2.2 379a7.1 7.1 0 0 1 0-.3 79.8 79.8 0 0 1 7-43.4 73 73 0 0 1 10.2-16A76.2 76.2 0 0 1 30.9 308a84.1 84.1 0 0 1 10.2-6.8l7-3.5 2.6-1.2-.1-.2-.1-.3-2.6 1-7.1 3.6a84.5 84.5 0 0 0-22.3 17.7 74.2 74.2 0 0 0-10.6 16.3c-3 6.2-5.3 13.3-6.6 20.8A86.5 86.5 0 0 0 0 366.9a73.4 73.4 0 0 0 0 6c0 1 0 2 .2 3l.2 2.9c.8 8 2 16 3.5 23.8a201 201 0 0 0 5 20.6l1 2.8a144.1 144.1 0 0 0 8.8 21.5 86.8 86.8 0 0 0 12.4 17.7l.4.4c4.4 5 9 9.2 13.7 12.6a57 57 0 0 0 14.1 7.6 42.2 42.2 0 0 0 9.1 2.2l3 .2a36.7 36.7 0 0 0 7.6-.4h.3l2.7-.6v-.6l-2.8.5Zm23.8-168a602.8 602.8 0 0 1-1.8-10.5 83.5 83.5 0 0 1-1-10.2 124.3 124.3 0 0 1 4.2-35.8l-.2-.1-.3-.1-1.4 4.7a118.4 118.4 0 0 0-3.6 21.5 93 93 0 0 0-.3 9.8c0 3.4.4 7 .9 10.5l.8 5.3.9 5.3a455.4 455.4 0 0 0 4.4 20.6l2.2 9.5 2.1 8.4 1.9 7.1 1.5 5.5a2844.8 2844.8 0 0 0 1.3 4.7l.5-.1-.3-1.4-3.7-16.1-.8-3.6-.7-3a363.2 363.2 0 0 1-.4-1.9l-1-5-1-4.4a803.4 803.4 0 0 1-2-9.7l-.2-.5a445.7 445.7 0 0 1-2-10.5Zm5.2-68.6a10.5 10.5 0 0 0-.6-4.2 13.4 13.4 0 0 0-1.7-3 15 15 0 0 0-5-4.7 17.5 17.5 0 0 0-3-1.5l-1.6-.6a10.7 10.7 0 0 0-1.7-.3h-.1l-2.2.2a84.3 84.3 0 0 1-6.3.1l-2-.1-.5-.1h-.3a2 2 0 0 0-.4-.1 2 2 0 0 0-1.6.7c-.7.9-.8 1.8-1 2.6a10.7 10.7 0 0 0 2.3 6.8l.3.2-1.6-1a205 205 0 0 0-3.8-2.3 30 30 0 0 0-4-2.2 6 6 0 0 0-1.2-.3h-.8l-.6.2-2 1a64.3 64.3 0 0 0-7.5 5l-2.5 2-1 .7v.3l.2.2 7.5-4.7a63.4 63.4 0 0 1 5.8-3 2 2 0 0 1 .7-.2l.8.3 3.8 2.2 3.7 2.4 3.8 2.4 3.3 2a2.8 2.8 0 0 1-.4.9c-.3.4-.8.8-1.3 1-.5.3-1.2.5-1.8.6h-3l-1-.2a18 18 0 0 1-2-.5 33.7 33.7 0 0 1-1.9-.7l-2-.8a14 14 0 0 0-2.1-.7 5.7 5.7 0 0 0-2.4-.1l-.6.1-.6.2-.3.2-.2.1-.5.3-1.7 1.4a20 20 0 0 0-1.5 1.7 32.7 32.7 0 0 0-1.4 1.8 36.5 36.5 0 0 0-2 3.3 60.6 60.6 0 0 0-3 2.9l.4.4a110.7 110.7 0 0 1 8.3-6.1c1-.6 2-1.2 2.9-1.5h1.2l.7.4.8.3 3 1.6a29.6 29.6 0 0 0 5.1 1.8h.9v.3a5.7 5.7 0 0 1-.5 1.2c0 .2-.2.3-.3.5a2.4 2.4 0 0 1-.3.5l-.4.4a2.2 2.2 0 0 1-.5.3c-.3.3-.6.4-1 .6l-1.2.2-1.2.1h-2.8l-1.5.3c-.5 0-1 .1-1.4.3l-1.4.4-1.3.6c-.5.1-.9.4-1.3.6a11.6 11.6 0 0 0-2.4 1.6l-.1.1-2.3 4 .4.2 2.2-3v.3c.2.7.5 1.5.9 2.2a9 9 0 0 0 1.3 2l.9.7.4-.3-.1-1.1a9.3 9.3 0 0 0-1-2.2 10 10 0 0 0-1.3-1.9 6 6 0 0 0-.4-.4 8.8 8.8 0 0 1 .8-.5l1.2-.6 1.3-.5 1.2-.5 1.3-.3 1.3-.2 1.3-.1H77l1.5-.3 1.5-.7.6-.5.6-.6.5-.7.4-.7a7.4 7.4 0 0 0 .8-3.2v-1l-1 .1-1.5-.1c-.5 0-1-.2-1.5-.4l-3.1-1.2-3.2-1.5-.8-.3-.8-.3-.2-.1h-.1l-.2-.1a2 2 0 0 0-.6 0 4 4 0 0 0-1 .2c-1.3.4-2.3 1-3.3 1.7A44.5 44.5 0 0 0 63 258l-.2.2.8-1a29.5 29.5 0 0 1 1.4-1.7l1.5-1.5a13.5 13.5 0 0 1 1.6-1.2l.5-.2.2-.2h.2l.5-.2h.4a4.4 4.4 0 0 1 1.9 0l1.8.8 2 1a22.7 22.7 0 0 0 4.2 1.3l1.2.2 1 .1h2.3c.8-.2 1.6-.3 2.3-.7a5 5 0 0 0 2-1.6 4.8 4.8 0 0 0 .7-1.2l.2-1.5v-.5l-.5-.3a22.6 22.6 0 0 1-.9-.4l2.6.7 2 .6a7 7 0 0 1 1.9 1l.3-.5c-.5-.5-1.2-1-1.9-1.3a23.7 23.7 0 0 0-2-.8c-1.4-.4-2.7-.9-4-1.5a9.9 9.9 0 0 1-1.7-1 6.9 6.9 0 0 1-1.4-1.4 9 9 0 0 1-1-1.8 10.4 10.4 0 0 1-.6-2 7.5 7.5 0 0 1-.1-2c0-.6.2-1.2.5-1.5l.2-.1h.4l.5.2 2.3.2c3 .1 5.8 0 8.6-.3a11.1 11.1 0 0 1 2.9.6l2.8 1.3a16 16 0 0 1 4.6 4 11 11 0 0 1 2.4 6.6c0 1.2-.2 2.4-.6 3.5a15.7 15.7 0 0 1-.7 2h.2l.2.2c1-1.7 1.8-3.7 1.9-5.8Zm-24.1-24.7-.4-2.8-1.2-6-.8-3a78.4 78.4 0 0 0-.8-3 137.6 137.6 0 0 0-.8-2.6 38 38 0 0 0-.9-2.4 46.2 46.2 0 0 0-.5-1.4 53.6 53.6 0 0 0-1-2l-.5-1.4-.5.3 1.3 5 1.3 5 .7 3 .8 3 .6 3 .7 2.8.5 2.8.5 2.4.7 3.7.2 1.4h.6V232l-.1-1.9-.1-1.9-.3-2.5Zm305.6-47a678.9 678.9 0 0 1-5.7 10.3c-2.3 3.9-4.8 8.3-8 13-1.4 2.3-3 4.8-4.7 7.2l-2.6 3.8-1.4 2-1.4 1.9-5.8 7.8-3.2 4c-1 1.3-2 2.7-3.2 4l-6.8 8.1-3.6 4-1.8 2-1.8 2c-2.5 2.7-5 5.5-7.6 8l-3.8 4-4 3.9a475.5 475.5 0 0 1-16 15 702.5 702.5 0 0 1-8.2 7.1c-2.7 2.3-5.3 4.6-8 6.7l-4 3.2-4 3.1-7.7 6a484.9 484.9 0 0 1-36.6 25c-5.4 3.4-8.6 5.1-8.6 5.1l.1.3.1.2 3.6-2a304.5 304.5 0 0 0 5.2-2.9 397.6 397.6 0 0 0 37-24.5c5.2-3.7 10.5-7.7 15.9-12.1l8.1-6.7a654.2 654.2 0 0 0 19-16.9 262.6 262.6 0 0 0 5.4-5.2l4-4 3.6-3.7.2-.2 7.5-8 1.9-2 1.8-2.1 3.5-4.1c2.4-2.7 4.6-5.5 6.8-8.2 2.3-2.7 4.3-5.4 6.4-8l5.8-8 1.4-2 1.3-2 2.6-3.8c1.7-2.4 3.2-5 4.7-7.3 3-4.7 5.5-9.3 7.8-13.2a621.7 621.7 0 0 0 5.4-10.5l2.2-4.6 2.2-4.8h-.2l-.3-.2-4.5 9.2ZM223.2 334.6l.1-2.7v-5.5l-.3-2.7c-.3-1.8-.5-3.5-1-5.2l-.7-2.4a733.7 733.7 0 0 0-.9-2.3c-.2-.7-.6-1.4-.9-2l-.9-2-1-1.7-.9-1.4c-.6-1-1.2-1.7-1.7-2.3a21 21 0 0 0-1.2-1.4l-.5-.5-.1.3-.2.2.4.4 1 1.5c.4.6 1 1.4 1.4 2.3l1.7 3.2.8 2 .7 2 .7 2.2.6 2.4c.5 1.5.6 3.3 1 5l.1 2.6.2 2.6v2.6l-.1 2v.7l-.3 2.5-.4 2.5-.8 4.7-1.2 4.2-.5 1.8-.2.6c0 .4-.2.7-.3 1l-.7 2-.3.7-.8 2.3.3.2h.2l1-2.2 1.2-2.6.7-1.6.6-1.8.7-2.2a78.9 78.9 0 0 1 .7-2l.2-.8a412.1 412.1 0 0 0 .9-4v-.3l.4-2.2c0-1 .2-1.8.3-2.7Zm-48.6-176.5a7.1 7.1 0 0 0-2.2-1.5 5.4 5.4 0 0 0-1.5-.3h-1.4a6 6 0 0 0-2.6 1.2 7 7 0 0 0-1.8 2.1c-.4.8-.6 1.6-.8 2.3l-.2 2a14 14 0 0 0 .1 3l.3 1.2.8-.1.1-1 .6-2.7c.2-1.1.6-2.3 1.3-3.3a4.5 4.5 0 0 1 1.1-1.2l1.5-.6h1.6a5.3 5.3 0 0 1 1.5.9l1.6 1.2c.5.5 1 1 1.7 1.2.7.4 1.6.4 2.2.2a3 3 0 0 0 1.2-1l.4-.7.2-.3-.7-.5-.2.2a5.6 5.6 0 0 1-.5.4l-.9.3c-.2 0-.4 0-.8-.3l-1.1-1.2-1.5-1.5Zm-40 0c1-.3 2-.3 2.8-.3a8 8 0 0 1 2.1.5l.6.3h.2l.5-.6-.6-.7a6.9 6.9 0 0 0-2.3-1.4 7 7 0 0 0-3.9-.3 9 9 0 0 0-3.9 2l-.8.8-.7.6-1.2 1a5 5 0 0 1-2.5.9 4.3 4.3 0 0 1-2-.5l-.6-.4-.7.5.6 1a4.7 4.7 0 0 0 2.4 1.4c1.2.3 2.7 0 4-.6a9.4 9.4 0 0 0 1.8-1.2l.8-.7.6-.6c1-.7 1.9-1.3 2.9-1.6Zm-86.4 95.3-.4-2v-.5c.1-.1 0-.3.2-.5l.1-.4.2-.4.1-.2a.5.5 0 0 1 .2-.2l.4-.5.9-1 .8-1.2.5-1.3.3-2.7c0-.8 0-1.6-.2-2.4a17.4 17.4 0 0 0-.5-2 19.1 19.1 0 0 0-1-3l-.6-1.1-.5.2.3 1.1a35.8 35.8 0 0 1 .8 7.2 10.6 10.6 0 0 1-.4 2.2l-.3 1-.6.9-.8.9-.4.4c-.2.1-.3.5-.5.7a6.3 6.3 0 0 0-.4 4.2l.2.6.2.6 1 1.9a15 15 0 0 0 1.6 1.9l.5.5.6.6.3.2.3-.5-.6-.9-.2-.2a20.6 20.6 0 0 1-1.4-2.3 12.3 12.3 0 0 1-.7-1.8Zm5.6.9c.5-1.4 1.1-3.6 1.3-6.3.2-2.6 0-5.8-.6-9a28 28 0 0 0-1.6-5 23.8 23.8 0 0 0-2.6-4.6 19 19 0 0 0-3.6-3.9 16.7 16.7 0 0 0-2.1-1.5l-1.1-.6a9.5 9.5 0 0 0-1.2-.5c-.7-.3-1.4-.5-2-.9a5.1 5.1 0 0 1-1.3-1.3c-.8-1-1.2-2.2-1.4-3.4a21.8 21.8 0 0 1 .4-6l.1-.7c.9.1 1.7 0 2.6-.3a42 42 0 0 0 3.3-1.1c-1.7-3.7-3-6.6-3.6-8.3a67 67 0 0 1-.7-2.5l-3.7 4.4a28.3 28.3 0 0 0-3.3 4.5 9 9 0 0 0 4.6 3.2l-.1.5c-.5 1.5-1.2 3.6-1 6.4.1 1.4.5 3 1.4 4.4a6.8 6.8 0 0 0 1.9 1.7c.7.5 1.5.8 2.2 1.1l1 .5c.3.2.7.3 1 .6l2 1.3a18.4 18.4 0 0 1 3.2 3.5 24.3 24.3 0 0 1 2.5 4.3A30.5 30.5 0 0 1 53 254l-.5 1.7-.3.5.3.1.2.2.2-.4.1-.2.8-1.6Zm127.2-37 .7-.3a9.3 9.3 0 0 0 1.2-.6c.5-.2 1-.6 1.4-1a6 6 0 0 0 1.1-2 8.1 8.1 0 0 0 .5-2.4 18.5 18.5 0 0 0-1-6.2 8.3 8.3 0 0 1-.2-1 6.4 6.4 0 0 1 .1-2c.3-1.3 1-2.4 1.6-3.3a15.8 15.8 0 0 1 2-2l.8-.7-.3-.5-1 .4c-.6.4-1.5 1-2.4 1.8-1 .9-1.9 2.2-2.4 3.9a7.3 7.3 0 0 0-.1 2.6l.2 1.4.3 1.1c.4 1.6.7 3.1.8 4.5 0 .7 0 1.4-.2 2a5 5 0 0 1-.7 1.5 7 7 0 0 1-2 1.8l-1 .6.3.5h.3Zm-43.7 67.4a101.3 101.3 0 0 0-2.2-1c-1.4-.8-3.1-1.3-4.8-1.8l-2.5-.5-2.5-.4-2.4-.2h-2l-3.2.2-1.2.1v.6l1.2.1 1.4.1 1.7.2 2 .3 2.3.3 2.3.5 2.5.6 2.4.7 2.2.8 2.1.8 1.9.8a44.8 44.8 0 0 1 2.7 1.5l.7.4.3.2.3-.4-.2-.3a12.5 12.5 0 0 0-.6-.6 21.4 21.4 0 0 0-2.6-2l-1.8-1Zm19.5.9.3-.6 1.6-2 1.1-1.1 1.3-1.3 1.6-1.2 1.6-1c.6-.4 1.1-.8 1.7-1l1.8-1 1.6-.7 1.6-.5 1.3-.5 1-.3 1-.3-.2-.6h-1c-.5.2-1.4.2-2.4.4l-1.7.4-1.8.5-2 .9-1.8 1-1.8 1.2-1.6 1.4-.7.8a87.2 87.2 0 0 0-1.6 2.1l-.8 1.3-.5 1.1a9.5 9.5 0 0 0-.2.7v.3l.4.2.2-.2ZM372.5 28.3a3 3 0 0 0-2.8-3 3 3 0 0 0-2.9 3 3 3 0 0 0 2.9 3 3 3 0 0 0 2.8-3Zm-9.9-1.2a3 3 0 0 0-2.8 3 3 3 0 0 0 2.8 3 3 3 0 0 0 2.9-3 3 3 0 0 0-2.9-3Zm8.2-5.8a3 3 0 0 0-2.8-3 3 3 0 0 0-2.9 3 3 3 0 0 0 2.9 3 3 3 0 0 0 2.8-3Zm-7 1.8a3 3 0 0 0-2.9-3 3 3 0 0 0-2.8 3 3 3 0 0 0 2.8 3 3 3 0 0 0 2.9-3Zm-300 333.7.8-6.8c.3-2.2.4-4.5.6-6.7.4-4.4 1-8.6.9-12.7 0-4 .3-7.9 0-11.4L66 314l-.6-4.6c-.2-2.8-1-5.3-1.3-7.3l-.8-2.6-.4-1.1-.3-.9-.8-1.5-.5.3.7 1.5.3.9.3 1 .7 2.6c.3 2 1 4.4 1.1 7.3l.4 4.5.1 5c.2 3.5 0 7.3-.2 11.3-.1 2-.1 4.1-.4 6.2l-.6 6.4-.7 6.7-.8 6.8-1.7 14-3 27.4-1 12.6-1 11.4-1.2 17-.5 6.4h.6l.7-6.4 1.7-17a11273.6 11273.6 0 0 0 2.3-23.8l3.2-27.4 1.6-14ZM81.3 273c0 2.3.5 3.8.5 3.8h.5l.3-3.8a45 45 0 0 1 1-5.8c.1-.7.4-1.4.6-2a16.7 16.7 0 0 1 4.2-6.4l1.2-1 1-.6.8-.5-.2-.5-1 .3c-.3 0-.7.2-1.1.4-.4.2-1 .4-1.4.8a11.8 11.8 0 0 0-4.2 4.6l-1 2.2a22 22 0 0 0-1.2 8.5Zm56.2-95.7c2.2-.4 3.5-4 2.9-8.2-.6-4.2-3-7.2-5.2-6.9-2.3.4-3.6 4-3 8.3.7 4.1 3 7.2 5.3 6.8Zm-46.6 35.1c0-.7-.6-1.2-1.3-1.1-.7 0-1.1.7-1 1.4a1 1 0 0 0 1.2 1c.7 0 1.2-.6 1.1-1.3Zm3.5-.5c-.7.1-1.2.7-1.1 1.4 0 .7.6 1.2 1.3 1.1.7 0 1.1-.7 1-1.3 0-.7-.6-1.2-1.2-1.2Zm5.6-3a2.3 2.3 0 0 0-2 2.5 2.2 2.2 0 0 0 2.4 2 2.3 2.3 0 0 0 2-2.5 2.3 2.3 0 0 0-2.4-2Zm52.7-9-3.1.8-1.2.2-1.2.2-1.2.2-1.2.2-2.4.1h-3.1l-.6-.1-1.1-.2-1.2-.3-.5-.2a2.7 2.7 0 0 1-.6-.3l-.3.4.5.4.6.4 1.2.5 1.3.3.6.2h.6l1.3.2 1.2.1h3.8l1.3-.2 1.3-.2c.4 0 .8 0 1.2-.2l3.3-.7-.6 1.2-.7 1.4-.8 1.2-.9 1.2-1 1-1.2.6c-.4.3-.8.3-1.2.5h-2.1l-.7-.1a3.6 3.6 0 0 1-.7-.2l-.7-.2-.6-.3-.6-.4a10 10 0 0 1-2.3-1.9 12.2 12.2 0 0 1-1.7-2.5l-.5.2 1.5 3a11 11 0 0 0 2.3 2.3l.7.4.7.4.8.3c.2.1.5.3.8.3l.8.2.8.1h1.7c.6-.1 1.1-.2 1.7-.5l.9-.5.6-.3 1.2-1.2 1.1-1.3 1-1.4.7-1.4a26.2 26.2 0 0 0 1.3-3.1l.4-1.6-1.5.4-1.7.4Zm8.6-25.4a17 17 0 0 1-2.4-4.4 17.2 17.2 0 0 1-.7-2.4l-.4-2.6a25.6 25.6 0 0 1 .8-9.5 15.3 15.3 0 0 1 4-6.3 14.7 14.7 0 0 1 2.2-1.6l1.5-.8.5-.3-.1-.5s-1 .2-2.3.9a15 15 0 0 0-5 4.2 18 18 0 0 0-3.3 8.8 27.9 27.9 0 0 0 1.1 10.8c.6 1.7 1.6 3.4 2.6 4.8 1 1.5 2.1 2.8 2.6 4.1.5 1.4.3 2.8 0 4.2-.5 1.4-1 2.7-1.7 3.7s-1.6 1.8-2.4 2.4a12.4 12.4 0 0 1-2.2 1.4l-1.6.6-.6.2.1.5h.6a10.6 10.6 0 0 0 1.8-.5l2.5-1.2c1-.6 2-1.4 2.8-2.6 1-1 1.6-2.5 2.1-4a8 8 0 0 0 .2-5.3c-.6-1.8-1.8-3.2-2.7-4.6Zm-47.6 72.7-.1.3v-.3l.4-1 .2-1.1c.2-.9.3-1.9.2-3l-.3-1.6c-.2-.6-.3-1.2-.6-1.7a88.8 88.8 0 0 1-.4-.9l-.5-.8-1.3-1.6c-.9-1-2-1.8-3.2-2.4l-1-.5-1-.3c-.5-.3-1.2-.5-2-.6l-1.9-.4h-.7l-.3-.1-.9-.2a9 9 0 0 1-3.1-1.2 8 8 0 0 1-2.2-2.4 11 11 0 0 1-1.2-2.7 19.2 19.2 0 0 1-.5-2.7l-.2-2v-2h-.5v.4l-.3 1.4v3.6l.2 1.5c.2 1 .5 2.2 1.2 3.3l1 1.6.7.7.8.6c1.1.8 2.4 1.4 3.8 1.6l1 .2 1 .2 1.8.3 1.8.5.9.3.8.4 1.5 1 1.4 1 1.1 1.3.5.7.4.7.6 1.5.3 1.4c.2 1 .2 1.8.1 2.6v1.1a66.2 66.2 0 0 1-.3 1l-.4 1.2-.1.5.2.1a5.2 5.2 0 0 1-1.4 1.1l-2 6c24.4 16 53.5 4.6 57.7 2.8l.6-.3L163 248a65.4 65.4 0 0 1-49.3-.9Zm66.4-54 .2-.4s5.4.2 11.4-.9a8 8 0 0 1 2.7 0 21.3 21.3 0 0 1 0-1.6 32.6 32.6 0 0 1 1.4-9.3 36.8 36.8 0 0 1 1.4-4l.9-2 .5-1 .4-1a11.7 11.7 0 0 0 .8-4.3c0-3-1-5.9-2.4-8.4a41 41 0 0 0-4.5-6.3 53.5 53.5 0 0 0-3.8-3.9l-1-1a111 111 0 0 1-8 44.1Zm27.4-15 .5-1 .7-1.3a23.6 23.6 0 0 0 2.6-10.4c0-2.8-.5-6-2.3-8.9-1-1.4-2.1-2.7-3.6-3.8-1.4-1-3.2-1.7-5-2.7-1.7-1-3.5-2-5-3.7-1.6-1.7-2.5-4-2.8-6.3a31 31 0 0 1-.1-7l.8-7 1.3-7a25 25 0 0 0 0-6.7c-.6-4.6-2.5-8.9-5-12.5a39 39 0 0 0-25.6-16 29 29 0 0 0-5.1 0c-3.4.5-6.3 1.5-8.9 2.5a38.3 38.3 0 0 0-6.3 3.5 40.3 40.3 0 0 0-3.7 2.8l-.7.6.7.3 1.5.6 1.4.8 1 .8 1 .8.5.6.3.4A22.7 22.7 0 0 1 152 96c1.4-.2 2.9-.4 4.6-.4a22.4 22.4 0 0 1 5.4.6 17.6 17.6 0 0 1 5.6 2.5 18 18 0 0 1 4.7 4.8 58.6 58.6 0 0 1 3.5 5.8l1.5 3a12.1 12.1 0 0 0 1.8 2.5c1.5 1.5 3.2 2.6 5 3.8 1.8 1.3 3 3.3 3.7 5.2.7 2 .9 4 .6 5.8-.2 1.8-1 3.3-1.8 4.5l-.3.2c.8 3.5 1.6 8.4 1.8 14.5l1.4 1.1a45.6 45.6 0 0 1 8.7 10.1c1.4 2.5 2.6 5.6 2.6 8.8 0 1.6-.3 3.2-.9 4.7a16.4 16.4 0 0 1-.5 1l-.4 1a31 31 0 0 0-1 2l-1.4 3.9a40 40 0 0 0-1 3.6 42 42 0 0 0-.5 3 32.3 32.3 0 0 0-.2 2.4 25.3 25.3 0 0 0 0 1.6c1.5.4 2 1.5 2.2 2.6a14.7 14.7 0 0 0-1.9 2.3 12.4 12.4 0 0 0-1.7 4 13.1 13.1 0 0 0 .7 7.9l.8 2.6.7 2.7c.1 1 .1 1.8-.2 2.4-.2.7-.8 1.3-1.6 1.8l-2.3 1.6-2.6 1.6a16.7 16.7 0 0 0-2.4 2 20.3 20.3 0 0 0-3.6 4.7 27.2 27.2 0 0 0-2.1 5.2 19 19 0 0 0-1.1 4.9 28.6 28.6 0 0 0 0 7.5l.4 2 .2.7h.3l.3-.1-.2-.7a28.4 28.4 0 0 1-.2-2 27.6 27.6 0 0 1 .3-7.2 28 28 0 0 1 3.4-9.5 20.3 20.3 0 0 1 3.4-4.3 15 15 0 0 1 2.2-1.7l2.5-1.5 2.6-1.6c.8-.7 1.7-1.4 2.2-2.6a6 6 0 0 0 .2-3.5l-.7-3c-.6-1.7-1.3-3.5-1.7-5a11.5 11.5 0 0 1 1.2-8.3c.3-.7.7-1.2 1.1-1.8l.2.7c.7 1 4.2 1.5 5.5 1.7 6.7-2.4 11.8-4.1 8.3-10.2-2.4-4.1-4.4-5.9-3.6-9.1l-.3-.2.2-.3Zm-72.2-85.8c1 .1 2.1.3 3.2.7h.2a26.1 26.1 0 0 1 4.6-4 40 40 0 0 1 6.3-3.7 33.3 33.3 0 0 1 9-2.8c1.8-.3 3.7-.4 5.6-.2A41 41 0 0 1 191 98.8c2.7 3.8 4.8 8.4 5.4 13.3a26.7 26.7 0 0 1-.1 7.4l-1.3 7-.9 6.7c-.2 2.3-.2 4.5 0 6.6.4 2.1 1 4 2.4 5.5 1.2 1.5 3 2.6 4.6 3.5 1.7 1 3.5 1.7 5 3a15 15 0 0 1 3.9 4.1c1.9 3.2 2.4 6.7 2.3 9.7a26 26 0 0 1-1.5 7.1l.5-.7c6.6-8.7 11.2-21.4-5.4-28.6-16.6-7.2-6.9-11.3-6.8-31 0-19.8-14-33.8-39.4-33.6a39 39 0 0 0-28 13.3h.8l2.8.3ZM202 206Zm-44-89.8v-.7a9.8 9.8 0 0 0-.4-2.6c-.6-1.6-1.6-3-2.6-3.8a8.2 8.2 0 0 0-2.7-1.5l-1.1-.2-.2.5 1 .5a9.6 9.6 0 0 1 2.1 1.7 8 8 0 0 1 1.8 3.3c.2.7.3 1.5.3 2.2v2.4l-.5 4.8a19 19 0 0 0 0 4.4 9.2 9.2 0 0 0 .5 1.8l.6 1.2.6 1 .5-.3-.4-1-.3-1.3a11.8 11.8 0 0 1-.2-1.5v-2l.3-2c.3-1.6.6-3.3.7-5v-1.3Zm-79.3 86.5-.4.1-3-9.2h.3c1-2.9 2-5.9 2.7-9 .8-3 1.3-6.2 1.2-9.4 0-3.2-.7-6.5-2-9.4-.5-1.5-1.3-3-2-4.3-.8-1.3-1.5-2.7-1.9-4-.4-1.5-.3-2.8.4-3.9.8-1.1 2-2.1 3-3l3.6-3.1.8-.9.8-.8 1.5-2c.9-1.5 1.5-3 2-4.6a25.1 25.1 0 0 0 .7-9.7 34.8 34.8 0 0 0-.7-4.7 27.1 27.1 0 0 1 .5-7.5 17 17 0 0 1 3-6.7 10 10 0 0 1 6.1-3.4c1.2-.3 2.4-.3 3.7-.3a90 90 0 0 0 3.8 0l3.8-.4a28.6 28.6 0 0 0 2-.2l1.8-.3a38.5 38.5 0 0 0 7.4-2.2l1.4-.6c-1.6 1.5-3.2 3.2-5 4.7a51.4 51.4 0 0 1-9.8 6.9l-1.7.9a22.4 22.4 0 0 0-7.9 6.5c-3.3 4.2-5.2 9-5.7 13.3a19.8 19.8 0 0 0 .3 5.9 15.4 15.4 0 0 0 1.4 4.2 14.7 14.7 0 0 0 1.6 2.4l.7.8.4-.4-.6-.7a14 14 0 0 1-1.4-2.4 14.5 14.5 0 0 1-1.2-4 18.7 18.7 0 0 1 0-5.6 24.2 24.2 0 0 1 1.8-6.3 26.4 26.4 0 0 1 3.9-6.2 24.1 24.1 0 0 1 7.4-6l1.8-.9a52.7 52.7 0 0 0 10.2-7l5.7-5.6a46.9 46.9 0 0 1 2.7-2.5l1.4-1 3.7-2.2 3.6-.9a29 29 0 0 1 9.6.3c2.3.4 3.6.8 3.6.8V98l.1.2 3-.7a26.4 26.4 0 0 1 12.6.1 16.9 16.9 0 0 1 9.4 6.8 58.7 58.7 0 0 1 3.3 5.7l1.6 3a14 14 0 0 0 2.1 2.9c1.7 1.6 3.5 2.8 5.2 4a9 9 0 0 1 3.4 4.3c.6 1.6.8 3.4.7 5a9 9 0 0 1-1.4 4c-.8 1-1.7 1.7-2.5 2.1-.8.4-1.5.5-2 .7h-.8v.3c-1.7-.3-3.5-1.2-5-1a11.5 11.5 0 0 0-.1-8.8 7.9 7.9 0 0 0-.6-1 7 7 0 0 0-.8-1.1l-.8-.9-.6-.8c-.8-1.2-1.3-2.6-1.6-4.1-.3-1.6-.5-3.2-1-4.8a25.3 25.3 0 0 0-1.5-4.6 13.3 13.3 0 0 0-2.7-3.8 16.4 16.4 0 0 0-3.2-2.4c-2-1.3-4-2-5.3-2.3l-2.2-.5v.6l2 .7a23.7 23.7 0 0 1 4.8 2.6 13 13 0 0 1 5 5.8 27.6 27.6 0 0 1 1.4 4.3l1 4.8a10 10 0 0 0 1.9 4.8l.8 1 .8.8.2.2.2.2.2.4.6.9c.6 1.2.8 2.6.8 3.9a11.7 11.7 0 0 1-.5 3.6c0 .4-.2.8-.4 1.2l-.7.9c-.5.8-1 1.7-1.8 2.4l-1.4.7-.5.2v.2c-1.4.6-3.2.7-5.7-.1-3.1-1-7.9-7-9.5-3.4-1.7 3.6-5.2 2.8-7.6.2-2.2-2.4-5.5-3-8.2 0l.2-1c.3-1.8 0-3.9-.5-6-.4-2-1.1-4-1.9-6.2l-.5-1.5a6.3 6.3 0 0 1 0-4.1 13 13 0 0 1 2.7-4.4c1-1.2 2-2 2.8-2.6l1.1-1-.2-.5-1.4.7c-.8.5-2 1.3-3.2 2.4a14.6 14.6 0 0 0-1.8 2c-.7.8-1.2 1.7-1.6 2.8a7.7 7.7 0 0 0-.1 5.3l.5 1.6a46.9 46.9 0 0 1 3 11.3l-.4 2a5 5 0 0 1-.8 1.4 6.7 6.7 0 0 1-.7.8l-.3.2.2.3c-.6 0-1.4-.7-4-1-4.8-.6.5 5.7-5.6 5.6-4.2 0-5.5-1.9-7.1-1.7l.2-.1-.2-.9a17.4 17.4 0 0 1-.3-2.2c0-.9 0-1.9.2-2.8.2-.5.4-1 .7-1.3l1.2-.9 3.2-2c1-.8 1.8-1.7 2.3-2.6a4.5 4.5 0 0 0 .4-2.6c0-.6-.2-1-.2-1l-.5.2v.8l-.3.9c0 .3-.3.6-.5 1a17 17 0 0 1-3.6 2.8 39 39 0 0 1-1.6.9c-.6.2-1.3.7-1.7 1.3a5 5 0 0 0-1 2 7.3 7.3 0 0 0 0 3.6 10 10 0 0 0 1.4 3c-.6.1-1.3.6-2.1 1.5-3.5 3.7-8.1 4.6-11.6-.2l.2-.1-.4-.7a24 24 0 0 1-1-2c-.5-1-1-2-1.3-3.4-.3-1.3-.4-2.8-.2-4.4a11 11 0 0 1 2.1-4.7c1.2-1.5 2.7-2.8 4.4-4a29.3 29.3 0 0 1 8.6-3.7 20.4 20.4 0 0 1 1.6-.3l1.7-.3a8.4 8.4 0 0 0 3.4-1.5c1-.8 1.8-1.7 2.4-2.7a24 24 0 0 0 2.7-6.4c.4-1 .6-2 .9-3.1l.3-1.5.1-.8.2-.6a6.4 6.4 0 0 1 3-3.9 12 12 0 0 1 4-1.3 20 20 0 0 1 3.4-.3c2 0 3 .2 3 .2l.1-.5-.8-.2a21 21 0 0 0-5.8-.4c-1.4.2-3 .5-4.6 1.3a7.9 7.9 0 0 0-3.8 4.6l-.8 3a58.5 58.5 0 0 1-.8 3c-.7 2-1.4 4-2.6 5.8a7.7 7.7 0 0 1-4.7 3.5c-.4.2-1 .2-1.6.3a21.9 21.9 0 0 0-1.7.4 29 29 0 0 0-9 4 18.8 18.8 0 0 0-4.7 4.5 12 12 0 0 0-2.2 5.4 12 12 0 0 0 .5 5 17 17 0 0 0 2.3 4.7c-2.1-1.2-3.5 3.6-6.1 5.8 1.3 3.6 3 10.2.3 14.5-3.7 6.1-6.4 9.8-2 13.4 4.5 3.6 4.5 10.7.9 13.9-3.6 3.2-11.3-5-14-4.9a8.3 8.3 0 0 0-3.7 5.2c-1.1 4-1.2 7.6-.4 11Zm-31-10.6a49 49 0 0 0 1.8-4.6 47 47 0 0 0 1.7-7.5 26.2 26.2 0 0 0-1.4-12.8l-.7-1.3-.6-1.3c-.7-1.7-1.3-3.6-1.1-5.6.1-1.9 1.1-3.7 2.5-5.2s3.1-2.8 5-4a105.7 105.7 0 0 1 5.7-3.3l3-1.7a25.5 25.5 0 0 0 3-1.9c4-3 6.8-7.1 9-11.4 2.3-4.4 4-9 5.7-13.4l4.8-13.1 2.6-6.1a13 13 0 0 1 3.7-4.6c3-2.4 6.7-3.4 10.1-3.9a49.8 49.8 0 0 1 16.7.5 67 67 0 0 1 6.3 1.2l.1-.5-1.6-.5a67 67 0 0 0-4.6-1c-2-.4-4.5-.8-7.4-1.1a46.2 46.2 0 0 0-15 1.2c-1.9.6-3.7 1.5-5.4 2.8a14 14 0 0 0-4.3 5.1c-1 2-1.8 4-2.6 6.2l-5 13.1c-1.6 4.5-3.4 9-5.5 13.2a31.8 31.8 0 0 1-8.5 10.9c-.9.7-1.8 1.2-2.8 1.8l-3 1.6-5.8 3.5a27.1 27.1 0 0 0-5.2 4.4 10.4 10.4 0 0 0-2.7 6.1 13 13 0 0 0 1.3 6.2l.7 1.4.6 1.2 1 2.5c1 3.4 1 6.8.6 9.7-.3 2.9-1 5.4-1.5 7.4a48.3 48.3 0 0 1-1.6 4.6l-.7 1.6.4.2.8-1.6Zm0 3.2L43 193c.6-2.5-.5-5.1-4.6-9-12-11.2-4.5-21.9 4.2-27.7 8.8-5.7 9.7-11.5 10.1-22.9.8-19.8 21.4-43.6 45.1-46.3a50.6 50.6 0 0 1 32 5.2v.1h.3l.8.6.4-.4c.3 0 .7 0 1.2.2.8 0 1.7.2 2.7.4l1.5.4c.5 0 1 .2 1.5.4.6 0 1 .3 1.6.4l1.4.6 1.3.6 1.1.7.9.6.5.5h-.1a31.4 31.4 0 0 0-2.7-.8 36.8 36.8 0 0 0-4.2-.7 21 21 0 0 0-5.6 0 16.5 16.5 0 0 0-7.3 2.3l-.7.6-1.5 1-1.3 1.1a56.7 56.7 0 0 1-4.2 1.8c-2.3.8-4.7 1.5-7.2 2l-1.9.2-1.8.2-3.8.2a86.4 86.4 0 0 1-3.7 0 22 22 0 0 0-4 .2c-2.6.4-5.2 1.8-7 4a17.4 17.4 0 0 0-3.4 7.4 28.3 28.3 0 0 0-.6 4 28.2 28.2 0 0 0 0 4.1v.2a32.1 32.1 0 0 1 .6 9c-.2 3-.8 6-2.3 8.6l-1.3 1.7-.7.8-.9.8-3.4 3c-1.1 1-2.4 2-3.3 3.6-.5.7-.9 1.6-1 2.6 0 1 .2 1.8.4 2.6a22 22 0 0 0 2 4.4c.8 1.4 1.6 2.7 2.2 4a24 24 0 0 1 2 9c.2 3-.2 6.1-.9 9.1-.6 3-1.4 5.9-2.3 8.8-1.4-3.9-3-6.9-4.6-8.3-7.3-6.7-11.4-.5-9.6 9.5.7 3.9 1.5 9 2 13.6-1.3.2-2.6.1-3.6-.1l1.3 2.4 1.4 3 1.4 3 .8 1.8.5 1.3 1.1 3a102 102 0 0 1 1.9 5.4l1.1 4 .4 1.5-.5.2-.7-1.5-1.5-3.7-2.2-5.2-2.5-6-1.4-3-1.3-3a91.3 91.3 0 0 0-2.5-5 34.5 34.5 0 0 0-1-2l-1-1.5-.8-1.3.2-.2c-1.9-2.4-4-4.5-6.3-5.8Zm43.7 22.3"/>
  </g>
</svg>
