<svg xmlns="http://www.w3.org/2000/svg" style="fill:#000" version="1.0" viewBox="-0.6 -42.6 419.6 549.6"><path d="m415.13 367.6-4.893 58.126-29.188-2.797-.038.217h-96.856a76.759 76.759 0 0 1-3.385 2.58l-60.72-4.136c-6.116 15.986-35.671 39.588-45.668 47.241-.509 10.014-7.788 18.219-7.788 18.219-20.126 19.916-51.835-14.627-61.963-27.689-3.71-4.79-1.09-6.376 1.832-6.858-.736-.234-1.474-.555-2.184-1.065-.226-.162-.441-.369-.66-.559-.209-.21-.4-.465-.592-.705-.169-.267-.314-.562-.458-.852a7.459 7.459 0 0 1-.274-1.098l-.049-.675-.005-.082v-.01l.008-.178.003-.025.006-.049.025-.2.052-.4.12-.805.276-.818c.153-.553.523-1.062.849-1.576.18-.246.414-.454.629-.677.214-.233.451-.424.709-.582.5-.37 1.032-.608 1.574-.826.532-.176 1.085-.35 1.61-.418.507-.092.998-.132 1.489-.148-.032-.07-.07-.135-.102-.206-.214-.486-.407-.99-.56-1.53a10.56 10.56 0 0 1-.359-1.694l-.077-.918c0-.317.027-.65.048-.976.006-.322.096-.665.182-1.004.09-.338.155-.678.33-1.002.152-.327.316-.652.489-.967.24-.33.509-.656.79-.965.129-.14.308-.335.404-.417l.268-.215.533-.43.233-.159.022-.012.046-.028.093-.054.184-.107.372-.213c.248-.141.493-.286.773-.396a9.435 9.435 0 0 1 1.698-.612 8.42 8.42 0 0 1 1.862-.294c.343-.018.689-.011 1.034.013.03-.589.087-1.197.297-1.833.164-.633.512-1.293.905-1.855.216-.28.434-.55.676-.812.292-.26.605-.51.926-.739.392-.281.485-.298.671-.403l.258-.137.129-.068.065-.035.243-.113.011-.004.025-.009.05-.018c.535-.175 1.039-.4 1.62-.483a7.375 7.375 0 0 1 1.42-.162l.98-6.706-3.249-.221c-19.277-34.4 7.61-66.138 14.419-73.335l10.105-19.163.42-.838c-35.384-11.373-57.691-39.676-57.692-39.677l-63.236-43.963c-5.155-.982-21.15-4.408-23.149-9.484-2.385-6.06 10.906-6.135 10.906-6.135S.763 218.184.028 211.126c-.614-5.864 9.449-3.523 12.88-2.56-3.46-1.11-13.47-4.993-9.514-11.727 4.747-8.083 15.58 1.65 15.58 1.65s-11.219-12.495-5.907-16.565c5.312-4.073 14.39 5.91 14.39 5.91s-6.027-11.946 2.035-12.823c6.676-.725 23.149 7.984 28.62 11.002.005.002 8.418 3.134 21.197 8.313a33.809 33.809 0 0 1-.675-1.99c-4.896-16.23 1.111-37.957 16.995-45.097-6.98-26.663-23.616-119.213 77.396-132.164 0 0 121.072-57.694 122.086 52.664 2.913 7.674 5.176 15.897 6.769 24.548 8.656 3.932 50.835 25.226 44.474 64.29-5.486 33.693-51.6 67.217-98.733 78.17-.886.205-1.777.393-2.666.586l-.593 5.776c9.766-4.491 27.718-12.375 34.458-12.882l1.32 2.064c26.772-9.483 62.521-18.28 78.644-22.068 3.433-2.25 21.316-13.685 25.685-10.615 4.84 3.402-4.7 13.135-4.7 13.135s16.825-12.964 21.34-7.587c4.512 5.376-8.481 14.552-8.481 14.552s15.847-9.088 18.593-2.212c2.748 6.877-14.623 14.962-14.623 14.962s14.244-4.49 16.584 1.788-14.352 9.231-14.352 9.231 8.535-.583 7.86 6.59c-.681 7.175-33.524 11.3-33.524 11.3l-.031-.107-55.594 29.486 1.422 2.222-24.602 16.16.037.459c.036.496.06.913.079 1.254 3.358 12.395 6.089 25.882 8.018 36.54 2.88 6.247 4.778 12.575 5.714 18.852l73.701 14.146c6-4.3 19.405-13.762 21.427-13.946.948-2.74 4.669-10.132 9.416-8.267 6.302 2.473 2.378 11.435 2.378 11.435z" style="fill:#e2413d"/><path d="M122.843 435.313s-.443-.783-.914-1.906l-.566.407c.92.804 1.48 1.498 1.48 1.498zM140.525 214.394c-1.891 1.378-4.226 2.623-7.066 3.732 6.953 3.346 13.882 6.82 20.535 10.363l1.639-1.373.983.56c-6.141-3.55-11.583-7.945-16.09-13.282zM110.998 452.397s-.03-.006-.072-.017c-.002.004-.004.007-.004.01l.076.007zM177.575 239.038c.556.158 1.242.33 2.013.58.764.26 1.603.611 2.515 1.013l1.43.626c.483.236.957.52 1.455.801.335.197.684.393 1.037.593l2.264-4.528c-11.156-1.651-21.51-4.822-30.437-9.743l17.942 10.227c.007.002.014 0 .02.002 0 0 .643.129 1.761.43z" style="fill:none"/><path d="M308.209 364.233c-.936-6.277-2.834-12.605-5.714-18.851-1.93-10.66-4.66-24.146-8.019-36.541.035.65.042 1.009.042 1.009a.997.997 0 0 1-1.91.42l-.026-.064s-.326-.748-.824-2.054c-.24-.655-.555-1.442-.861-2.352-.329-.905-.802-1.896-1.21-2.997l-.673-1.708c-.254-.58-.519-1.18-.79-1.796-.54-1.234-1.08-2.537-1.735-3.847-.65-1.312-1.224-2.703-1.968-4.048-.694-1.366-1.383-2.76-2.156-4.112l-1.112-2.049c-.393-.669-.782-1.337-1.169-1.999-.742-1.344-1.566-2.61-2.309-3.874-.779-1.244-1.53-2.446-2.247-3.587l-2.067-3.198c-1.306-1.974-2.42-3.612-3.203-4.767l-1.237-1.802a1.006 1.006 0 0 1 1.323-1.449l.031.018s.173.098.501.33c.331.229.806.557 1.376 1.005.574.446 1.263.996 2.015 1.67a39.043 39.043 0 0 1 2.458 2.326c.895.862 1.788 1.863 2.73 2.929a72.972 72.972 0 0 1 2.795 3.487c.894 1.267 1.861 2.551 2.7 3.95a50.914 50.914 0 0 1 2.485 4.275c.817 1.443 1.498 2.959 2.172 4.445.7 1.475 1.229 3 1.77 4.456.579 1.443.916 2.921 1.324 4.282.19.687.395 1.347.538 2.002l.37 1.907c.238 1.218.442 2.335.565 3.335.09.801.14 1.52.187 2.144l24.602-16.16-1.422-2.222-37.4-58.454-1.32-2.064c-6.74.506-24.693 8.39-34.459 12.881l-1.02 9.949-16.438-1.693 9.796 1.01 13.143 28.752-12.897 2.695-15.298-32.998-31.354-3.227c.28.22.564.43.833.669l1.502 1.294c.495.441.946.931 1.422 1.398.96.924 1.83 1.93 2.663 2.94.865.98 1.568 2.063 2.306 3.061.675 1.044 1.323 2.052 1.869 3.052.544.999 1.036 1.953 1.423 2.87.426.89.742 1.75 1.014 2.509.274.76.477 1.433.627 1.999.158.557.25 1.013.317 1.333.07.318.083.472.083.472l.004.053a1.022 1.022 0 0 1-.934 1.099 1.03 1.03 0 0 1-.887-.39l-1.056-1.36-2.78-3.54-1.878-2.304c-.656-.816-1.387-1.648-2.11-2.523-.77-.837-1.49-1.763-2.318-2.617l-1.204-1.328c-.405-.441-.844-.852-1.254-1.294-.82-.882-1.688-1.712-2.548-2.524-.825-.857-1.73-1.586-2.562-2.354-.826-.777-1.678-1.46-2.484-2.12-.405-.33-.797-.654-1.17-.98l-1.14-.856c-.743-.53-1.383-1.106-1.997-1.54-.625-.411-1.154-.815-1.601-1.132-.887-.649-1.388-1.061-1.388-1.061l-.068-.057a1.002 1.002 0 0 1 .816-1.759l-17.943-10.226-1.235-.704-.983-.56-1.639 1.372-63.861 53.469c0 .001 22.307 28.305 57.691 39.677l-.42.839-10.104 19.162c-6.81 7.197-33.697 38.935-14.42 73.335l3.249.222 1.916-13.128s15.057-37.859 51.194-35.279c36.14 2.581 45.173 32.698 41.732 51.626-.186 1.018-.501 2.081-.921 3.178l60.72 4.136a76.7 76.7 0 0 0 3.385-2.58c18.733-15.015 27.38-36.637 24.054-58.913zm-74.214-76.569 3.817 27.274-16.165 10.69-20.454-4.217v-31.503l32.802-2.244zm-5.355 114.45a.986.986 0 0 1-1.104-.64l-.02-.058-.399-1.133c-.27-.748-.709-1.833-1.265-3.21a98.681 98.681 0 0 0-5.38-11.012c-1.24-2.197-2.715-4.493-4.36-6.832-1.651-2.34-3.577-4.654-5.684-6.897a47.658 47.658 0 0 0-7.099-6.17 26.965 26.965 0 0 0-1.98-1.339 24.485 24.485 0 0 0-2.063-1.224l-1.052-.578-1.042-.497c-.354-.165-.677-.335-1.055-.5l-1.2-.483-.6-.241-.3-.121-.08-.032c.025.01-.041-.014-.021-.006l-.037-.011-.072-.022-1.161-.356-2.307-.74c-.757-.283-1.55-.436-2.34-.593-.789-.164-1.574-.33-2.356-.492-1.565-.33-3.17-.372-4.727-.606-1.568-.144-3.136-.13-4.672-.208-1.541.036-3.06.126-4.548.189-1.484.162-2.944.287-4.36.464-1.408.249-2.789.445-4.111.714-1.317.3-2.608.532-3.828.844a112.1 112.1 0 0 0-6.62 1.922c-1.95.662-3.64 1.282-5.024 1.825-1.37.56-2.455 1.002-3.175 1.327-.706.316-1.1.51-1.1.51a.988.988 0 0 1-1.018-1.685s.345-.253 1.05-.73a49.668 49.668 0 0 1 3.04-1.896 65.509 65.509 0 0 1 4.935-2.572c.968-.47 2.03-.9 3.135-1.392 1.117-.468 2.323-.875 3.567-1.347 1.253-.446 2.589-.83 3.962-1.264 1.389-.381 2.848-.694 4.34-1.058 1.507-.293 3.074-.538 4.67-.817 1.617-.137 3.27-.302 4.958-.408 1.695.01 3.421-.068 5.17.02l2.635.238c.882.098 1.777.132 2.653.34.883.17 1.768.343 2.657.515.888.167 1.782.333 2.644.633l2.62.8 1.308.416.081.026.042.013.125.047.148.062.3.125.595.249 1.195.498c.41.182.853.409 1.276.614l1.281.63 1.202.679c.807.44 1.585.92 2.34 1.427.774.482 1.51 1.012 2.233 1.551 2.888 2.165 5.439 4.626 7.677 7.166 2.25 2.537 4.11 5.223 5.74 7.819 1.636 2.597 2.94 5.182 4.054 7.59a73.596 73.596 0 0 1 4.297 12.022c.398 1.485.63 2.676.795 3.485.15.825.228 1.265.228 1.265a.984.984 0 0 1-.793 1.145z" style="fill:#79baf0"/><path d="M203.373 177.289a33.514 33.514 0 0 0 3.188-.998c6.729 2.3 11.954 7.447 13.383 14.151 2.264 10.597-5.783 21.047-17.971 23.343-12.187 2.297-23.898-4.427-26.163-15.025-1.878-8.804 3.362-17.504 12.18-21.512 3.856 1.328 8.89 1.717 15.383.04zm90.227-36.534c-.58.266-1.149.507-1.71.733-3.246 7.287-2.456 15.511 2.814 21.13 7.481 7.972 21.106 7.673 30.434-.665 9.33-8.34 10.83-21.562 3.35-29.533-5.443-5.8-14.136-7.2-22.064-4.331-1.563 4.465-5.18 9.162-12.824 12.666zm-29.985 23.27s3.152-6.717-.405-9.28c-5.478-3.944-7.9.208-7.9.208s-.376-5.862-5.935-7.103c-9.677-2.16-8.877 6.92-8.877 6.92-5.922.8-5.713 11.265-5.713 11.265l28.83-2.01zM107.09 452.687a12.998 12.998 0 0 1-.627-.184c-.736-.234-1.474-.555-2.184-1.065-.226-.162-.441-.369-.66-.56-.209-.21-.4-.464-.592-.704-.169-.267-.314-.562-.458-.852a7.459 7.459 0 0 1-.274-1.098l-.049-.675-.005-.082v-.01l.008-.178.003-.025.006-.049.025-.2.052-.4.12-.805.276-.818c.153-.553.523-1.062.849-1.576.18-.246.414-.454.629-.678.214-.232.451-.423.709-.58.5-.372 1.032-.609 1.574-.827.532-.176 1.085-.35 1.61-.418.507-.092.998-.132 1.489-.148-.032-.07-.07-.135-.102-.206-.214-.486-.407-.99-.56-1.53a10.56 10.56 0 0 1-.359-1.694l-.077-.918c0-.317.027-.65.048-.977.006-.32.096-.664.182-1.003.09-.338.155-.678.33-1.002.152-.327.316-.652.489-.967.24-.33.509-.657.79-.965.129-.14.308-.335.404-.417l.268-.215.533-.43.233-.159.022-.012.046-.028.093-.054.184-.107.371-.213c.248-.141.494-.286.774-.396a9.435 9.435 0 0 1 1.698-.613 8.42 8.42 0 0 1 1.862-.293c.343-.018.689-.011 1.034.013.03-.589.086-1.197.296-1.833.165-.634.513-1.293.906-1.855.216-.28.434-.551.676-.812.292-.26.605-.51.926-.739.392-.281.485-.298.671-.403l.258-.137.129-.068.064-.035.244-.113.011-.004.025-.009.05-.018c.535-.175 1.039-.4 1.62-.483a7.375 7.375 0 0 1 1.42-.162c.102-.004.205-.014.308-.014a8.452 8.452 0 0 1 1.719.18 9.268 9.268 0 0 1 1.606.487c.306.13.604.272.894.423.056-.163.102-.327.163-.488.293-.822.643-1.638 1.023-2.45l.624-1.213.738-1.194c.55-.784 1.125-1.566 1.887-2.282.337-.372.768-.703 1.211-1.023l.66-.473.758-.385.772-.362c.246-.122.623-.192.935-.276.329-.078.659-.147.99-.205.153-.024.353-.063.467-.07l.295-.003.591-.007.296-.003.149-.002h.036l.319.01.014.002.026.004.106.014c.57.07 1.13.188 1.675.365a9.967 9.967 0 0 1 2.91 1.526c.84.638 1.532 1.36 2.144 2.1 1.21 1.492 2.065 3.074 2.776 4.659.711 1.587 1.232 3.201 1.666 4.82.218.81.41 1.621.578 2.438.123.6.229 1.187.329 1.801l1.786 1.895 2.158 2.648c.727.878 1.372 1.79 2.061 2.682a66.38 66.38 0 0 1 1.983 2.72 176.647 176.647 0 0 1 7.385 11.192.987.987 0 0 1-1.597 1.15l-4.314-5.064c-1.454-1.671-2.87-3.366-4.334-5.017-.718-.838-1.46-1.65-2.191-2.467-.737-.808-1.446-1.658-2.205-2.431l-2.25-2.344-2.28-2.132a2.49 2.49 0 0 1-.744-1.33l-.013-.067a35.455 35.455 0 0 0-.504-2.118 40.005 40.005 0 0 0-.64-2.132 34.36 34.36 0 0 0-1.628-4.041c-.62-1.27-1.343-2.451-2.16-3.38-.817-.94-1.712-1.557-2.548-1.777a3.564 3.564 0 0 0-.606-.107l-.267.007-.59.013-.297.006c-.083.008-.07.041-.109.056a.524.524 0 0 1-.16.078c-.063.032-.093-.013-.197.054l-.29.157-.301.138-.288.233c-.197.143-.402.28-.585.506-.393.365-.748.867-1.101 1.372l-.496.823-.447.898c-.278.62-.546 1.256-.772 1.923a30.527 30.527 0 0 0-.636 2.031 24.11 24.11 0 0 0-.464 2.013l-.007.039a2.867 2.867 0 0 1-3.318 2.335 2.876 2.876 0 0 1-1.825-1.132 6.02 6.02 0 0 0-.48-.54 6.434 6.434 0 0 0-.62-.561 5 5 0 0 0-.649-.46c-.218-.144-.435-.238-.648-.338a3.628 3.628 0 0 0-.62-.197 2.759 2.759 0 0 0-.591-.07 2.231 2.231 0 0 0-.587.055c-.194 0-.398.125-.606.167l-.011.005-.259.134c-.154.08-.429.21-.323.197.018.014.028.008.016-.01a.18.18 0 0 1-.07.083c-.05.013-.031.07-.063.094-.035.02-.048.07-.06.126-.053.083-.065.249-.09.422-.013.183-.002.405.022.646.04.248.083.506.16.78.071.272.166.553.273.83.099.256.255.604.328.744l-2.217 1.594-.566.406-1.552 1.115c.042.045-.104-.114-.193-.181-.097-.091-.216-.176-.328-.26a4.355 4.355 0 0 0-.731-.418 3.621 3.621 0 0 0-1.566-.332c-.27-.003-.55.017-.839.083-.289.049-.586.144-.886.264-.153.04-.304.125-.456.202l-.23.114-.114.056-.058.029-.025.011-.377.272-.279.2c-.079.062-.025.063-.05.09-.013.04-.04.06-.091.081-.036.089-.08.17-.137.248-.074.066-.076.187-.114.285-.034.1-.09.194-.088.332l-.05.386.014.448c.025.309.068.643.153.988a11.904 11.904 0 0 0 .741 2.148 16.16 16.16 0 0 0 1.124 2.073l.123.191c.62.957.345 2.237-.614 2.858a2.085 2.085 0 0 1-1.836.203 11.26 11.26 0 0 0-1.038-.309c-.37-.089-.746-.17-1.117-.225-.374-.07-.741-.093-1.106-.12-.36-.014-.718-.03-1.052.002-.351.003-.65.083-.959.141-.283.087-.57.17-.793.312a.885.885 0 0 0-.332.214c-.093.088-.215.15-.303.25-.142.227-.366.392-.46.695l-.202.409-.118.493-.067.247-.034.124-.009.031-.005.015v.005c.002-.068-.007.127.004-.128l-.004.06-.028.642c.035.057.035.105.028.183.051.103.077.216.12.33.078.105.131.223.215.337.106.104.189.225.307.334.239.218.525.418.838.612.32.188.664.359 1.028.51.365.15.744.288 1.134.4.38.117.805.217 1.162.287l.058.011c.535.104.882.62.779 1.154-.005.024-.019.041-.025.064-.002.004-.004.007-.004.01a.978.978 0 0 1-.984.721c-.518-.024-.962-.069-1.438-.141-.47-.067-.938-.165-1.41-.284zm17.09-24.913c-.02.01-.038.019 0 0z" style="fill:#fa8385"/><path d="M263.885 189.715c-1.722 8.768-9.405 14.648-17.157 13.123-7.75-1.513-12.636-9.854-10.927-18.622 1.19-6.065 5.223-10.743 10.154-12.557-.717 2.46-1.098 5.776 1.248 7.544 3.027 2.264 8.318-3.154 10.593-6.076 4.806 3.315 7.405 9.819 6.089 16.588zm-158.766 8.751c.047.344.105.682.213 1.007.098.327.183.655.29.973l.371.926c.251.613.6 1.169.913 1.73a.986.986 0 0 0 1.838-.593l-.017-.159c-.068-.577-.225-1.12-.252-1.679l-.082-.817-.002-.804c-.012-.53.052-1.046.118-1.546l.144-.739c.07-.24.154-.474.213-.71.16-.462.32-.917.564-1.341.205-.435.49-.837.767-1.234.278-.401.593-.781.927-1.151.35-.361.7-.719 1.098-1.048 1.55-1.337 3.394-2.472 5.366-3.43a41.754 41.754 0 0 1 3.036-1.32 35.066 35.066 0 0 1 1.562-.564c.504-.18 1.08-.361 1.503-.48l.104-.028a2.857 2.857 0 0 0 1.254-4.752c-2.685-2.728-5.439-5.387-8.303-7.94a86.366 86.366 0 0 0-2.174-1.89c-.738-.617-1.453-1.257-2.21-1.856-1.499-1.211-3.007-2.414-4.613-3.524a1.004 1.004 0 0 0-1.417 1.368c1.052 1.643 2.2 3.194 3.356 4.736.573.778 1.185 1.515 1.776 2.275.59.76 1.198 1.502 1.811 2.24a160.06 160.06 0 0 0 4.64 5.324c-.993.42-1.972.88-2.928 1.4-2.288 1.25-4.498 2.805-6.347 4.872-.465.51-.892 1.07-1.302 1.636-.4.583-.775 1.186-1.1 1.827-.305.65-.588 1.313-.781 2.013-.226.682-.348 1.405-.443 2.111-.035.357-.057.715-.07 1.07l.044 1.06c.006.352.09.695.133 1.037zm193.821-80.565s4.996 11.8-5.88 17.273c-10.876 5.471-21.144-6.048-21.144-6.048l-7.014 5.896s8.235 14.027 26.989 6.466a40.33 40.33 0 0 0 1.709-.733c7.644-3.504 11.261-8.201 12.824-12.666 2.517-7.198-.317-13.79-.317-13.79l-7.167 3.602zm-110.95 59.347c3.856 1.328 8.89 1.717 15.383.04a33.514 33.514 0 0 0 3.188-.997c17.162-6.296 13.415-22.331 13.415-22.331l-7.52 2.235s2.777 12.224-8.64 15.625c-11.422 3.394-19.326-9.471-19.326-9.471l-7.77 4.472s2.766 7.498 11.27 10.427zm67.822-101.05 4.237 9.627h15.402V73.118l-19.639 3.08zm-84.329 52.816 9.242-14.715-8.471-4.215-8.47 14.632 7.7 4.298zm-73.755 25.4s-.91-2.634-2.1-7.175c-6.98-26.662-23.615-119.213 77.396-132.163 0 0 121.073-57.695 122.086 52.663.001.125.005.246.006.371l-77.039-34.304s11.427 18.097 4.943 33.885l-19.131 4.62-8.532-26.953-6.981 30.804-17.114 3.08-11.33-30.419s11.403 84.987-44.934 107.954l-17.27-2.363zM136.2 86.396l1.58-3.351c.48-1.143 1-2.277 1.448-3.438.457-1.158.909-2.319 1.28-3.5a73.196 73.196 0 0 0 1.113-3.523c.722-2.338 1.254-4.686 1.722-6.961.463-2.277.834-4.491 1.06-6.606.14-1.052.223-2.084.33-3.076.064-.998.136-1.96.17-2.885.19-3.698.05-6.786-.132-8.939-.078-1.077-.202-1.922-.28-2.5a284.89 284.89 0 0 1-.134-.893.988.988 0 0 0-1.964.06l-.003.034s-.106 1.167-.37 3.248l-.512 3.726c-.233 1.433-.482 3.047-.794 4.798a211.534 211.534 0 0 1-1.12 5.622c-.214.992-.448 2.007-.712 3.038-.223 1.04-.508 2.088-.774 3.159a170.355 170.355 0 0 1-1.907 6.517c-.667 2.213-1.52 4.395-2.327 6.592-.402 1.1-.873 2.17-1.304 3.254l-1.425 3.167c-.976 2.084-1.977 4.117-3.046 6.03-.56.942-1.055 1.904-1.6 2.808-.553.899-1.072 1.796-1.617 2.643-.56.836-1.108 1.648-1.617 2.454l-1.586 2.247a143.176 143.176 0 0 1-2.921 3.852c-.94 1.09-1.698 2.11-2.393 2.886-1.38 1.56-2.158 2.485-2.158 2.485l-.034.04a.988.988 0 0 0 1.332 1.44s.997-.71 2.727-2.014c.851-.664 1.842-1.524 2.981-2.518 1.094-1.034 2.364-2.184 3.614-3.562l1.956-2.155c.649-.767 1.298-1.58 1.968-2.415 1.286-1.708 2.646-3.518 3.876-5.506a88.514 88.514 0 0 0 3.573-6.258zm77.08-32.265.463-1.557c.133-.545.198-1.12.292-1.71.163-1.181.428-2.436.387-3.747.036-1.31.057-2.673-.134-4.036l-.24-2.068-.451-2.04c-.262-1.378-.756-2.68-1.197-3.975-.464-1.284-1.056-2.49-1.616-3.654-.64-1.124-1.217-2.23-1.905-3.19-.337-.48-.663-.95-.98-1.403l-1.01-1.243c-.625-.806-1.3-1.47-1.873-2.067-.6-.582-1.12-1.076-1.593-1.454-.447-.387-.84-.67-1.109-.87-.267-.2-.406-.275-.406-.275l-.056-.029a1.02 1.02 0 0 0-1.375 1.383l.823 1.542.925 1.767.532 1.1c.203.376.406.773.598 1.202.4.846.825 1.756 1.237 2.731.462.95.82 2.004 1.271 3.05.213.528.386 1.08.585 1.628.184.554.436 1.091.577 1.668.323 1.138.735 2.27.97 3.442l.429 1.739.286 1.747c.26 1.153.32 2.303.434 3.42.158 1.12.15 2.204.165 3.244.013.522.026 1.03.036 1.522l-.093 1.422c-.09.91-.042 1.783-.148 2.531-.124.745-.186 1.414-.258 1.963-.126 1.105-.164 1.766-.164 1.766l-.007.122a.996.996 0 0 0 1.85.57s.347-.577.893-1.637c.264-.533.61-1.178.956-1.942.34-.764.602-1.67.905-2.662zm52.776-20.022s-.295-.317-.842-.809a34.659 34.659 0 0 0-2.336-1.9c-1.98-1.471-4.743-3.177-7.65-4.584-2.893-1.435-5.938-2.553-8.336-3.153a28.814 28.814 0 0 0-2.96-.594c-.732-.109-1.171-.127-1.171-.127a1.072 1.072 0 0 0-.85 1.775s.287.332.83.834c.541.507 1.332 1.19 2.319 1.935 1.969 1.494 4.747 3.168 7.677 4.525 2.918 1.384 5.979 2.47 8.367 3.092 1.196.306 2.215.515 2.943.63.726.12 1.158.152 1.158.152.282.02.575-.073.799-.28.427-.4.45-1.069.052-1.496zm-33.54 227.523a4.043 4.043 0 1 0 .002-8.086 4.043 4.043 0 0 0-.001 8.086zm2.695 11.538a4.043 4.043 0 1 0 8.086.001 4.043 4.043 0 0 0-8.086-.001z" style="fill:#21234b"/><path d="M245.955 171.66c2.207-.81 4.598-1.053 7.001-.578a12.712 12.712 0 0 1 4.84 2.045c-2.275 2.922-7.566 8.34-10.593 6.076-2.346-1.768-1.965-5.083-1.248-7.544zm47.654 129.988-.37-1.906c-.143-.655-.347-1.315-.538-2.002-.408-1.361-.745-2.84-1.324-4.282-.541-1.456-1.07-2.982-1.77-4.456-.673-1.487-1.355-3.002-2.171-4.446a50.898 50.898 0 0 0-2.487-4.274c-.838-1.4-1.805-2.683-2.699-3.95a72.972 72.972 0 0 0-2.795-3.487c-.942-1.066-1.835-2.067-2.73-2.93a39.072 39.072 0 0 0-2.458-2.325 36.77 36.77 0 0 0-2.015-1.67 26.093 26.093 0 0 0-1.376-1.005 6.628 6.628 0 0 0-.5-.33l-.032-.018a1.008 1.008 0 0 0-1.322 1.448l1.236 1.803c.783 1.154 1.897 2.793 3.203 4.767l2.067 3.198c.716 1.14 1.468 2.343 2.248 3.587.742 1.263 1.566 2.53 2.308 3.874l1.169 1.999 1.112 2.049c.773 1.352 1.462 2.746 2.157 4.112.743 1.345 1.318 2.735 1.967 4.048.656 1.31 1.195 2.613 1.735 3.847.271.616.536 1.215.79 1.795l.673 1.708c.408 1.102.882 2.093 1.21 2.998.306.91.62 1.697.861 2.352.498 1.306.824 2.054.824 2.054l.028.064a.997.997 0 0 0 1.909-.42s-.008-.36-.042-1.01a67.85 67.85 0 0 0-.08-1.253l-.036-.46c-.046-.623-.097-1.342-.187-2.144-.123-1-.327-2.116-.565-3.335zM188.058 243.94c-.656-.497-1.352-.902-2.033-1.288-.353-.2-.702-.396-1.037-.593-.498-.28-.972-.565-1.455-.801-.494-.217-.971-.427-1.43-.626-.912-.402-1.75-.754-2.515-1.013-.77-.25-1.457-.422-2.013-.58-1.118-.3-1.761-.43-1.76-.43l-.021-.001a1.002 1.002 0 0 0-.815 1.759l.067.056s.501.413 1.388 1.062c.447.317.976.72 1.601 1.132.615.434 1.254 1.01 1.997 1.54.367.274.746.56 1.14.856.373.326.766.65 1.17.98.806.66 1.658 1.343 2.484 2.12.832.768 1.738 1.497 2.562 2.354.86.812 1.727 1.642 2.549 2.524.409.441.848.852 1.253 1.294l1.205 1.328c.827.853 1.547 1.78 2.318 2.617.722.875 1.453 1.706 2.11 2.523l1.876 2.303 2.78 3.54 1.057 1.36c.204.259.534.419.887.39.56-.047.98-.537.935-1.098l-.005-.053s-.013-.154-.083-.473c-.068-.319-.159-.775-.317-1.333-.15-.565-.353-1.239-.627-1.999-.272-.757-.588-1.618-1.014-2.508-.387-.917-.88-1.872-1.423-2.87-.546-1-1.194-2.008-1.87-3.052-.737-.998-1.44-2.08-2.305-3.062-.833-1.009-1.702-2.015-2.663-2.94-.476-.466-.927-.956-1.422-1.398l-1.502-1.294c-.269-.238-.554-.448-.833-.669a48.737 48.737 0 0 0-2.236-1.656zm25.686-191.365c.133-.545.197-1.12.292-1.71.163-1.181.428-2.436.387-3.747.036-1.31.057-2.673-.134-4.036l-.24-2.068-.451-2.04c-.262-1.378-.756-2.681-1.197-3.975-.465-1.284-1.056-2.49-1.616-3.654-.64-1.124-1.217-2.23-1.905-3.19-.337-.48-.663-.95-.98-1.404l-1.01-1.242c-.626-.806-1.3-1.47-1.874-2.067-.6-.582-1.119-1.076-1.592-1.454-.447-.387-.84-.67-1.109-.87-.267-.2-.406-.275-.406-.275l-.056-.029a1.02 1.02 0 0 0-1.375 1.383l.823 1.542.924 1.767.533 1.1c.203.375.406.773.598 1.202.4.845.824 1.756 1.237 2.731.461.95.82 2.004 1.271 3.05.213.528.386 1.08.585 1.628.184.554.435 1.091.577 1.668.323 1.138.735 2.27.97 3.442l.428 1.738c.096.586.193 1.168.287 1.748.26 1.153.32 2.303.434 3.42.158 1.12.15 2.204.165 3.244.013.522.026 1.03.036 1.522l-.094 1.422c-.088.91-.042 1.783-.147 2.531-.124.744-.186 1.413-.258 1.963-.126 1.105-.164 1.766-.164 1.766l-.007.121a.996.996 0 0 0 1.85.57s.347-.576.892-1.636c.265-.533.61-1.178.957-1.942.34-.764.601-1.67.905-2.662l.464-1.557zm-75.963 30.47c.48-1.142 1-2.276 1.448-3.437.457-1.158.909-2.319 1.28-3.5a73.196 73.196 0 0 0 1.113-3.523c.722-2.338 1.254-4.686 1.722-6.961.463-2.277.834-4.491 1.06-6.606.14-1.052.223-2.084.33-3.076.064-.998.136-1.96.17-2.885.19-3.698.05-6.786-.132-8.939-.078-1.077-.202-1.922-.28-2.5a284.89 284.89 0 0 1-.134-.893.988.988 0 0 0-1.964.06l-.003.034s-.106 1.167-.37 3.248l-.512 3.726c-.233 1.433-.482 3.047-.794 4.798a211.534 211.534 0 0 1-1.12 5.622c-.214.992-.448 2.007-.712 3.038-.223 1.04-.508 2.088-.774 3.159a170.355 170.355 0 0 1-1.907 6.517c-.667 2.213-1.52 4.395-2.327 6.592-.402 1.1-.873 2.17-1.304 3.254l-1.425 3.167c-.976 2.084-1.977 4.117-3.046 6.03-.56.942-1.055 1.904-1.6 2.808-.553.899-1.072 1.796-1.617 2.643-.56.836-1.108 1.648-1.617 2.454l-1.586 2.247a143.176 143.176 0 0 1-2.921 3.852c-.94 1.09-1.698 2.11-2.393 2.886-1.38 1.56-2.158 2.485-2.158 2.485l-.034.04a.988.988 0 0 0 1.332 1.44s.997-.71 2.727-2.014c.851-.664 1.842-1.524 2.981-2.518 1.094-1.034 2.364-2.184 3.614-3.562l1.956-2.155c.649-.767 1.298-1.58 1.968-2.415 1.286-1.708 2.646-3.518 3.876-5.506a88.331 88.331 0 0 0 3.573-6.258l1.58-3.351zM265.215 33.3a34.659 34.659 0 0 0-2.336-1.9c-1.98-1.471-4.743-3.177-7.65-4.584-2.893-1.435-5.938-2.553-8.336-3.153a28.814 28.814 0 0 0-2.96-.594c-.732-.109-1.171-.127-1.171-.127a1.072 1.072 0 0 0-.85 1.775s.287.332.83.834c.541.507 1.332 1.19 2.319 1.935 1.969 1.494 4.747 3.168 7.677 4.525 2.918 1.384 5.979 2.47 8.367 3.092 1.196.306 2.215.515 2.943.63.726.12 1.158.152 1.158.152a1.058 1.058 0 0 0 .85-1.776s-.294-.317-.841-.809zm-64.022 288.111 20.454 4.217 16.165-10.69-3.817-27.274-32.802 2.244v31.503zm20.455-72.587 5.256.541 9.796 1.009 13.143 28.753-12.897 2.695-15.298-32.998zm17.607 20.303a4.043 4.043 0 1 0 0 8.087 4.043 4.043 0 0 0 0-8.087zm-10.78-11.538a4.043 4.043 0 1 0 8.086 0 4.043 4.043 0 0 0-8.086 0zm-.065 138.63a73.586 73.586 0 0 0-4.297-12.022c-1.114-2.408-2.418-4.993-4.053-7.59-1.63-2.596-3.492-5.282-5.74-7.819-2.239-2.54-4.79-5-7.677-7.166a32.322 32.322 0 0 0-2.233-1.55 29.568 29.568 0 0 0-2.34-1.428l-1.203-.68-1.281-.629c-.423-.205-.865-.432-1.275-.614l-1.196-.498-.595-.25-.3-.124-.148-.062-.125-.047-.042-.013-.08-.026-1.308-.416-2.62-.8c-.863-.3-1.756-.466-2.645-.633-.889-.172-1.773-.345-2.656-.515-.877-.208-1.772-.242-2.653-.34l-2.636-.238c-1.748-.088-3.475-.01-5.17-.02-1.688.106-3.34.27-4.958.408-1.596.279-3.162.524-4.669.817-1.492.364-2.952.677-4.34 1.058-1.374.434-2.71.818-3.963 1.264-1.244.472-2.45.88-3.567 1.347-1.106.491-2.167.922-3.135 1.391a65.472 65.472 0 0 0-4.935 2.573 49.569 49.569 0 0 0-3.04 1.896c-.705.477-1.05.73-1.05.73a.987.987 0 0 0 1.018 1.685s.395-.194 1.1-.51c.72-.325 1.805-.767 3.176-1.327a115.723 115.723 0 0 1 5.024-1.825 112.123 112.123 0 0 1 6.62-1.922c1.219-.312 2.51-.545 3.827-.844 1.323-.269 2.703-.465 4.11-.714 1.418-.177 2.878-.302 4.361-.464 1.488-.063 3.007-.153 4.548-.189 1.536.077 3.105.064 4.672.208 1.558.234 3.162.277 4.727.606l2.356.492c.79.157 1.583.31 2.34.593l2.307.74 1.161.355.073.023.036.01c-.02-.007.047.017.021.007l.08.032.3.12.6.242 1.2.483c.378.165.701.335 1.056.5l1.042.497 1.052.578c.708.373 1.394.784 2.062 1.224.685.41 1.337.871 1.98 1.34a47.664 47.664 0 0 1 7.1 6.17c2.107 2.242 4.032 4.557 5.683 6.896 1.645 2.34 3.12 4.635 4.361 6.832a98.681 98.681 0 0 1 5.379 11.012c.557 1.377.996 2.462 1.266 3.21l.398 1.133.02.058a.985.985 0 0 0 1.897-.505s-.077-.44-.228-1.265c-.165-.81-.396-2-.795-3.485z" style="fill:#f6d20c"/></svg>