<svg xmlns="http://www.w3.org/2000/svg" style="fill:#000" version="1.0" viewBox="-1.4 -5.5 399.8 495.5"><path d="M365.027 309.246c-2.444 1.812-42.13 30.889-71.798 31.058-5.689.032-12.685-.62-20.263-1.689.015.123.022.25.03.374 1.571 4.081 3.002 9.253 3.443 15.235 15.543 2.462 48.193 9.883 61.563 29.927 17.852 26.757 5.245 63.653-31.673 77.983-21.054 8.17-60.724 6.119-69.932 5.51-.002.016-1.842 16.253-14.958 16.864l-9.452-43.393c-5.395.309-11.035.303-16.919-.14-1.58-.119-3.121-.258-4.626-.418l9.577 14.35L155.83 490c-11.287-5.491-1.643-21.664-1.635-21.678-12.735-9.738-73.688-57.13-81.766-78.235-4.083-10.666-3.099-21.797 1.782-30.33-20.44-8.01-42.142-27.704-42.142-27.704l.104-.148C22.809 327.37-1.393 314.955.063 308.49c1.803-8.002 6.87-8.328 6.87-8.328s-1.096-4.694 3.338-8.752c4.438-4.058 5.475-2.902 5.475-2.902s-1.952-4.985 2.669-8.657c4.624-3.68 5.856-2.617 5.856-2.617s-1.335-9.084 4.602-11.024c4.563-1.492 7.817 3.247 9.084 5.53.068.036.137.07.204.106.058.032.115.066.174.098 1.21-4.017 3.621-9.74 7.578-9.96 5.071-.284 7.213 13.393 7.798 18.087l11.145 5.27.644-.918 27.261 14.96s3.323-.546 15.522-9.106c.35-9.05 17.64-18.47 17.64-18.47s-13.123-10.374-6.714-14.56c6.402-4.18 38.369 3.665 38.428 3.679 2.33-.273 4.829-.356 7.293-.077l1.155-3.795c-62.994-4.766-91.643-26.893-100.256-56.307-2.543.713-5.599 1.066-9.295 1.004-20.588-.346-36.205-19.263-35.688-36.961.386-13.286 9.185-27.8 21.862-31.959 3.095-8.737 7.824-17.875 13.594-26.88-6.277 2.208-13.55 3.565-19.442 1.312-13.306-5.088-7.159-20.303-7.159-20.303s-17.106 4.256-18.28-11.398c-1.174-15.654 24.656-16.437 24.656-16.437S14.16 44.252 20.98 29.771s30.734-1.566 30.734-1.566S44.687 7.071 62.402.811c17.716-6.262 26.51 25.83 26.51 25.83s7.044-22.309 22.287-18.003c11.841 3.344 13.105 23.21 13.08 31.917 27.133-13.54 44.903-7.654 44.903-7.654 30.528-14.789 65.92-8.66 96.457 4.266.347-9.652 2.54-25.568 13.023-28.53 15.244-4.305 22.29 18.004 22.29 18.004S309.743-5.451 327.46.81c17.716 6.26 10.688 27.394 10.688 27.394s23.914-12.914 30.734 1.566-15.097 29.353-15.097 29.353 25.83.783 24.656 16.438c-1.174 15.653-18.28 11.397-18.28 11.397s6.147 15.215-7.159 20.303c-3.475 1.328-7.43 1.395-11.378.78.933 4.577 1.545 9.193 1.917 13.702 14.615 2.4 25.008 18.47 25.334 33.012.394 17.701-15.352 36.512-35.94 36.719-2.301.023-4.345-.12-6.181-.4-3.678 25.254-22.764 52.294-79.26 62.604 2.636-.066 5.004.579 6.751 2.342 3.917 3.95 2.425 8.992-.151 13.143a89.847 89.847 0 0 1 4.193 1.575c24.375 9.902 28.466 14.97 28.466 14.97l59.11-25.283c4.811-5.83 10.456-11.702 13.686-11.705 6.413-.006 1.981 12.187 1.981 12.187s11.273-15.92 16.72-13.115c5.447 2.805-2.584 11.395-2.584 11.395s9.87-9.016 13.077-3.915c3.206 5.1-10.16 15.147-10.16 15.147s14.746-5.266 16.481.25c1.735 5.515-12.647 10.767-12.647 10.767s12.844-1.125 14.577 4.391c1.433 4.556-23.314 18.651-31.967 23.418z" style="fill:#e2413d"/><path d="M214.032 260.768c.114-.033.228-.059.343-.091l14.007.49c3.376-2.126 8.666-5.104 13.807-6.585-8.321 1.31-17.41 2.274-27.32 2.839l-.837 3.347zM128.092 357.535c-.052-2.848-.004-6.241.241-10.088a10.49 10.49 0 0 1-2.008-.623c-2.28 1.431-4.55 2.815-6.788 4.133 2.89 1.853 5.753 4.082 8.555 6.578z" style="fill:none"/><path d="M56.478 132.543c5.374 1.46 9.618 4.205 12.895 7.835a213.745 213.745 0 0 1 5.29-15.085c17.048-43.514 46.126-64.8 70.305-75.212-1.726 5.639-1.953 11.917 4.525 13.74 12.523 3.522 22.935-15.655 22.935-15.655s.156 20.742 11.114 19.96c10.957-.783 18.11-17.612 18.11-17.612s7.847 15.654 14.632 11.741c3.856-2.224 6.53-9.75 8.12-15.839 55.315 16.669 78.79 61.727 91.214 90.89 3.524-7.222 9.261-12.769 17.842-15.038 3.522-.932 6.9-1.046 10.081-.524-.372-4.509-.984-9.125-1.917-13.702 3.948.615 7.904.548 11.378-.78 13.306-5.088 7.16-20.303 7.16-20.303s17.105 4.256 18.28-11.397c1.173-15.655-24.657-16.438-24.657-16.438s21.916-14.872 15.097-29.352-30.733-1.567-30.733-1.567S345.176 7.071 327.46.811c-17.716-6.262-26.509 25.83-26.509 25.83s-7.045-22.309-22.289-18.003c-10.482 2.96-12.676 18.877-13.023 28.529-30.536-12.927-65.928-19.055-96.457-4.266 0 0-17.77-5.886-44.904 7.654.026-8.706-1.238-28.573-13.079-31.917C95.956 4.332 88.911 26.64 88.911 26.64S80.118-5.451 62.402.81C44.687 7.07 51.714 28.204 51.714 28.204S27.8 15.291 20.98 29.772s15.097 29.352 15.097 29.352-25.83.783-24.656 16.438C12.595 91.215 29.7 86.959 29.7 86.959s-6.147 15.215 7.16 20.303c5.892 2.253 13.164.896 19.44-1.312-5.769 9.005-10.498 18.143-13.593 26.88 4.217-1.383 8.862-1.621 13.77-.287zm226.31-94.41c.046-.458.153-.92.232-1.381.112-.462.27-.924.408-1.388.195-.455.409-.912.635-1.364.295-.427.577-.871.918-1.276.39-.365.77-.764 1.208-1.077.463-.271.932-.57 1.42-.792a38.018 38.018 0 0 1 1.516-.472c.505-.1 1.003-.124 1.51-.182.517-.075.992-.033 1.472.003l.724.052.362.027.181.014.09.008.247.054 1.227.287.613.145c.215.062.487.19.727.286.497.209.994.429 1.486.658.445.255.844.545 1.266.823l.623.427.55.503c.358.342.739.674 1.074 1.035.612.758 1.27 1.507 1.738 2.341.547.808.914 1.67 1.329 2.523.337.868.704 1.737.945 2.62.057.174.098.35.148.524.1-.16.196-.323.297-.483 1.405-2.212 2.846-4.41 4.415-6.54 1.564-2.132 3.222-4.217 5.05-6.232.928-1.001 1.877-1.993 2.95-2.935 1.076-.935 2.19-1.867 3.61-2.648.352-.196.749-.371 1.124-.552.386-.175.847-.311 1.272-.455.454-.128.971-.207 1.462-.284.557-.005 1.09-.055 1.67.054.288.053.577.117.863.188l.213.055.29.111.055.025.222.095c.17.08.245.095.494.227.27.148.54.31.8.48.97.662 1.567 1.345 2.117 2.109 1.042 1.51 1.567 3.04 1.938 4.5.362 1.464.547 2.885.657 4.285.217 2.796.063 5.496-.175 8.164a70.645 70.645 0 0 1-.163 1.508c.728-.418 1.48-.816 2.3-1.153 1.026-.417 2.144-.774 3.441-.888 1.272-.117 2.833.083 4.153.898 1.314.819 2.134 2.038 2.631 3.148.478 1.12.748 2.217.903 3.272l.035.2.037.282.004.087.015.351.032.703.032.704c.01.234.032.452-.01.769-.123 1.163-.208 2.377-.59 3.373-.268 1.067-.782 2.019-1.27 2.972-.244.474-.581.883-.871 1.324-.291.441-.604.86-.964 1.232-.349.382-.679.782-1.043 1.14l-1.128 1.027c-.367.355-.795.618-1.189.929-.397.307-.802.599-1.226.855-.825.555-1.688 1.028-2.55 1.498-.874.443-1.765.843-2.667 1.209-.917.354-1.8.685-2.786.962a1 1 0 0 1-.658-1.886l.034-.014c.79-.331 1.625-.762 2.415-1.184.795-.435 1.557-.921 2.32-1.398.74-.51 1.478-1.016 2.16-1.583.356-.265.683-.56 1.001-.86.314-.306.666-.575.944-.905l.882-.945c.279-.323.513-.675.774-1.007a6.03 6.03 0 0 0 .681-1.045c.192-.363.442-.7.59-1.076.294-.754.63-1.483.744-2.268.254-.787.185-1.472.274-2.17.037-.15-.002-.4-.029-.634l-.077-.7-.076-.7-.03-.274c-.002-.007-.002-.008 0 .01l-.002-.008-.005-.019-.008-.037-.037-.145a8.911 8.911 0 0 0-.715-2.102c-.309-.576-.669-.917-.97-1.077-.307-.146-.699-.207-1.28-.13-1.17.158-2.682.919-4.05 1.849a26.65 26.65 0 0 0-2.042 1.538c-.647.54-1.34 1.159-1.885 1.692a2.652 2.652 0 0 1-4.471-2.339l.014-.079c.202-1.153.381-2.426.525-3.648.145-1.234.261-2.47.342-3.702.164-2.461.183-4.923-.017-7.26-.1-1.164-.269-2.3-.535-3.331-.262-1.027-.645-1.95-1.08-2.557-.103-.164-.224-.255-.322-.394a1.695 1.695 0 0 1-.164-.135c-.055-.057-.105-.1-.102-.082-.01-.004-.012-.017-.01-.04-.028-.032-.264-.117-.385-.174l-.112-.047-.01.003a.129.129 0 0 1-.08-.011c-.2-.087-1.003.12-1.826.595-.84.463-1.742 1.158-2.603 1.907-.873.745-1.717 1.606-2.546 2.484-1.65 1.78-3.222 3.709-4.722 5.71a146.504 146.504 0 0 0-6.48 9.308 130.036 130.036 0 0 0-1.985 3.199l-.058.094a2.62 2.62 0 0 1-4.866-1.448c.025-.633-.012-1.47-.053-2.216a32.707 32.707 0 0 0-.256-2.292c-.132-.752-.256-1.512-.455-2.24-.159-.745-.422-1.438-.65-2.15-.288-.668-.544-1.37-.907-1.978-.304-.666-.74-1.2-1.128-1.788-.215-.269-.462-.5-.688-.759l-.347-.382-.399-.304c-.266-.2-.53-.435-.794-.619a11.862 11.862 0 0 1-.786-.43c-.141-.072-.235-.163-.415-.232l-.6-.188-1.201-.382-.895-.142c-.352-.063-.712-.136-1.032-.103-.328.013-.676-.017-.997.014-.298.072-.6.133-.911.186-.282.104-.533.25-.817.357-.258.146-.468.36-.725.524-.222.213-.414.469-.64.698l-.528.865c-.131.331-.287.65-.413.992-.098.357-.228.704-.307 1.075a16.685 16.685 0 0 0-.39 4.653l.001.035a1.002 1.002 0 0 1-1.983.244c-.336-1.774-.437-3.535-.246-5.377zM196.7 34.928a2.874 2.874 0 0 1 5.24.606c.124.411.355 1.01.563 1.51.222.52.46 1.031.703 1.534.245.505.518.977.796 1.445.295.44.585.891.912 1.268.153.21.319.389.49.55.17.163.327.366.507.482.174.13.344.291.515.413.174.101.346.208.517.327.353.14.698.328 1.072.357l.278.066c.096.005.197-.01.296-.01l.299-.003.152.004.039.002H209.109c-.08.02.167-.037-.152.038l.092-.02.94-.216.228-.05.125-.056.258-.098.273-.085c.099-.04.21-.112.316-.166.21-.124.442-.212.65-.358.416-.293.841-.595 1.23-.98.4-.356.783-.772 1.152-1.205.37-.435.714-.906 1.043-1.396.316-.5.653-1 .943-1.53.305-.524.57-1.074.842-1.626.267-.544.52-1.136.736-1.666l.024-.057a1.007 1.007 0 0 1 1.934.473 18.254 18.254 0 0 1-.32 2.039 19.592 19.592 0 0 1-.518 1.978c-.2.656-.434 1.31-.709 1.951-.28.64-.589 1.276-.95 1.9-.366.616-.74 1.247-1.223 1.819-.453.592-.998 1.133-1.573 1.66-.284.265-.624.485-.94.726-.166.117-.314.237-.497.348l-.602.322-.615.305-.312.149-.235.085-.915.306-.113.04-.227.051-.041.007-.082.013-.326.048-.66.088c-.221.023-.442.056-.664.066l-.68-.04c-.92-.018-1.794-.281-2.647-.57l-1.19-.567c-.38-.205-.705-.46-1.055-.699-.362-.236-.637-.515-.944-.782a8 8 0 0 1-.846-.835c-.547-.568-.997-1.169-1.45-1.773-.139-.202-.272-.407-.407-.61a76.157 76.157 0 0 1-2.464 3.736c-.972 1.357-1.983 2.704-3.13 3.985-1.144 1.285-2.352 2.547-3.881 3.705-.785.57-1.62 1.115-2.745 1.527-.28.102-.6.182-.9.262-.314.073-.687.104-1.027.138-.402.02-.95-.036-1.399-.123l-.295-.094-.144-.047-.071-.023-.018-.006-.266-.088-.012-.007-.05-.027c-.53-.304-1.099-.57-1.548-.97-.429-.42-.906-.821-1.186-1.309l-.465-.708c-.136-.24-.226-.483-.337-.723a7.447 7.447 0 0 1-.495-1.442c-.264-.952-.349-1.877-.378-2.777a20.78 20.78 0 0 1 .1-2.633c.202-1.719.559-3.348 1.117-4.967a1.01 1.01 0 0 1 1.962.35v.048c-.039 1.536-.027 3.111.143 4.602.076.746.178 1.48.34 2.173.165.69.36 1.358.615 1.923.122.292.25.568.416.782.08.113.142.244.225.34l.254.256c.294.315.617.446.93.583l.114.024.286.057c-.047-.08-.194-.086-.197-.09.055-.037.087-.03.16-.063.08-.047.15-.067.242-.115.373-.182.862-.578 1.34-.992.981-.848 1.952-1.97 2.861-3.147a69.827 69.827 0 0 0 2.658-3.71 108.783 108.783 0 0 0 2.515-3.916l1.219-1.996 1.153-1.997.057-.1zM53.863 89.467l-1.686-.798c-1.099-.593-2.182-1.235-3.186-2.015-.528-.353-.995-.789-1.469-1.218-.479-.424-.958-.851-1.364-1.354-.414-.491-.878-.95-1.248-1.48l-1.09-1.616c-.358-.543-.618-1.2-.925-1.804l-.436-.93c-.123-.298-.193-.56-.293-.843l-.555-1.666-.017-.053-.05-.199-.026-.127-.052-.256-.102-.511a6.07 6.07 0 0 1-.148-1.05 9.442 9.442 0 0 1 .563-4.456c.555-1.47 1.532-2.752 2.633-3.727 1.104-.992 2.327-1.692 3.547-2.256a22.745 22.745 0 0 1 3.703-1.32c2.477-.66 4.946-1.012 7.404-1.179.485-.032.969-.053 1.453-.073a46.012 46.012 0 0 1-1.492-2.213c-1.507-2.43-2.879-5.008-3.788-7.966-.444-1.481-.769-3.073-.776-4.803-.011-1.715.35-3.618 1.286-5.309.247-.442.587-.918.9-1.349l.331-.38.166-.192.083-.096.171-.186.076-.067c.414-.351.83-.723 1.286-1.004.464-.246.943-.54 1.422-.698 1.949-.712 3.781-.685 5.382-.489 1.607.219 3.08.618 4.49 1.083 1.387.494 2.742 1.025 4.025 1.637 2.596 1.185 5.013 2.586 7.365 4.052 2.354 1.466 4.623 3.024 6.85 4.631.265.194.522.397.786.591 0-.007-.002-.014-.003-.02-.103-.845-.205-1.686-.231-2.55-.064-.85-.024-1.732-.004-2.6.086-.884.148-1.76.357-2.653.078-.443.177-.885.335-1.327.158-.451.246-.863.471-1.34.221-.47.454-.938.694-1.394.232-.387.458-.66.692-.993a7.276 7.276 0 0 1 2.302-2.122 7.86 7.86 0 0 1 2.876-.996c1.962-.277 3.759.088 5.389.613 1.633.541 3.133 1.269 4.558 2.09a34.103 34.103 0 0 1 4.04 2.795 1.002 1.002 0 0 1-1.159 1.63l-.027-.018a32.008 32.008 0 0 0-4.032-2.112c-1.381-.61-2.794-1.124-4.199-1.43-1.396-.296-2.8-.419-3.956-.133a4.24 4.24 0 0 0-1.511.673 3.534 3.534 0 0 0-1.044 1.162c-.19.33-.438.692-.586.992a9.91 9.91 0 0 1-.277.76c-.106.24-.159.614-.246.91a4.994 4.994 0 0 0-.176.976c-.116.653-.111 1.356-.138 2.043.037.705.043 1.405.147 2.121.063.711.213 1.428.33 2.144a35.51 35.51 0 0 0 1.124 4.263c.228.681.495 1.427.745 2.008a2.487 2.487 0 0 1-3.79 2.964l-.107-.08a115.055 115.055 0 0 0-3.177-2.329l-3.254-2.269c-2.186-1.485-4.405-2.915-6.665-4.234-2.261-1.314-4.554-2.555-6.865-3.6-2.299-1.044-4.686-1.897-6.83-2.167-1.062-.134-2.009-.045-2.595.185-.164.045-.246.15-.386.194-.117.07-.186.178-.305.238l-.009.006-.008.009-.167.189-.335.378c-.052.135-.116.202-.2.344-.376.672-.574 1.49-.581 2.462-.009.966.179 2.05.5 3.148.65 2.209 1.786 4.457 3.101 6.606a53.746 53.746 0 0 0 2.1 3.192 48.755 48.755 0 0 0 2.307 2.995l.055.063a2.749 2.749 0 0 1-2.362 4.51 46.246 46.246 0 0 0-3.28-.18 53.593 53.593 0 0 0-3.339.03c-2.212.107-4.413.304-6.482.768-1.04.22-2.028.528-2.948.9-.919.373-1.769.824-2.43 1.375-1.324 1.101-2.024 2.435-1.94 4.281-.011.222.014.454.055.69l.047.354.023.177.01.089.003.022.001.01-.031-.117.011.046.454 1.697c.079.274.144.584.233.83l.289.669c.207.445.333.905.593 1.355l.772 1.363c.262.453.616.845.919 1.276.293.44.665.818 1.035 1.2.365.388.72.786 1.148 1.116.794.725 1.685 1.346 2.59 1.962l1.418.843 1.486.745c1.02.443 2.056.871 3.125 1.219 1.055.357 2.183.644 3.226.838l.069.013a1 1 0 0 1-.251 1.98 25.7 25.7 0 0 1-3.657-.513c-.602-.11-1.188-.283-1.784-.424l-1.757-.55-1.725-.671zm193.514 62.214c-.308.07-.614.141-.918.209-9.699 2.163-17.842 2.901-23.395 3.11a24.622 24.622 0 0 1-5.554-15.615c0-13.666 11.071-24.738 24.739-24.738 12.277 0 22.465 8.938 24.41 20.664-3.2 1.774-6.215 7.928-6.215 7.928s-3.522-6.261-9.783-3.724c-6.262 2.537-5.089 12.258-5.089 12.258a34.458 34.458 0 0 0 1.805-.092zm-18.21-42.835c-.047-.083-.097-.164-.12-.261-.1-.42.078-.842.412-1.073 0 0 .847-.583 2.378-1.337.772-.38 1.722-.821 2.847-1.241a32.457 32.457 0 0 1 3.846-1.234c1.433-.402 3.025-.7 4.73-.922a35.247 35.247 0 0 1 5.437-.29c1.899.087 3.878.247 5.854.701a29.41 29.41 0 0 1 5.854 1.865c.942.426 1.888.845 2.773 1.378.91.483 1.76 1.056 2.595 1.632 1.664 1.166 3.14 2.504 4.492 3.85 1.334 1.366 2.463 2.816 3.45 4.225.53.684.945 1.408 1.355 2.102.408.695.818 1.353 1.131 2.027.68 1.317 1.248 2.545 1.657 3.668.448 1.103.797 2.078 1.023 2.9.48 1.634.71 2.57.71 2.57a1.007 1.007 0 0 1-.73 1.218l-.008.004a1.009 1.009 0 0 1-1.083-.425l-.036-.053c0-.001-.52-.793-1.354-2.186-.388-.71-.967-1.51-1.568-2.451-.578-.955-1.356-1.944-2.138-3.046-.377-.564-.843-1.09-1.304-1.65-.473-.546-.904-1.157-1.44-1.699-.526-.548-1.019-1.157-1.602-1.693-.59-.526-1.15-1.107-1.76-1.645-1.229-1.065-2.552-2.09-3.985-2.972-.71-.453-1.425-.905-2.191-1.272-.738-.422-1.518-.76-2.296-1.102-.777-.347-1.592-.606-2.384-.908-.82-.229-1.618-.516-2.447-.69-1.633-.433-3.298-.666-4.917-.862a50.633 50.633 0 0 0-4.746-.25 65.203 65.203 0 0 0-4.327.196 68.363 68.363 0 0 0-6.535.902c-1.592.31-2.462.515-2.462.515l-.006.002a1.006 1.006 0 0 1-1.105-.493zm-63.677 49.49c-5.46.506-13.491.827-23.21-.016-.015-2.966-.674-8.506-5.176-10.33-6.261-2.538-9.784 3.723-9.784 3.723s-3.907-7.978-7.548-8.376c.917-11.388 9.674-20.98 21.458-22.523 13.552-1.774 25.967 7.767 27.74 21.32a24.622 24.622 0 0 1-3.48 16.203zm-58.487-16.938a.99.99 0 0 1-.32-.082 1.013 1.013 0 0 1-.564-1.021s.107-.958.372-2.64c.116-.844.337-1.857.637-3.01.26-1.165.664-2.456 1.167-3.851.223-.709.544-1.415.858-2.157.316-.741.635-1.512 1.07-2.26.797-1.524 1.73-3.11 2.873-4.637 1.166-1.51 2.457-3.029 3.954-4.4.754-.679 1.522-1.357 2.362-1.956.808-.642 1.691-1.18 2.57-1.727a29.454 29.454 0 0 1 5.563-2.607c1.9-.706 3.843-1.121 5.713-1.455a35.072 35.072 0 0 1 5.428-.416c1.72-.005 3.337.086 4.81.3 1.477.17 2.81.438 3.976.722a30.83 30.83 0 0 1 2.982.86c1.617.55 2.532 1.018 2.532 1.018.473.242.662.803.464 1.286-.01.028-.01.057-.023.083-.196.384-.603.59-1.008.548h-.01s-.888-.093-2.506-.192a68.458 68.458 0 0 0-6.598-.046c-1.35.064-2.8.193-4.314.367a50.624 50.624 0 0 0-4.674.863c-1.581.406-3.201.852-4.764 1.493-.798.28-1.553.669-2.336 1.002-.747.403-1.521.765-2.246 1.21-.728.44-1.458.878-2.134 1.391-.711.464-1.363 1.006-2.008 1.545-1.306 1.063-2.485 2.249-3.566 3.466-.536.61-1.014 1.26-1.532 1.858-.507.608-.917 1.275-1.367 1.887-.46.608-.81 1.268-1.208 1.871-.384.614-.779 1.197-1.079 1.805-.632 1.195-1.274 2.276-1.723 3.299-.475 1.01-.946 1.878-1.237 2.633a67.957 67.957 0 0 1-1.06 2.342l-.027.057c-.192.4-.611.6-1.027.551zm67.224 20.577a1.06 1.06 0 0 1 .26-.827s.365-.409 1.037-.974c.68-.573 1.701-1.32 3.034-2.051.67-.354 1.413-.716 2.23-1.037a21.7 21.7 0 0 1 2.648-.848c1.89-.452 4.019-.685 6.184-.486 1.08.105 2.164.284 3.208.6 1.044.3 2.041.724 2.96 1.205a15.323 15.323 0 0 1 2.46 1.674c.349.317.686.622.993.935.297.322.567.646.828.95.515.609.9 1.236 1.225 1.78.309.557.562 1.046.728 1.466.33.842.472 1.33.472 1.33a1.04 1.04 0 0 1-1.601 1.14l-.085-.06s-.392-.282-.996-.785c-.29-.262-.712-.509-1.112-.844-.425-.312-.926-.627-1.441-.965l-.827-.487c-.302-.136-.595-.295-.894-.455-.316-.133-.634-.27-.95-.42l-1.003-.369c-.695-.206-1.4-.423-2.151-.55-.737-.164-1.517-.235-2.297-.309-3.14-.229-6.527.213-9.166.606l-3.248.508a26.2 26.2 0 0 1-1.257.192l-.065.007a1.056 1.056 0 0 1-1.174-.926zm63.518-78 6.776-4.794s4.868 9.686 13.38 6.75l-3.132 8.806s-15.263-2.544-17.024-10.762zm-110.334 18.54-3.131-8.805c8.512 2.935 13.38-6.751 13.38-6.751l6.776 4.794c-1.762 8.219-17.025 10.763-17.025 10.763zm216.416-52.142-.01-.088.011.097v-.009zM61.676 42.059a.736.736 0 0 1-.004.004l.004-.004z" style="fill:#21234b"/><path d="m224.783 421.19.364-.102 2.97 14.821-3.404-13.045v-1.655l.07-.02zm48.212-82.2c1.572 4.08 3.003 9.252 3.444 15.234-5.205-.825-8.493-1.094-8.493-1.094-35.909 15.935-42.332 58.167-43.135 64.883-.383.206-.748.403-1.078.583-1.71.931-2.669 1.51-2.669 1.51-.364.22-.565.657-.464 1.095.023.1.073.185.122.27l-12.71 1.393 3.975 18.251c-5.395.309-11.035.303-16.919-.14-1.58-.118-3.121-.258-4.626-.418l-1.013-1.519-1.346 1.118-22.525-32.494s-17.095-31.978-37.466-50.127c-.052-2.848-.004-6.24.241-10.088a10.49 10.49 0 0 1-2.008-.623c-11.523-4.832 4.694-26.8 4.694-26.8s-12.726 5.798-18.22-2.504c-5.492-8.303 18.22-22.214 18.22-22.214s-16.388 8.544-21.88-1.413a6.802 6.802 0 0 1-.856-3.616c.35-9.051 17.64-18.47 17.64-18.47s-13.123-10.374-6.714-14.56c6.402-4.181 38.369 3.664 38.427 3.678-6.195.724-11.205 2.76-11.205 2.76s-1.945 10.18-1.826 23.223l-.232.223-.474.482a1.004 1.004 0 0 0-.05 1.35.98.98 0 0 0 .8.334c.722 25.111 9.6 58.785 53.292 52.495 56.76-8.17 31.651-80.584 31.651-80.584l-1.21-.042c3.376-2.125 8.666-5.103 13.807-6.584 1.818-.523 3.616-.861 5.304-.903 2.637-.066 5.005.579 6.752 2.342 3.917 3.95 2.425 8.992-.152 13.143-2.742 4.421-6.715 7.832-6.715 7.832s19.836-.611 20.446 8.544c.611 9.155-19.225 14.257-19.225 14.257s21.666 14.429 16.784 23.28c-1.998 3.62-5.374 4.736-8.668 4.792 7.032 1.961 15.576 5.418 16.25 10.746.016.123.023.25.03.374zm-34.96 23.603c.741-.906 1.514-1.757 2.234-2.63.747-.845 1.525-1.627 2.26-2.417 1.539-1.497 2.987-2.941 4.445-4.142l1.049-.91 1.044-.816 1.934-1.518c1.278-.86 2.355-1.692 3.291-2.3a174.869 174.869 0 0 0 2.969-1.91l.054-.037a1.002 1.002 0 0 0-.898-1.778s-1.242.453-3.422 1.308c-1.072.461-2.347 1.083-3.815 1.809l-2.264 1.289c-.397.232-.806.47-1.223.715l-1.226.832a53.576 53.576 0 0 0-5.219 3.93c-.86.779-1.77 1.556-2.652 2.399-.859.864-1.767 1.73-2.609 2.677-1.686 1.893-3.375 3.905-4.915 6.077-.765 1.089-1.525 2.194-2.22 3.345-.735 1.127-1.404 2.298-2.067 3.472-1.341 2.341-2.451 4.798-3.506 7.219a72.647 72.647 0 0 0-2.665 7.272c-.397 1.19-.706 2.383-1.051 3.538-.281 1.173-.578 2.312-.814 3.433a74.247 74.247 0 0 0-1.157 6.341 72.156 72.156 0 0 0-.758 9.594c-.017 1.164.024 2.08.053 2.709l.039.742.02.241a1.007 1.007 0 0 0 1.997.07l.004-.026.036-.237c.026-.146.066-.364.119-.646l.513-2.557c.464-2.201 1.185-5.33 2.174-9.029.525-1.843 1.087-3.836 1.747-5.918.674-2.08 1.417-4.255 2.243-6.478.416-1.11.853-2.232 1.336-3.352.454-1.128.949-2.254 1.443-3.392.505-1.13 1.052-2.253 1.6-3.377.597-1.099 1.127-2.241 1.745-3.33.599-1.1 1.2-2.2 1.865-3.256.627-1.08 1.314-2.112 2.003-3.131a72.026 72.026 0 0 1 4.264-5.825z" style="fill:#61a995"/><path d="M34.02 269.807a58.415 58.415 0 0 1 3.937 1.932c.068.036.137.07.204.106.058.032.115.066.174.098 1.286.711 2.568 1.445 3.81 2.253 1.297.847 2.586 1.73 3.81 2.74 1.217 1.024 2.415 2.103 3.442 3.568.494.741.978 1.605 1.127 2.79.07.587.011 1.263-.228 1.882a4.348 4.348 0 0 1-.455.856 7.987 7.987 0 0 1-.334.419l-.195.207-.122.115-.066.059-.135.119-.271.235c-.186.153-.392.29-.59.432a7.382 7.382 0 0 1-1.326.686c-.942.368-1.965.495-2.925.448-.112-.006-.214-.033-.324-.043.187.347.366.705.523 1.083.248.61.458 1.264.568 1.978.11.712.094 1.51-.13 2.282-.039.184-.131.405-.228.616l-.147.31-.115.178-.114.178-.029.044-.06.096-.011.014-.021.026-.086.108c-.118.14-.223.289-.354.417a5.686 5.686 0 0 1-1.739 1.267c-1.276.609-2.603.737-3.834.696-1.16-.045-2.267-.248-3.337-.536a14.919 14.919 0 0 1 1.616 2.702c.551 1.232.913 2.777.58 4.386a5.531 5.531 0 0 1-.381 1.168l-.15.31-.108.185-.054.091c-.088.146-.068.102-.107.162l-.152.216a7.043 7.043 0 0 1-1.454 1.536c-1.111.897-2.468 1.321-3.65 1.418-1.198.122-2.265-.038-3.194-.26-.118-.029-.217-.068-.331-.098.015.022.033.043.048.066.676 1.052 1.35 2.253 1.534 3.81.106.767.017 1.611-.241 2.394-.057.198-.175.426-.271.632-.097.195-.231.464-.295.536l-.235.34-.06.086-.015.022c-.165.226-.053.07-.093.124l-.014.016-.053.06-.217.235a4.928 4.928 0 0 1-2.084 1.282c-.742.23-1.438.27-2.086.268-1.297-.02-2.4-.31-3.393-.645a17.488 17.488 0 0 1-2.654-1.128 24.622 24.622 0 0 1-3.565-2.217c-.806-.603-1.24-1-1.24-1a.612.612 0 0 1-.038-.864.62.62 0 0 1 .677-.153l1.414.548c.902.344 2.194.823 3.727 1.309.77.227 1.6.46 2.46.637.859.16 1.762.28 2.565.235.827-.047 1.406-.303 1.71-.65l.062-.07.014-.022.228-.347c.109-.148.06-.148.085-.202.01-.05.039-.065.052-.135.066-.28.109-.567.075-.912-.04-.684-.428-1.534-.924-2.325a15.663 15.663 0 0 0-1.752-2.329c-.661-.723-1.306-1.447-1.982-2.083l-.248-.24c-.023-.025-.12-.115-.083-.086l-.133-.116-.513-.462-.97-.883c-.628-.555-1.175-1.118-1.691-1.521-.513-.422-.946-.816-1.311-1.132-.722-.644-1.13-1.03-1.13-1.03l-.025-.025a.605.605 0 0 1 .67-.99s.517.24 1.418.688c.883.46 2.224 1.1 3.598 2.04l1.1.717.577.38.145.1.187.142.294.227c.634.485 1.29 1.03 1.937 1.622.909.245 2.106.523 3.476.628.773.042 1.595.025 2.36-.143.77-.173 1.45-.506 1.996-1.005.535-.48 1.036-1.317 1.106-1.84.127-.633-.05-1.445-.417-2.305-.36-.863-.915-1.74-1.542-2.565a27.486 27.486 0 0 0-2-2.393c-.71-.743-1.4-1.48-2.098-2.139-.699-.657-1.36-1.29-1.991-1.851a94.203 94.203 0 0 0-3.112-2.672c-.767-.632-1.211-.96-1.211-.96a.606.606 0 0 1 .551-1.066s.586.189 1.53.624a31.639 31.639 0 0 1 3.753 2.078c.745.48 1.551 1.012 2.36 1.638.809.623 1.67 1.287 2.49 2.067.35.329.701.672 1.05 1.028.654.145 1.314.272 1.967.367 1.072.143 2.141.208 3.161.137 1.015-.082 1.976-.324 2.71-.758.367-.219.672-.486.91-.803.067-.073.111-.167.17-.246l.023-.035.012-.024.095-.188.096-.189.009-.084c.007-.05.027-.088.036-.184.14-.625-.083-1.466-.506-2.303-.433-.837-1.028-1.673-1.685-2.476a26.615 26.615 0 0 0-2.184-2.306l-.389-.356c-.1-.076-.204-.147-.303-.224a19.525 19.525 0 0 1-1.885-1.686l-.005-.006a1.728 1.728 0 0 1 2.325-2.551c.498.404.922.777 1.365 1.18.053.047.103.1.155.149.065.05.128.107.192.156.547.422 1.12.799 1.695 1.143 1.146.688 2.37 1.163 3.476 1.233.553.033 1.071-.026 1.549-.205.24-.09.476-.195.706-.331.11-.078.229-.143.34-.227l.163-.133.083-.064.042-.033.02-.016.005-.004c-.008.009-.024.025-.054.053l.013-.01.203-.201c.01-.02.007-.021.02-.027.035-.046.067-.098.092-.14a.72.72 0 0 0 .058-.355c-.009-.335-.219-.874-.543-1.4-.642-1.08-1.635-2.15-2.679-3.142a48.625 48.625 0 0 0-3.347-2.888 94.626 94.626 0 0 0-3.585-2.712 154.559 154.559 0 0 0-3.696-2.605l-.009-.005a.603.603 0 0 1 .584-1.05zm12.945 14.482c-.005.005-.008.008 0 0zm0 0c.006-.006.014-.015 0 0zm1.262-110.162c.386-.193.771-.384 1.187-.538 1.637-.646 3.466-1.062 5.358-1.3a38.2 38.2 0 0 1 2.873-.248c.483-.024.967-.033 1.447-.033.464-.01.997-.003 1.364.014l.119.007a2.89 2.89 0 0 0 2.675-1.533c.062-.743.127-1.487.205-2.234a2.939 2.939 0 0 0-.154-.412c-1.489-3.032-3.069-6.02-4.789-8.94-.43-.731-.865-1.458-1.323-2.176-.457-.716-.886-1.448-1.368-2.153-.945-1.42-1.903-2.835-2.983-4.19a1.027 1.027 0 0 0-1.806.863c.375 1.691.872 3.326 1.382 4.954.245.817.544 1.61.814 2.417.27.807.563 1.602.86 2.396a122.873 122.873 0 0 0 2.135 5.28 29.72 29.72 0 0 0-2.347.318c-2.291.419-4.609 1.123-6.77 2.376-.54.308-1.062.669-1.573 1.04-.506.388-.995.802-1.455 1.262-.444.475-.873.967-1.234 1.516-.384.525-.69 1.114-.969 1.695a9.868 9.868 0 0 0-.61 1.827c-.125.619-.257 1.235-.262 1.85a11.07 11.07 0 0 0 .054 1.804c.052.591.2 1.16.321 1.72a1.005 1.005 0 0 0 1.957.025l.04-.164c.12-.498.152-.992.3-1.459.106-.47.236-.925.412-1.351.148-.435.35-.835.55-1.22l.332-.554c.127-.174.264-.336.379-.508.261-.327.52-.646.837-.917.29-.288.635-.528.97-.768.337-.244.698-.461 1.072-.666zm280.881-12.402.106-.004c.368-.014.9-.019 1.364-.006.48.003.965.015 1.448.042.963.06 1.925.138 2.87.268 1.891.251 3.717.68 5.35 1.337.415.159.798.35 1.184.546.37.207.731.428 1.066.673.333.243.679.486.966.777.315.273.571.593.831.921.113.173.248.337.374.51l.33.557c.196.387.397.789.54 1.224.174.428.301.883.405 1.356.142.467.171.96.29 1.46l.039.165a1.003 1.003 0 0 0 1.956-.014c.125-.56.277-1.126.333-1.717.065-.59.097-1.19.067-1.804-.002-.615-.13-1.232-.252-1.85-.145-.62-.326-1.24-.597-1.832-.274-.584-.577-1.175-.956-1.703-.358-.552-.783-1.047-1.224-1.524-.457-.463-.944-.88-1.448-1.273a17.026 17.026 0 0 0-1.566-1.049c-2.152-1.27-4.464-1.988-6.752-2.423a29.718 29.718 0 0 0-2.346-.334c.758-1.737 1.49-3.487 2.17-5.264.304-.791.6-1.586.876-2.39s.58-1.596.831-2.413c.522-1.624 1.03-3.254 1.416-4.944a1.027 1.027 0 0 0-1.8-.874c-1.088 1.347-2.056 2.756-3.01 4.168-.488.703-.921 1.431-1.384 2.144a69.943 69.943 0 0 0-1.337 2.167c-1.74 2.91-3.34 5.887-4.852 8.907a2.901 2.901 0 0 0 2.712 4.196zm-218.472 23.76c11.93-2.168 19.862-12.333 17.718-22.703a17.16 17.16 0 0 0-2.198-5.514c-5.259-1.551-10.236-3.414-13.802-4.847a141.476 141.476 0 0 1-5.432-1.8c-.016-.2-.023-.405-.036-.606a4.26 4.26 0 0 1-.59-2.447c-1.132.05-2.271.153-3.42.362-11.929 2.166-19.861 12.33-17.718 22.7 2.143 10.375 13.551 17.022 25.478 14.855zm135.822-33.595c-1.543 2.881-2.243 6.095-1.808 9.384 1.281 9.688 11.747 16.288 23.374 14.744 11.628-1.543 20.017-10.647 18.734-20.33-.72-5.448-4.347-9.92-9.45-12.517-6.275 2.607-19.758 7.76-29.931 8.51-.308.07-.614.141-.919.209zm-56.365-19.385c-9.694 2.487-9.704 9.915-9.704 9.915l28.004 3s0-17.611-18.3-12.915zm-2.01 307.651-33.889 28.166v.001c-.008.014-9.652 16.187 1.635 21.678l44.19-35.095-9.577-14.35-1.013-1.518-1.346 1.118zm40.034-4.247-3.404-13.045v-1.655l.07-.02.364-.101a168.062 168.062 0 0 0 7.348-2.217c1.587-.497 3.295-1.07 5.091-1.698a170.202 170.202 0 0 0 5.637-2.008c1.948-.713 3.961-1.45 5.988-2.246 2.03-.792 4.09-1.599 6.129-2.452l6.095-2.536 5.858-2.567c1.905-.82 3.712-1.7 5.443-2.489 1.734-.784 3.344-1.595 4.842-2.316a209.206 209.206 0 0 0 7.167-3.662c1.715-.92 2.68-1.485 2.68-1.485a1.012 1.012 0 0 0-.75-1.855s-1.086.265-2.958.797a210.225 210.225 0 0 0-7.698 2.352c-1.579.524-3.3 1.06-5.09 1.703-1.792.638-3.702 1.26-5.643 1.996l-5.994 2.23c-2.025.798-4.085 1.607-6.144 2.416-2.06.806-4.1 1.659-6.108 2.5-2.011.837-3.97 1.708-5.866 2.55a173.68 173.68 0 0 0-5.447 2.477 164.952 164.952 0 0 0-4.84 2.321 168.163 168.163 0 0 0-7.154 3.697c-1.71.931-2.668 1.51-2.668 1.51-.365.22-.566.657-.465 1.095.023.1.073.185.122.27l-12.71 1.393 3.975 18.251 9.452 43.393c13.116-.61 14.957-16.848 14.958-16.863v-.001l-8.28-31.735zM144.65 289.297a.98.98 0 0 1-.8-.335 1.004 1.004 0 0 1 .05-1.35s.16-.165.473-.481c.069-.067.148-.144.232-.223.303-.286.7-.647 1.204-1.078 1.302-1.066 3.275-2.63 6.308-3.873 1.533-.558 3.322-1.112 5.414-1.121 2.078-.008 4.381.545 6.491 1.766l1.5 1.051.19.135.096.07.047.034c.045.038-.032-.04.113.094l.305.278.217.197c.044-.03.084-.063.13-.092 1.64-1.058 3.611-1.81 5.67-2.022 2.059-.226 4.132.083 6.007.706l1.373.527c.45.188.865.419 1.3.631l.322.163.161.083.08.04.145.085.535.32c.368.229.692.399 1.096.675 1.659 1.073 3.04 2.229 4.402 3.56.782.77 1.514 1.6 2.2 2.47.746-.683 1.52-1.34 2.338-1.954 1.498-1.104 3.127-2.077 4.913-2.803.89-.363 1.82-.667 2.785-.874.472-.127.972-.182 1.464-.248l.37-.05.273-.028.152-.007.61-.03c3.04-.156 6.12.352 8.896 1.532.37-.39.758-.748 1.157-1.072 1.601-1.315 3.332-2.08 4.89-2.587 3.165-.958 5.7-.863 7.377-.84 1.672.138 2.563.21 2.563.21a.998.998 0 0 1-.077 1.994h-.088l-2.408-.002c-1.55.083-3.863.264-6.473 1.217-1.282.506-2.632 1.213-3.8 2.3-.098.09-.185.199-.28.294 2.646 1.726 4.816 4.102 6.125 6.927.74 1.612 1.238 3.366 1.251 5.215.051 1.833-.46 3.77-1.53 5.358-.55.775-1.192 1.487-1.932 2.017-.357.293-.74.514-1.124.732l-.143.083-.073.041c-.136.064.205-.085-.323.153l-.24.086-.24.085c-.078.027-.129.055-.367.103a6.52 6.52 0 0 1-1.185.135c-.339-.02-.631-.081-.943-.143-.321-.05-.558-.18-.825-.29-.258-.116-.526-.235-.718-.385l-.615-.443c-.182-.153-.336-.315-.501-.475-.346-.32-.574-.657-.836-.989-.962-1.342-1.504-2.712-1.904-4.063a17.705 17.705 0 0 1-.672-4.01c-.113-2.558.242-5.02 1.118-7.183-1.814-.566-3.785-.789-5.778-.659l-.608.04-.152.011c.158-.012.01.002.03.003l-.059.01-.235.039c-.314.052-.629.08-.944.18a11.24 11.24 0 0 0-1.897.637c-1.26.541-2.495 1.298-3.668 2.198-.93.721-1.807 1.55-2.65 2.423 1.177 2.484 1.969 5.187 2.185 8.046.122 2.019.006 4.117-.697 6.248-.33 1.062-.88 2.13-1.616 3.13-.732.995-1.76 1.928-3.013 2.523-1.242.609-2.639.851-3.925.804l-.937-.096-.234-.03c-.64-.14-.222-.052-.385-.088l-.078-.022-.313-.088-.156-.043-.081-.024-.189-.075a7.802 7.802 0 0 1-.742-.352c-.526-.265-.84-.562-1.175-.876-.655-.626-1.107-1.412-1.366-2.117-.164-.378-.23-.707-.305-1.048a5.144 5.144 0 0 1-.147-.983c-.119-1.274.027-2.354.22-3.384.861-4.048 2.643-7.313 4.699-10.382.407-.588.844-1.155 1.281-1.718-1.53-2.195-3.588-4.094-5.68-5.554-.277-.208-.685-.44-1.02-.658l-.528-.331-.397-.207c-.31-.155-.613-.343-.923-.478l-.932-.381c-1.243-.435-2.475-.63-3.649-.528-.963.065-1.89.358-2.765.808.17.264.334.533.47.831l.484.95c.15.324.255.683.383 1.028.516 1.382.733 2.977.61 4.602-.204 3.288-2.343 6.595-5.555 8.226l-1.245.52c-.42.167-.868.246-1.308.365l-.332.08-.083.02-.378.036-.134.007-.268.015c-.059 0-.058.008-.165.002a4.88 4.88 0 0 1-.406-.04c-.543-.079-1.122-.248-1.464-.488-.407-.232-.763-.51-1.01-.82-1.066-1.274-1.203-2.439-1.34-3.43a12.719 12.719 0 0 1 .101-2.774c.523-3.48 1.907-6.64 4.08-9.536.361-.464.76-.911 1.174-1.35l-.211-.22s-.002-.002-.001 0l-.034-.028-.07-.055-.137-.108-1.076-.873c-1.5-.988-3.106-1.5-4.68-1.61-1.58-.106-3.081.246-4.41.63a23.757 23.757 0 0 0-5.896 3.016c-.634.453-1.106.818-1.414 1.07l-.455.386-.037.032a.983.983 0 0 1-.61.222zm70.162 15.999.028-.012a.165.165 0 0 0-.145.04c-.068.05.037.006.117-.028zm1.544-7.621c-.915-1.838-2.467-3.461-4.344-4.637-.509 1.643-.657 3.523-.454 5.453.112 1.046.366 2.099.7 3.122.341 1.014.822 2.016 1.418 2.758.152.167.295.374.449.483.076.063.148.142.22.199.07.035.137.075.2.12.067.063.117.053.163.071.043.009.096.065.115.034.01-.007.024-.005.035 0l.19-.079.033-.014.027-.017.075-.05c.201-.132.41-.256.576-.416.373-.284.64-.645.89-1.015.941-1.5.811-3.875-.293-6.012zm-30.85 13.65.038.01c-.018-.012-.024-.013-.05-.034a.36.36 0 0 0-.173-.043l-.046.002.075.022.156.042zm3.797-6.388a15.763 15.763 0 0 0-.536-3.107c-1.452 2.322-2.64 4.883-3.112 7.27-.125.66-.185 1.315-.126 1.762.02.254.07.413.103.497l.095.026.03.002c.12.008.237.021.354.039.444-.002.792-.075 1.108-.228.624-.264 1.25-1.113 1.642-2.273.4-1.156.52-2.573.442-3.988zm-26.5-4.43a.658.658 0 0 0-.338.002c-.02.011.072.002.102.003l.236-.004zm4.949-4.948c.217-1.466-.163-3.001-.848-4.413-1.814 2.077-3.117 4.806-3.578 7.323a8.015 8.015 0 0 0-.134 1.643c.003.112.016.216.033.308.163-.03.326-.06.48-.12l.711-.263c1.83-.856 3.12-2.565 3.336-4.478z" style="fill:#fa8385"/><path d="M215.455 147.122c-4.19-14.124 1.284-30.588 13.712-38.276.218.38.655.6 1.104.493l.007-.002s.87-.206 2.462-.516a68.433 68.433 0 0 1 6.535-.901 65.2 65.2 0 0 1 4.326-.196c1.525.006 3.12.09 4.747.25 1.619.196 3.284.428 4.917.86.829.176 1.627.463 2.447.691.792.303 1.607.562 2.384.908.778.342 1.558.681 2.296 1.103.766.367 1.481.818 2.191 1.272 1.433.882 2.756 1.907 3.985 2.972.61.537 1.17 1.118 1.76 1.645.583.536 1.076 1.144 1.602 1.693.536.542.967 1.152 1.44 1.7.461.558.927 1.085 1.304 1.649.782 1.101 1.56 2.09 2.138 3.046.601.94 1.18 1.74 1.568 2.45.833 1.393 1.353 2.185 1.353 2.186l.037.054c.227.347.658.53 1.083.425l.007-.004c.074.314.154.627.22.941.304 1.452.538 2.91.716 4.356 3.07 2.913.999 5.747.999 5.747s-1.312.598-3.487 1.503c-6.275 2.607-19.758 7.76-29.931 8.51a34.24 34.24 0 0 1-1.805.091s-1.173-9.72 5.09-12.257c6.26-2.537 9.782 3.724 9.782 3.724s3.014-6.154 6.214-7.928c-1.944-11.726-12.133-20.665-24.41-20.665-13.667 0-24.738 11.073-24.738 24.739 0 5.918 2.079 11.353 5.554 15.615a82.789 82.789 0 0 1-4.286.083c-1.374-2.677-2.56-5.4-3.323-7.96zm-108.57 2.893c.014.2.021.406.037.605a141.65 141.65 0 0 0 5.432 1.8c3.566 1.434 8.543 3.297 13.802 4.848 5.465 1.61 11.232 2.884 16.036 2.98 0 0 .093-.767.087-1.928-.014-2.966-.673-8.506-5.175-10.33-6.261-2.538-9.784 3.723-9.784 3.723s-3.907-7.978-7.548-8.376c.917-11.388 9.674-20.98 21.458-22.523 13.552-1.774 25.967 7.767 27.74 21.32a24.623 24.623 0 0 1-3.48 16.203 83.527 83.527 0 0 0 4.26-.475c1.015-2.832 1.837-5.686 2.262-8.324 2.32-14.548-5.242-30.161-18.562-36.173-.01.027-.01.057-.023.083-.196.384-.603.59-1.008.548h-.01s-.888-.093-2.506-.192a68.458 68.458 0 0 0-6.598-.046c-1.35.064-2.8.193-4.314.367a50.624 50.624 0 0 0-4.674.863c-1.581.405-3.201.852-4.764 1.492-.798.282-1.553.67-2.336 1.002-.747.404-1.521.766-2.246 1.211-.728.44-1.458.878-2.134 1.39-.711.465-1.363 1.007-2.008 1.546-1.306 1.062-2.485 2.249-3.566 3.466-.536.61-1.014 1.26-1.532 1.858-.507.607-.917 1.274-1.367 1.887-.46.608-.81 1.268-1.208 1.87-.384.615-.779 1.198-1.079 1.805-.632 1.196-1.274 2.277-1.723 3.3-.475 1.009-.946 1.878-1.237 2.633a67.957 67.957 0 0 1-1.06 2.342l-.027.056c-.192.4-.611.601-1.027.552-.032.324-.072.649-.097.972a52.33 52.33 0 0 0-.14 3.564 4.122 4.122 0 0 0-.47 1.634 4.26 4.26 0 0 0 .59 2.447zm81.882 151.815c-1.452 2.322-2.64 4.883-3.112 7.27-.125.66-.185 1.315-.126 1.762.02.254.07.413.103.497l.095.026.03.002c.12.008.237.021.354.039.444-.002.792-.075 1.108-.228.624-.264 1.25-1.113 1.642-2.273.4-1.156.52-2.573.442-3.988a15.756 15.756 0 0 0-.536-3.107zm-3.274 9.47a.36.36 0 0 0-.172-.042l-.046.002.075.022.156.042.038.011c-.018-.012-.024-.013-.05-.034zm26.519-18.262c-.509 1.643-.657 3.523-.454 5.453.112 1.046.366 2.099.7 3.122.341 1.014.822 2.016 1.418 2.758.152.167.295.374.449.483.076.063.148.142.22.199.07.035.137.075.2.12.067.063.117.053.162.071.044.009.097.065.116.034.01-.007.024-.005.035 0l.19-.079.033-.014.027-.017.075-.05c.201-.132.41-.256.576-.416.373-.284.64-.645.89-1.015.941-1.5.811-3.876-.293-6.012-.915-1.838-2.467-3.461-4.344-4.637zm2.683 12.286c-.068.05.037.006.117-.028l.028-.012a.165.165 0 0 0-.145.04zm-47.79-14.178c-1.815 2.077-3.118 4.806-3.579 7.323a8.015 8.015 0 0 0-.134 1.643c.003.112.016.216.033.308.163-.03.326-.06.48-.12l.711-.263c1.83-.856 3.12-2.565 3.336-4.478.217-1.466-.163-3.001-.848-4.413zm-22.3-4.238c.303-.286.7-.647 1.204-1.078 1.302-1.066 3.275-2.63 6.308-3.873 1.533-.558 3.322-1.112 5.414-1.121 2.078-.008 4.381.545 6.492 1.766l1.5 1.051.19.135.095.07.048.034c.044.038-.033-.04.112.094l.305.278.217.197c.044-.03.084-.063.13-.092 1.64-1.058 3.612-1.81 5.67-2.022 2.059-.226 4.132.083 6.007.706l1.373.527c.45.188.865.419 1.3.631l.322.163.161.083.08.04.145.085.535.32c.368.229.692.399 1.096.675 1.659 1.073 3.04 2.229 4.402 3.56.782.77 1.514 1.6 2.2 2.47.746-.683 1.52-1.34 2.338-1.954 1.498-1.104 3.127-2.077 4.913-2.803.89-.363 1.82-.667 2.785-.874.472-.127.972-.182 1.464-.248l.37-.05.273-.028.153-.007.608-.03c3.041-.156 6.122.352 8.897 1.532.37-.39.758-.748 1.157-1.072 1.601-1.315 3.332-2.08 4.89-2.587 3.165-.958 5.7-.863 7.377-.84 1.672.138 2.563.21 2.563.21a.998.998 0 0 1-.077 1.994h-.088l-2.408-.002c-1.55.083-3.863.264-6.473 1.217-1.282.506-2.632 1.213-3.8 2.3-.098.09-.185.199-.28.294 2.646 1.726 4.816 4.102 6.125 6.927.74 1.612 1.238 3.366 1.251 5.215.051 1.833-.46 3.77-1.53 5.358-.55.775-1.192 1.487-1.932 2.017-.356.293-.74.514-1.124.732l-.143.083-.072.041c-.137.064.204-.085-.324.153l-.24.086-.24.085c-.078.027-.128.055-.367.103a6.52 6.52 0 0 1-1.185.135c-.339-.02-.631-.081-.943-.143-.321-.05-.558-.18-.825-.29-.258-.116-.526-.235-.718-.385l-.615-.443c-.182-.153-.336-.315-.5-.475-.347-.32-.575-.657-.837-.989-.962-1.342-1.504-2.712-1.904-4.063a17.705 17.705 0 0 1-.672-4.01c-.113-2.558.242-5.02 1.118-7.183-1.814-.566-3.785-.789-5.778-.659l-.607.04-.153.011c.158-.012.01.002.03.003l-.059.01-.235.039c-.314.052-.629.08-.944.18a11.24 11.24 0 0 0-1.897.637c-1.26.541-2.495 1.298-3.668 2.198-.93.721-1.807 1.55-2.65 2.423 1.177 2.484 1.969 5.187 2.185 8.046.122 2.019.006 4.117-.697 6.248-.33 1.062-.88 2.13-1.616 3.13-.732.995-1.76 1.928-3.013 2.523-1.242.609-2.639.851-3.925.804l-.937-.096-.234-.03c-.64-.14-.222-.052-.385-.088l-.078-.022-.313-.088-.156-.043-.081-.024-.189-.075a7.802 7.802 0 0 1-.742-.352c-.526-.265-.84-.562-1.175-.876-.655-.626-1.107-1.412-1.366-2.117-.164-.378-.23-.707-.305-1.048a5.144 5.144 0 0 1-.147-.983c-.119-1.274.027-2.354.22-3.384.861-4.048 2.643-7.313 4.699-10.382.408-.588.844-1.155 1.282-1.718-1.53-2.195-3.589-4.094-5.68-5.554-.277-.208-.686-.44-1.021-.658l-.528-.331-.397-.207c-.309-.155-.613-.343-.923-.478l-.932-.381c-1.243-.435-2.475-.63-3.649-.528-.963.065-1.89.358-2.765.808.17.264.334.533.47.831l.484.95c.15.324.255.683.383 1.028.516 1.382.733 2.977.61 4.602-.204 3.288-2.343 6.595-5.555 8.226l-1.245.52c-.42.167-.868.246-1.307.365l-.333.08-.083.02-.378.036-.134.007-.268.015c-.059 0-.058.008-.165.002a4.88 4.88 0 0 1-.406-.04c-.543-.079-1.122-.248-1.464-.488-.407-.232-.763-.51-1.01-.82-1.066-1.274-1.203-2.439-1.339-3.43a12.719 12.719 0 0 1 .1-2.774c.523-3.48 1.907-6.64 4.08-9.536.361-.464.76-.911 1.174-1.35l-.21-.22s-.002-.002-.002 0l-.034-.028-.07-.055-.137-.108-1.076-.873c-1.5-.988-3.106-1.5-4.68-1.61-1.58-.106-3.081.246-4.41.63a23.757 23.757 0 0 0-5.896 3.016c-.633.453-1.106.818-1.414 1.07l-.455.386-.037.032a.981.981 0 0 1-.61.222c.721 25.111 9.6 58.785 53.292 52.495 56.76-8.17 31.651-80.584 31.651-80.584l-1.21-.042-14.008-.49c-.114.033-.228.06-.342.092-25.165 6.921-47.784.262-47.784.262a23.935 23.935 0 0 0-1.319-.181c-2.464-.28-4.962-.197-7.293.076-6.195.723-11.205 2.76-11.205 2.76s-1.946 10.18-1.826 23.223zm18.004 13.578a.658.658 0 0 0-.144.024c-.02.01.072 0 .102.002l.236-.004a.497.497 0 0 0-.194-.022zm77.66 59.477c.747-.845 1.525-1.627 2.26-2.417 1.539-1.497 2.987-2.941 4.445-4.142l1.049-.91 1.044-.816 1.934-1.518c1.278-.86 2.355-1.692 3.291-2.3a174.869 174.869 0 0 0 2.969-1.91l.054-.037a1.002 1.002 0 0 0-.898-1.778s-1.242.453-3.422 1.308c-1.072.461-2.347 1.083-3.815 1.809l-2.264 1.289c-.397.232-.806.47-1.223.715l-1.226.832a53.576 53.576 0 0 0-5.219 3.93c-.86.779-1.77 1.556-2.652 2.399-.859.864-1.767 1.73-2.609 2.677-1.686 1.893-3.375 3.905-4.915 6.077-.765 1.089-1.525 2.194-2.22 3.345-.735 1.127-1.404 2.298-2.067 3.472-1.341 2.341-2.451 4.798-3.506 7.219a72.647 72.647 0 0 0-2.665 7.272c-.397 1.19-.706 2.383-1.051 3.538-.281 1.173-.578 2.312-.814 3.433a74.247 74.247 0 0 0-1.157 6.341 72.156 72.156 0 0 0-.758 9.594c-.017 1.164.024 2.08.053 2.709l.039.742.02.241a1.007 1.007 0 0 0 1.997.07l.004-.026.036-.237c.026-.146.066-.364.119-.646l.513-2.557c.464-2.201 1.185-5.33 2.174-9.029.525-1.843 1.087-3.836 1.747-5.918.674-2.08 1.417-4.255 2.243-6.478.416-1.11.853-2.232 1.336-3.352.454-1.128.949-2.254 1.443-3.392.505-1.13 1.052-2.253 1.6-3.377.597-1.099 1.127-2.241 1.745-3.33.599-1.1 1.2-2.2 1.865-3.256.627-1.08 1.314-2.112 2.003-3.131a72.07 72.07 0 0 1 4.264-5.825c.741-.906 1.514-1.757 2.234-2.63zM283.033 43.51c-.336-1.775-.437-3.536-.246-5.378.047-.458.154-.92.234-1.381.11-.462.268-.924.407-1.388.195-.455.409-.912.635-1.364.295-.427.577-.871.918-1.277.39-.364.77-.763 1.208-1.076.463-.271.932-.57 1.42-.792a38.018 38.018 0 0 1 1.516-.472c.505-.1 1.003-.124 1.51-.182.517-.075.992-.033 1.472.003l.724.052.362.027.181.014.09.007.247.055 1.227.287.613.145c.215.062.487.19.727.286.497.209.994.429 1.486.658.445.255.844.545 1.266.823l.623.427.55.503c.358.342.739.674 1.074 1.035.612.758 1.27 1.507 1.738 2.341.547.808.914 1.67 1.329 2.523.337.868.704 1.737.945 2.62.057.174.098.35.148.524.1-.16.196-.323.297-.484 1.405-2.211 2.846-4.409 4.415-6.539 1.564-2.132 3.222-4.217 5.05-6.232.928-1.001 1.877-1.993 2.95-2.935 1.076-.935 2.19-1.867 3.61-2.648.352-.196.749-.371 1.124-.552.386-.175.847-.311 1.272-.455.454-.128.971-.207 1.462-.284.557-.005 1.09-.055 1.67.054.288.053.577.117.863.188l.213.055.29.111.055.024.222.096c.17.08.245.095.494.227.27.148.54.31.8.48.97.662 1.567 1.345 2.117 2.109 1.042 1.51 1.567 3.04 1.938 4.5.362 1.464.547 2.885.657 4.285.217 2.796.063 5.496-.175 8.164a70.645 70.645 0 0 1-.163 1.508c.728-.418 1.48-.816 2.3-1.153 1.026-.417 2.144-.774 3.441-.888 1.272-.117 2.833.083 4.153.898 1.314.819 2.134 2.038 2.631 3.148.478 1.12.748 2.217.903 3.272l.035.2.037.282.004.087.015.351.032.703.032.704c.01.234.032.452-.01.769-.123 1.163-.208 2.377-.59 3.373-.268 1.067-.782 2.018-1.27 2.972-.244.474-.581.883-.871 1.324-.291.441-.604.86-.964 1.232-.349.382-.679.782-1.043 1.14l-1.128 1.027c-.367.355-.795.618-1.189.929-.397.306-.802.598-1.226.855-.825.555-1.688 1.028-2.55 1.497-.874.444-1.765.844-2.667 1.21-.917.354-1.8.685-2.786.962a1 1 0 0 1-.658-1.886l.034-.014c.79-.331 1.625-.762 2.415-1.184.795-.435 1.557-.922 2.32-1.398.74-.51 1.478-1.016 2.16-1.583.356-.265.683-.56 1.001-.86.314-.306.666-.575.944-.905l.882-.945c.279-.323.513-.675.774-1.007a6.03 6.03 0 0 0 .681-1.045c.192-.363.442-.7.59-1.076.294-.754.63-1.483.744-2.268.254-.787.185-1.472.274-2.17.037-.15-.002-.4-.029-.634l-.077-.7-.076-.7-.03-.274c-.002-.007-.002-.008 0 .01l-.002-.008-.005-.019-.008-.037-.037-.145a8.911 8.911 0 0 0-.715-2.102c-.309-.576-.669-.917-.97-1.077-.307-.146-.699-.207-1.28-.13-1.17.158-2.682.919-4.05 1.849a26.65 26.65 0 0 0-2.042 1.538c-.647.54-1.34 1.159-1.885 1.692a2.652 2.652 0 0 1-4.471-2.339l.014-.079c.202-1.153.381-2.426.525-3.648.145-1.234.261-2.47.342-3.702.164-2.461.183-4.923-.017-7.26-.1-1.164-.269-2.3-.535-3.331-.262-1.027-.645-1.95-1.08-2.557-.103-.164-.224-.255-.322-.394a1.695 1.695 0 0 1-.164-.135c-.055-.057-.105-.1-.102-.082-.01-.004-.012-.017-.01-.04-.028-.032-.264-.117-.385-.174l-.112-.047-.01.003a.129.129 0 0 1-.08-.011c-.2-.087-1.003.12-1.826.595-.84.463-1.742 1.158-2.603 1.907-.873.745-1.717 1.606-2.546 2.484-1.65 1.78-3.222 3.709-4.722 5.71a146.504 146.504 0 0 0-6.48 9.308 130.036 130.036 0 0 0-1.985 3.199l-.058.094a2.62 2.62 0 0 1-4.866-1.448c.025-.633-.012-1.47-.053-2.216a32.707 32.707 0 0 0-.256-2.292c-.132-.752-.256-1.512-.455-2.24-.159-.745-.422-1.438-.65-2.15-.288-.668-.544-1.37-.907-1.978-.304-.666-.74-1.2-1.128-1.788-.215-.269-.462-.5-.688-.759l-.347-.382-.399-.304c-.266-.2-.53-.435-.794-.619a11.862 11.862 0 0 1-.786-.43c-.141-.072-.235-.163-.415-.232l-.6-.188-1.201-.382-.895-.142c-.352-.063-.712-.136-1.032-.103-.328.013-.676-.017-.997.014-.298.072-.6.133-.911.186-.282.104-.533.25-.817.357-.258.146-.468.36-.725.524-.222.213-.414.469-.64.698l-.528.865c-.131.331-.287.65-.413.992-.098.357-.228.704-.307 1.075a16.685 16.685 0 0 0-.39 4.653l.001.035a1.002 1.002 0 0 1-1.983.245zm60.794 6.862.001.009-.012-.097.011.088zM57.345 90.688l-1.757-.55-1.725-.671-1.686-.798c-1.099-.593-2.182-1.236-3.186-2.015-.528-.353-.995-.789-1.469-1.219-.479-.423-.958-.85-1.364-1.353-.414-.491-.878-.95-1.248-1.48l-1.09-1.616c-.358-.543-.618-1.2-.925-1.804l-.436-.93c-.123-.298-.193-.56-.293-.843l-.555-1.666-.017-.053-.05-.199-.027-.127-.051-.256-.102-.511a6.07 6.07 0 0 1-.148-1.05 9.442 9.442 0 0 1 .563-4.456c.555-1.47 1.532-2.752 2.633-3.727 1.104-.992 2.327-1.692 3.547-2.256a22.745 22.745 0 0 1 3.703-1.32c2.477-.66 4.946-1.012 7.404-1.179.485-.032.969-.053 1.453-.073a46.012 46.012 0 0 1-1.492-2.213c-1.507-2.43-2.879-5.008-3.788-7.966-.444-1.481-.769-3.073-.776-4.803-.011-1.715.35-3.618 1.286-5.309.247-.442.587-.918.9-1.349l.331-.38.166-.192.083-.096.171-.186.076-.068c.414-.35.83-.722 1.286-1.003.464-.247.943-.54 1.421-.698 1.95-.712 3.782-.685 5.383-.489 1.607.219 3.08.618 4.49 1.083 1.387.494 2.742 1.025 4.025 1.637 2.596 1.185 5.013 2.586 7.365 4.052 2.354 1.466 4.623 3.024 6.85 4.631.265.194.522.397.786.591 0-.007-.002-.014-.003-.02-.103-.845-.205-1.686-.231-2.55-.064-.85-.024-1.732-.004-2.6.086-.884.148-1.76.357-2.653.078-.444.177-.885.335-1.327.158-.451.246-.864.471-1.34.221-.47.454-.938.694-1.394.232-.387.458-.66.692-.993a7.276 7.276 0 0 1 2.302-2.122 7.86 7.86 0 0 1 2.876-.996c1.962-.277 3.759.088 5.389.613 1.633.541 3.133 1.269 4.558 2.09a34.103 34.103 0 0 1 4.04 2.795 1.002 1.002 0 0 1-1.159 1.63l-.027-.018a32.008 32.008 0 0 0-4.032-2.112c-1.381-.61-2.794-1.124-4.199-1.43-1.396-.296-2.8-.419-3.956-.133a4.24 4.24 0 0 0-1.511.673 3.534 3.534 0 0 0-1.044 1.162c-.19.33-.438.692-.586.992a9.91 9.91 0 0 1-.277.76c-.106.24-.159.614-.246.91a4.994 4.994 0 0 0-.176.976c-.116.653-.111 1.356-.138 2.043.037.705.043 1.405.147 2.121.063.711.213 1.428.33 2.144a35.51 35.51 0 0 0 1.124 4.263c.228.681.495 1.427.745 2.008a2.487 2.487 0 0 1-3.79 2.964l-.107-.08a115.055 115.055 0 0 0-3.177-2.329l-3.254-2.269c-2.186-1.485-4.405-2.916-6.665-4.234-2.261-1.314-4.554-2.555-6.865-3.6-2.299-1.044-4.686-1.897-6.83-2.167-1.062-.134-2.009-.045-2.595.185-.164.045-.246.15-.386.193-.117.07-.186.18-.305.239l-.009.006-.008.008-.167.19-.335.378c-.052.135-.116.202-.2.344-.376.672-.574 1.49-.581 2.462-.009.966.179 2.05.5 3.148.65 2.209 1.786 4.457 3.101 6.606a53.746 53.746 0 0 0 2.1 3.192 48.755 48.755 0 0 0 2.307 2.995l.055.063a2.749 2.749 0 0 1-2.362 4.51 46.246 46.246 0 0 0-3.28-.18 53.593 53.593 0 0 0-3.339.03c-2.212.107-4.413.304-6.482.768-1.04.22-2.028.528-2.948.9-.919.373-1.769.824-2.43 1.375-1.324 1.101-2.024 2.435-1.94 4.281-.011.222.014.454.055.69l.047.354.023.177.01.089.003.022.001.01-.031-.117.011.045.454 1.698c.079.274.144.584.233.83l.289.669c.207.445.333.905.593 1.355l.772 1.363c.262.453.616.845.919 1.276.293.44.665.818 1.035 1.2.365.388.72.786 1.148 1.116.794.725 1.685 1.346 2.59 1.962l1.418.843 1.486.745c1.02.443 2.056.871 3.125 1.219 1.055.357 2.183.644 3.226.838l.069.013a1 1 0 0 1-.251 1.98 25.7 25.7 0 0 1-3.657-.513c-.602-.11-1.188-.283-1.784-.424zm4.33-48.63-.003.004a.736.736 0 0 0 .004-.003zm133.817-5.035-1.22 1.996a108.921 108.921 0 0 1-2.514 3.917 69.91 69.91 0 0 1-2.658 3.71c-.91 1.176-1.88 2.298-2.862 3.147-.477.414-.966.81-1.34.992-.09.048-.16.068-.242.114-.072.035-.104.027-.159.064.003.004.15.01.197.09l-.286-.057-.114-.024c-.313-.137-.636-.269-.93-.583l-.255-.256c-.083-.096-.145-.228-.224-.34-.166-.215-.295-.49-.417-.782-.255-.566-.45-1.233-.615-1.923a17.442 17.442 0 0 1-.339-2.173c-.17-1.491-.182-3.066-.144-4.602l.001-.047a1.01 1.01 0 0 0-1.963-.35 23.549 23.549 0 0 0-1.117 4.966 20.78 20.78 0 0 0-.1 2.633c.03.9.114 1.825.379 2.777.12.476.261.955.495 1.441.11.24.2.485.337.724l.464.708c.28.487.758.89 1.187 1.309.45.399 1.017.666 1.547.97l.05.027.013.006.265.09.018.005.072.023.143.047.296.093c.448.088.997.144 1.399.123.34-.033.713-.064 1.026-.137.3-.08.62-.16.9-.262 1.125-.412 1.96-.958 2.746-1.527 1.528-1.159 2.736-2.42 3.881-3.705 1.147-1.282 2.158-2.628 3.13-3.985a76.157 76.157 0 0 0 2.464-3.737c.134.204.268.41.407.611.452.604.903 1.204 1.45 1.773.25.29.537.568.846.835.307.266.581.546.944.782.35.238.674.494 1.055.7l1.19.566c.852.289 1.726.552 2.647.57l.68.04c.222-.01.442-.043.664-.067l.66-.088.326-.047.082-.013.04-.007.228-.052.113-.039.915-.306.235-.085.312-.149.615-.306.602-.32c.183-.112.33-.232.497-.35.316-.24.656-.46.94-.725.575-.527 1.12-1.068 1.573-1.66.483-.573.857-1.203 1.224-1.82.36-.624.67-1.258.95-1.899.274-.642.509-1.295.708-1.951.204-.656.385-1.312.518-1.979a18.25 18.25 0 0 0 .32-2.039 1.007 1.007 0 0 0-1.934-.473l-.024.058c-.217.53-.47 1.122-.737 1.666-.271.552-.536 1.102-.84 1.625-.29.531-.628 1.031-.944 1.53-.329.49-.673.961-1.043 1.397-.369.433-.752.849-1.153 1.205-.388.385-.814.687-1.23.98-.207.146-.439.234-.65.358-.105.054-.216.126-.315.166l-.273.085-.259.098-.125.055-.227.051-.94.215-.092.02c.319-.075.072-.018.152-.038h-.03l-.038-.002-.153-.004-.298.004c-.099 0-.2.015-.296.01l-.278-.066c-.375-.03-.719-.217-1.072-.358a7.464 7.464 0 0 0-.517-.326c-.17-.122-.34-.283-.515-.413-.18-.116-.338-.32-.507-.481a3.968 3.968 0 0 1-.49-.551c-.327-.377-.617-.828-.912-1.268-.278-.469-.551-.94-.796-1.445a38.33 38.33 0 0 1-.704-1.534c-.208-.5-.439-1.099-.563-1.51a2.874 2.874 0 0 0-5.24-.606l-.056.098-1.153 1.997z" style="fill:#fffaeb"/></svg>