<?xml version="1.0" encoding="UTF-8"?>
<svg xmlns="http://www.w3.org/2000/svg" viewBox="-0.0 -0.5 289.6 226.9" preserveAspectRatio="xMidYMid meet">
  <!-- Primer grupo (azul oscuro) -->
  <g id="__id60_sgfylawhc8">
    <path
      d="M75.4964,26.5635c34.4152,0.4141,58.3379,1.6374,69.0033,4.5753c18.2199-6.2955,64.1015-5.3089,64.1015-5.3089c2.1334-15.3816,8.5196-25.1684,21.6364-24.7487s11.1459,13.4303,11.1459,13.4303c5.0539-0.1842,5.1152,0.0079,8.2871,2.0985c2.6581,1.7519,2.2591,10.4924,2.2591,10.4924s-1.0342-0.2851,10.0727,0.8394c11.2819,1.1422,10.4924,12.85,10.4924,12.85s12.3318,1.5803,14.4303,4.9379s1.6788,18.047,0,43.2288s-5.3264,125.3668-7.0301,129.9767c-1.7036,4.6099-21.8305,7.0325-68.9995,4.5076s-67.5731-6.4003-67.5731-6.4003s-10.8873,3.0427-56.2146,5.8407s-72.1702,3.5088-76.4048-2.2431C6.506,214.9393,1.5664,62.385,1.161,59.5172C0.48,54.6989,1.9787,49.2148,5.1473,45.5213c3.4335-4.0023,7.5099-4.0165,12.774-3.7068c-0.2944-3.4577,1.0327-10.2078,3.7613-12.3519C25.8878,26.1581,41.0812,26.1495,75.4964,26.5635z"
      fill="rgb(6,74,117)"
    />
  </g>
  <!-- Segundo grupo (amarillo) -->
  <g id="__id61_sgfylawhc8">
    <path
      d="M137.1918,200.318v9.1803c-41.969,5.4476-116.2583,6.0228-116.991,5.2865c-0.7604-0.7642-8.0412-126.6891-8.6664-161.5607c-0.0357-1.9929,6.0437-3.2848,14.0651-3.2393L137.1918,200.318zM152.5277,200.318v9.1803c41.969,5.4476,116.2583,6.0228,116.991,5.2865c0.7603-0.7642,8.0412-126.6891,8.6664-161.5607c0.0357-1.9929-6.0437-3.2848-14.0651-3.2393l-30.4315,58.5355L152.5277,200.318zM227.8065,102.3478c2.1741-10.7857,11.7764-61.9783,13.659-72.0868c0.3231-1.7349,1.3501-5.7877,0.8605-6.4954c-1.0547-1.5244-7.3452-1.6846-9.8741-1.8844l-0.8319,4.7247c2.1953,0.1936,4.7397,0.3353,6.9349,0.5289c-0.8091,5.2847-8.3525,42.651-11.5479,63.3626c-4.197,4.6167-3.6374,10.7722,0,11.8504"
      fill="rgb(234,203,73)"
    />
  </g>
  <!-- Tercer grupo (blanco) -->
  <g id="__id62_sgfylawhc8">
    <path
      d="M139.9199,39.8539c0.8563,5.2462,0.8563,160.1815,0.8563,160.1815c-18.0395,1.7056-87.1354,4.7395-106.1188,3.0835c-0.9658-0.0843-2.0187-0.218-2.6904-0.9171c-0.5915-0.6156-0.8231-1.5129-0.8584-2.3659c-3.038-73.5246-9.3863-159.9563-2.9726-162.2057C46.3274,31.2501,139.4158,36.7658,139.9199,39.8539zM261.5835,37.6303c-3.9886-1.3989-11.5786-2.2257-21.003-2.6318c-3.0233,16.1599-10.8388,57.7491-12.7741,67.3493h-0.7995c-3.6374-1.0781-4.1969-7.2337,0-11.8504c2.4859-16.1128,7.6021-42.2996,10.1331-55.6251c-33.8546-1.0608-86.96,2.6512-87.3404,4.9817c-0.8563,5.2462-0.8563,160.1815-0.8563,160.1815c18.0395,1.7056,87.1355,4.7395,106.1188,3.0835c0.9658-0.0843,2.0187-0.218,2.6904-0.9171c0.5915-0.6156,0.8232-1.5129,0.8584-2.3659C261.6489,126.3115,267.9972,39.8797,261.5835,37.6303"
      fill="rgb(243,250,253)"
    />
  </g>
  <!-- Cuarto grupo (rojo) -->
  <g id="__id63_sgfylawhc8">
    <path
      d="M232.4518,21.8812c-4.7708,31.0517-16.3315,97.1479-21.1024,128.1996l-10.635,14.401l-1.4715-17.6921c4.7708-31.0517,15.8556-94.2565,20.6264-125.3082c0,0,1.052-11.3896,8.357-11.177C234.5273,10.4878,232.4518,21.8812,232.4518,21.8812z"
      fill="rgb(236,28,36)"
    />
  </g>
  <!-- Quinto grupo (negro) -->
  <g id="__id64_sgfylawhc8">
    <path
      d="M289.2993,54.5436c-0.1038-3.4934,0.1758-8.6296-3.0932-10.8532c-2.3656-1.6091-5.4299-2.3151-8.1824-2.9232c-1.4942-0.3301-3.0038-0.597-4.5187-0.8202c-0.0004-3.3691-1.2377-6.9642-3.5176-9.3947c-2.4908-2.6553-5.8439-3.3978-9.3299-3.7457c-2.5401-0.2535-5.1302-0.624-7.6929-0.7034c0.0732-2.7737-0.0981-5.811-1.1962-8.3145c-1.5039-3.429-5.8287-4.2334-9.2952-4.2827"
      fill="rgb(0,0,0)"
    />
  </g>
</svg>
