<?xml version="1.0" encoding="UTF-8"?>
<svg
  xmlns="http://www.w3.org/2000/svg"
  viewBox="0.0 -3.0 500.0 375.0"
  preserveAspectRatio="xMidYMid meet"
>
  <!-- Parte inferior amarilla -->
  <g id="__id44_sgfylawhc8">
    <path
      d="M497.8,369.9H409H45.3l6.9-37.6h-48C84,230.1,106.8,35.9,106.8,35.9l1-7.9h363.6L497.8,369.9z"
      fill="rgb(234,203,73)"
    />
  </g>

  <!-- Barra superior azul -->
  <g id="__id45_sgfylawhc8">
    <path
      d="M484.7,26.2l-12,52.9c-1.4,5.9-6.3,10.1-11.9,10.1h-334c-7.6,0-13.4-7.4-12.1-15.5l8.4-52.9c1-6.4,6.1-11,12.1-11h337.6C480.7,9.8,486.6,17.9,484.7,26.2z"
      fill="rgb(6,74,117)"
    />
  </g>

  <!-- Detalles rojos -->
  <g id="__id46_sgfylawhc8">
    <path
      d="M340.1,221.3h42.1v-4.1h-40.8l17.9-54.7h44v-4.1h-42.7l13.5-41.4l-3.9-1.3l-14,42.7h-62.4l13.5-41.4l-3.9-1.3l-14,42.7h-65.7l13.5-41.4l-3.9-1.3l-14,42.7h-58.1l13.5-41.4l-3.9-1.3l-14,42.7h-41.2v4.1h39.8l-17.9,54.7H94.7v4.1h41.7l-17.6,53.9H71.5v4.1h45.9l-9.9,30.4l3.9,1.3l10.4-31.6h58.1l-9.9,30.4l3.9,1.3l10.3-31.6H250l-9.9,30.4l3.9,1.3l10.3-31.6h62.4l-9.9,30.4l3.9,1.3l10.4-31.6H359v-4.1h-36.6L340.1,221.3z
         M292.6,162.4H355l-17.9,54.7h-62.4L292.6,162.4z
         M222.5,162.4h65.7l-17.9,54.7h-65.7L222.5,162.4z
         M160,162.4h58.1l-17.9,54.7h-58.1L160,162.4z
         M181.3,275.2h-58.1l17.6-53.9h58.1L181.3,275.2z
         M251.3,275.2h-65.7l17.6-53.9H269L251.3,275.2z
         M318.1,275.2h-62.4l17.6-53.9h62.4L318.1,275.2z
         M473.5,28.1l0.4-2.2h-26.6c-3.2-13-12.5-22.6-24.6-25.2c-16.9-3.7-34,7.4-39.8,25.2H364c-3.3-12.8-12.6-22.4-24.6-25c-16.8-3.7-33.9,7.3-39.7,25h-19.4C277,13.2,267.8,3.8,255.8,1.2c-16.8-3.7-33.7,7.2-39.6,24.8h-18.8C194,13.3,184.8,4,172.9,1.4c-16.7-3.7-33.6,7.2-39.5,24.6H106l-1.3,9.8C104.5,37.7,81.1,230.4,2.6,331L0,334.3h49.8L42.9,372H409h1.7H500L473.5,28.1z
         M421.8,4.7C432,7,440,15,443,25.9h-55.8C392.8,10.9,407.4,1.6,421.8,4.7z
         M338.5,5c10.2,2.2,18.1,10.2,21.2,21h-55.6C309.7,11,324.2,1.8,338.5,5z
         M254.9,5.2c10.1,2.2,18,10.1,21.1,20.8h-55.5C226.2,11.2,240.7,2.1,254.9,5.2z
         M172,5.4c10,2.2,17.9,10,21.1,20.5h-55.3C143.5,11.3,157.9,2.3,172,5.4z
         M108.8,36.2l0.8-6.1h22.6c0,0.1-0.1,0.3-0.1,0.4c-2.1,9.7-0.7,19.5,3.9,27.7
         c4.7,8.3,12.1,13.9,20.9,15.8l0.9-4c-7.6-1.7-14.1-6.6-18.2-13.9c-4.1-7.3-5.4-16.1-3.5-24.8
         c0.1-0.5,0.2-0.9,0.3-1.3H215c0,0.1,0,0.1-0.1,0.2c-2.1,9.7-0.7,19.5,3.9,27.7
         c4.7,8.3,12.1,13.9,20.9,15.9l0.9-4c-7.7-1.7-14.1-6.6-18.2-13.8c-4.1-7.3-5.4-16.1-3.5-24.8
         c0.1-0.4,0.2-0.7,0.3-1.1h79.3c-4.4,20,6.8,39.6,24.9,43.5l0.9-4c-15.9-3.5-25.6-20.8-21.7-38.6
         c0.1-0.3,0.2-0.6,0.2-0.9h78.9c-2,9.6-0.6,19.3,4,27.5c4.7,8.3,12.1,13.9,20.9,15.8l0.9-4
         c-7.7-1.7-14.1-6.6-18.2-13.9c-4.1-7.3-5.4-16.1-3.5-24.8c0-0.2,0.1-0.4,0.2-0.6H469
         c-3.3,16.7-10,41.4-18.3,69.6H98C105.7,62.5,108.8,36.9,108.8,36.2z
         M8.4,330.2c48.1-63.7,75.1-161.3,88.7-226.4h352.3c-26.8,89.8-69.3,212-74.3,226.4H8.4z
         M407.2,367.8H47.8l6.1-33.5h324.1l0.5-1.4c0.7-1.9,52.3-149.4,79.8-245L407.2,367.8z
         M411.4,367.8l56.7-310l-13.3,310H411.4z
         M472,62.6l23.5,305.2H459L472,62.6z"
      fill="rgb(208,68,63)"
    />
  </g>
</svg>
