<svg width="31" height="32" viewBox="0 0 31 32" fill="none" xmlns="http://www.w3.org/2000/svg">
<path d="M20.8334 14.5595C21.4654 14.5595 22.0027 14.3319 22.4451 13.8767C22.8875 13.4215 23.1088 12.8687 23.1088 12.2184C23.1088 11.5681 22.8875 11.0154 22.4451 10.5602C22.0027 10.105 21.4654 9.87735 20.8334 9.87735C20.2013 9.87735 19.6641 10.105 19.2216 10.5602C18.7792 11.0154 18.558 11.5681 18.558 12.2184C18.558 12.8687 18.7792 13.4215 19.2216 13.8767C19.6641 14.3319 20.2013 14.5595 20.8334 14.5595ZM10.2148 14.5595C10.8469 14.5595 11.3841 14.3319 11.8266 13.8767C12.269 13.4215 12.4902 12.8687 12.4902 12.2184C12.4902 11.5681 12.269 11.0154 11.8266 10.5602C11.3841 10.105 10.8469 9.87735 10.2148 9.87735C9.58276 9.87735 9.04551 10.105 8.60307 10.5602C8.16063 11.0154 7.93941 11.5681 7.93941 12.2184C7.93941 12.8687 8.16063 13.4215 8.60307 13.8767C9.04551 14.3319 9.58276 14.5595 10.2148 14.5595ZM10.9733 21.5827H20.0749V19.2416H10.9733V21.5827ZM15.5241 31.7273C13.4257 31.7273 11.4536 31.3177 9.60804 30.4983C7.76244 29.6789 6.15701 28.5669 4.79177 27.1623C3.42653 25.7576 2.34571 24.1059 1.54932 22.207C0.752932 20.3081 0.354736 18.2792 0.354736 16.1202C0.354736 13.9612 0.752932 11.9323 1.54932 10.0334C2.34571 8.13455 3.42653 6.48279 4.79177 5.07815C6.15701 3.67351 7.76244 2.5615 9.60804 1.74212C11.4536 0.922749 13.4257 0.513062 15.5241 0.513062C17.6225 0.513062 19.5945 0.922749 21.4401 1.74212C23.2857 2.5615 24.8912 3.67351 26.2564 5.07815C27.6217 6.48279 28.7025 8.13455 29.4989 10.0334C30.2952 11.9323 30.6934 13.9612 30.6934 16.1202C30.6934 18.2792 30.2952 20.3081 29.4989 22.207C28.7025 24.1059 27.6217 25.7576 26.2564 27.1623C24.8912 28.5669 23.2857 29.6789 21.4401 30.4983C19.5945 31.3177 17.6225 31.7273 15.5241 31.7273ZM15.5241 28.6059C18.9119 28.6059 21.7814 27.3964 24.1327 24.9773C26.4839 22.5581 27.6596 19.6058 27.6596 16.1202C27.6596 12.6346 26.4839 9.68226 24.1327 7.26315C21.7814 4.84404 18.9119 3.63449 15.5241 3.63449C12.1363 3.63449 9.26673 4.84404 6.91548 7.26315C4.56423 9.68226 3.38861 12.6346 3.38861 16.1202C3.38861 19.6058 4.56423 22.5581 6.91548 24.9773C9.26673 27.3964 12.1363 28.6059 15.5241 28.6059Z" fill="black"/>
</svg>
