<?xml version="1.0" encoding="UTF-8"?>
<svg
  xmlns="http://www.w3.org/2000/svg"
  viewBox="0 0 317.5 250"
  preserveAspectRatio="xMidYMid meet"
>
  <g>
    <g id="__id18_sgfylawhc8">
      <path
        d="M116.6,407.4c-.3,2.2-.9,6.7-1.5,12.5-.8,7.4-2.9,16.6-3.8,25.7-.6,6.1-2.3,11.8-2.8,16.8-.9,8.5-1.8,16.6-1.8,16.6,12.1,2.1,40.3,8.1,91,12.9l45.4,8.1s9.7-58.6,12-72.2c.6-3.7,4-39.1,10.9-84.5,2.4-15.9,18.1-117.3,22.7-137.1,4.6-19.8,19.7-120.1,21.6-141.1,2-21.1,6-39.2,6-39.2,0,0-59.7-7.6-73-10-13.2-2.3-61.3-10.8-61.3-10.8l-12.5,61.4-3.9,30.7-2.3,17.3-3.5,27.2-2.2,16.8-3.4,24.7-1.3,10s-.4,2.4-1.2,6.9c-1,5.8-2.6,15-4.7,26.5-.9,5-1.8,10.5-2.9,16.4-1.4,7.9-2.9,16.5-4.4,25.6-.9,5.5-1.9,11.1-2.9,16.8-1.7,9.7-3.4,19.7-5.1,29.8-.9,5.5-1.9,11.1-2.8,16.7-1.6,9.3-3.1,18.6-4.6,27.6-.9,5.7-1.9,11.3-2.7,16.8-1.6,9.7-3,18.8-4.4,27.3-.2,1.4-.4,2.7-.6,4Z"
        fill="rgb(234,203,73)"
      />
    </g>
    <g id="__id19_sgfylawhc8">
      <path
        d="M316.9,21l-3.5,24s-8.4,33.9-26.2,40.8c-17.8,6.9-30.2,12.4-49.5,8.2-19.3-4.1-37.7-5.8-48.9-20.6-10.6-13.9-17.7-35.4-11.8-53.6,1-7.8,3.6-19.7,3.6-19.9l16.7,1.1s28.6,1.9,69,10.7c19.9,4.3,44.2,6.8,44.2,6.8l6.3,2.4Z"
        fill="rgb(6,74,117)"
      />
    </g>
    <g id="__id20_sgfylawhc8">
      <path
        d="M244.1,33.4s10.4,2.4,12.6,7c2.2,4.6,4,7.8,2.9,12.7-1.1,4.9-1.5,9.5-5.9,12.3-4.4,2.7-11.4,4.4-17.3,2.2-5.8-2.2-11.1-6.3-11.5-9.3s-1.8-5.3,0-11.4,4.1-8.1,6.1-10.7,13-2.8,13-2.8Z"
        fill="rgb(6,2,61)"
      />
    </g>
    <g id="__id21_sgfylawhc8">
      <path
        d="M165.6,97.2l-2.3,17.3c3.3,.5,6.5,1,9.6,1.5,5.9,.9,36,5.1,47.4,7.1,11.4,2,26.7,4,26.7,4,.5-1.5,2.2-4.3,1.9-11.2l.7-5.6s-28.2-4.2-37.8-5.7c-9.7-1.5-30.7-4.9-37.2-5.9-1-.2-4.1-.6-9-1.4Z"
      />
      <path
        d="M136.9,285.2c5.4,.9,14.3,2.4,21.7,3.4,11.5,1.5,41.4,6.6,47.3,7.6s8.4,1.3,12.9,2l2.8-9.6,.4-7.5c-6.8-1.1-11.1-1.8-12.3-2-6.5-1-27.5-4.1-37.2-5.6-7.1-1.1-24-3.7-32.6-5.1-.9,5.5-1.9,11.1-2.9,16.8Z"
      />
      <path
        d="M159.8,141.7l-2.2,16.8c5.5,.9,11.7,2,19,3.4,16.6,3.2,19.5,3,28.4,4.4,0,0,0-6,.5-9.6,.5-3.5,.2-7.9,.2-7.9-8.9-1.3-17.8-2.3-34.7-5.2-4.3-.7-8-1.4-11.3-1.9Z"
      />
      <path
        d="M153,193s-.4,2.4-1.2,6.9c6,1.1,12.7,2.3,24.3,3.6,15.6,1.8,35.9,5.7,57.1,9l.8-4.6,.6-7,.6-5.3c-11.6-1.8-27.8-3.3-42.1-5.9-11.9-2.1-26.2-4.6-38.6-6.6l-1.3,10Z"
      />
      <path
        d="M129,331.6c6,1,12.8,2.2,20.9,3.7,16.6,3.2,19.5,3,28.4,4.4,0,0,0-6,.5-9.6,.5-3.5,.2-7.9,.2-7.9-8.9-1.3-17.8-2.3-34.7-5.2-4.8-.8-8.9-1.5-12.5-2.1-.9,5.5-1.9,11.1-2.8,16.7Z"
      />
      <path
        d="M121.6,376c6.5,1.1,13.3,2.4,26,3.9,15.6,1.8,35.9,5.7,57.1,9l.8-4.6,.6-7,.6-5.3c-11.6-1.8-27.8-3.3-42.1-5.9-12.4-2.2-27.3-4.8-40.1-6.9-.9,5.7-1.9,11.3-2.7,16.8Z"
      />
      <path
        d="M144.2,242.8l17.9,2.7s10.8,1.7,28.2,4.4c1.2-3.5,2.5-7.7,2.8-9.2s.6-4.8,1-7.4c-17.1-2.7-30.8-4.2-37.2-5.3-2.3-.4-5.6-1-9.7-1.7-.9,5-1.8,10.5-2.9,16.4Z"
      />
      <path
        d="M111.2,445.5c-.6,6.1-2.3,11.8-2.8,16.8,5.5,.9,15.8,2.6,22.8,3.6,11.5,1.5,41.4,6.6,47.3,7.6s8.4,1.3,12.9,2l2.8-9.6,.4-7.5c-6.8-1.1-11.1-1.8-12.3-2-6.5-1-27.5-4.1-37.2-5.6-7.1-1.1-25.2-3.9-33.7-5.3Z"
      />
      <path
        d="M116.6,407.4c-.3,2.2-.9,6.7-1.5,12.5l19.6,3s10.8,1.7,28.2,4.4c1.2-3.5,2.5-7.7,2.8-9.2s.6-4.8,1-7.4c-17.1-2.7-30.8-4.2-37.2-5.3-2.8-.5-6.9-1.2-12.1-2.1-.2,1.4-.4,2.7-.6,4Z"
      />
    </g>
    <g id="__id22_sgfylawhc8">
      <path
        d="M143.9,123.4c-.9-3.4-5.1-7.9-6.7-10.6-1.6-2.7-8.9-15.2-8.9-15.2,0,0-9.6-12.5-10.7-14.1-1.1-1.6-11-16.4-11-16.4,0,0-2.9-2.3-4.5-2.8-1.6-.5-8.1,2.2-8.5,2.4-.4,.2-12.9,12.7-12.9,12.7l-15.7,10s-10.9,9-11.7,9.5-8,6.1-9,9.5c-1,3.4-.9,6.1-.9,6.1,0,0,2.9,7.1,3.8,7.5,.9,.4,3.9,.8,6.6,1,2.8,.2,11.1-6.1,11.1-6.1l5.4-5.3,13.1-8.9,1.9-2.3s-.4,6.2-1,8.8-2.8,12.8-3.3,21.3c-.5,8.4-4.1,26.5-4.5,30.1-.4,3.6-3.3,22.2-3.3,23.3,0,.1-1.1,7.5-2.1,12.2-.6,2.9-1.2,5.9-1.7,8.6-1.8,9-1.6,16.5-1.6,16.5l-6.6,37.4c-.1,1.2-.3,2.4-.4,3.4s-.1,.7-.2,.9c-.5,2.6-2.8,12.8-3.3,21.3-.3,5.7-2.1,15.8-3.3,22.8-.6,3.4-1.1,6.1-1.2,7.3-.4,3.6-3.3,22.2-3.3,23.3,0,0,0,0,0,.1-.9,6.4-1.7,13.1-1.7,13.1,0,0-2.6,13.1-4.3,22-1.8,9-1.6,16.5-1.6,16.5l-5.3,22.2-8.6-9.7s-10.2-13.9-11.4-14.8c-1.2-1-9.6-2.4-10-2.2-.4,.3-5,5.1-6.1,6.6s0,12.5,0,12.5l6.1,6.9,8.4,13.6,7.1,8,12.9,20,7.9,3.1,5.6-2.6s8.7-5.3,15.6-13.2c3.1-1.8,18.1-9.8,18.1-9.8l12.4-12.1s2.9-6.9,3.5-11.8c-.4-3.2-2.7-8-2.7-8l-5.7-1.7s-5.1,.9-10.1,5.9c-6,6-10.4,9.2-10.4,9.2l-12.3,6.5,3.9-25.1,3.5-27.5s3.1-14.4,4.9-24.3c.7-.8,4.4-24.5,5.4-28.5,.2-.9,.5-2.4,.9-4.2,1.1-5.9,2.5-14.9,2.7-16.1s1.3-9.4,2.2-16.2c.6-4.5,1.1-8.3,1.1-8.7,0-.4,7.5-48.6,7.5-48.6,0,0,5.2-32.6,5.2-32.9,0-.6,3.1-22.9,4.2-26.9,1-4,3.3-18.8,3.5-20.3s3.3-23.9,3.3-24.9c0-.9,1.8-7.8,1.8-7.8,0,0,3.1,3,4.2,5.6,1.1,2.5,8.6,11,8.6,11,0,0,5.5,11,6.5,11.9,1.1,.9,8.2,1.6,8.8,1.4s6.8-3.9,7.1-4.4c.3-.5,2.5-5.7,1.9-7.9Z"
        fill="rgb(236,28,36)"
      />
    </g>
  </g>
  
</svg>
