<svg width="35" height="31" viewBox="0 0 35 31" fill="none" xmlns="http://www.w3.org/2000/svg">
<g filter="url(#filter0_i_0_1)">
<ellipse cx="9.15085" cy="3.38948" rx="9.15085" ry="3.38948" transform="matrix(0.999993 -0.00384836 0.00309995 0.999995 1.23505 23.2728)" fill="#FFD439"/>
</g>
<path d="M19.3471 26.5926C19.3483 26.9819 19.1372 27.3782 18.6999 27.764C18.2629 28.1494 17.6184 28.5065 16.8043 28.8116C15.1777 29.421 12.9157 29.8068 10.4062 29.8165C7.8967 29.8262 5.63243 29.4578 4.00207 28.8608C3.18612 28.5621 2.53943 28.2099 2.10005 27.8279C1.66029 27.4455 1.44676 27.0507 1.44555 26.6615C1.44435 26.2722 1.65542 25.8759 2.09281 25.4901C2.5298 25.1047 3.17429 24.7475 3.98837 24.4425C5.615 23.833 7.87692 23.4472 10.3864 23.4376C12.896 23.4279 15.1602 23.7963 16.7906 24.3932C17.6066 24.692 18.2532 25.0442 18.6926 25.4262C19.1324 25.8086 19.3459 26.2033 19.3471 26.5926Z" stroke="black" stroke-width="0.4"/>
<g filter="url(#filter1_i_0_1)">
<ellipse cx="9.15085" cy="3.38948" rx="9.15085" ry="3.38948" transform="matrix(0.999993 -0.00384836 0.00309995 0.999995 2.4447 21.8801)" fill="#FFD439"/>
</g>
<path d="M20.5568 25.1999C20.558 25.5892 20.3469 25.9855 19.9095 26.3713C19.4725 26.7567 18.828 27.1138 18.0139 27.4189C16.3873 28.0283 14.1254 28.4141 11.6159 28.4238C9.10635 28.4335 6.84209 28.0651 5.21173 27.4681C4.39577 27.1694 3.74908 26.8172 3.30971 26.4352C2.86994 26.0528 2.65641 25.658 2.65521 25.2688C2.654 24.8795 2.86508 24.4832 3.30246 24.0974C3.73946 23.712 4.38395 23.3548 5.19803 23.0498C6.82465 22.4403 9.08658 22.0545 11.5961 22.0449C14.1056 22.0352 16.3699 22.4036 18.0003 23.0005C18.8162 23.2993 19.4629 23.6515 19.9023 24.0335C20.342 24.4159 20.5556 24.8106 20.5568 25.1999Z" stroke="black" stroke-width="0.4"/>
<g filter="url(#filter2_i_0_1)">
<ellipse cx="9.15085" cy="3.38948" rx="9.15085" ry="3.38948" transform="matrix(0.999993 -0.00384836 0.00309995 0.999995 1.22235 19.1562)" fill="#FFD439"/>
</g>
<path d="M19.3344 22.476C19.3356 22.8653 19.1245 23.2616 18.6872 23.6474C18.2502 24.0328 17.6057 24.39 16.7916 24.695C15.165 25.3045 12.903 25.6903 10.3935 25.6999C7.884 25.7096 5.61974 25.3412 3.98938 24.7443C3.17342 24.4455 2.52673 24.0933 2.08736 23.7113C1.64759 23.3289 1.43406 22.9342 1.43286 22.5449C1.43165 22.1557 1.64273 21.7593 2.08011 21.3735C2.5171 20.9881 3.1616 20.631 3.97568 20.3259C5.6023 19.7165 7.86423 19.3307 10.3738 19.321C12.8833 19.3114 15.1475 19.6798 16.7779 20.2767C17.5939 20.5754 18.2405 20.9276 18.6799 21.3097C19.1197 21.6921 19.3332 22.0868 19.3344 22.476Z" stroke="black" stroke-width="0.4"/>
<g filter="url(#filter3_i_0_1)">
<ellipse cx="9.15085" cy="3.38948" rx="9.15085" ry="3.38948" transform="matrix(0.999993 -0.00384836 0.00309995 0.999995 3.66705 17.7943)" fill="#FFD439"/>
</g>
<path d="M21.7791 21.1141C21.7803 21.5034 21.5693 21.8997 21.1319 22.2855C20.6949 22.6709 20.0504 23.028 19.2363 23.3331C17.6097 23.9425 15.3477 24.3283 12.8382 24.338C10.3287 24.3477 8.06444 23.9793 6.43408 23.3823C5.61812 23.0836 4.97143 22.7314 4.53206 22.3494C4.09229 21.967 3.87877 21.5722 3.87756 21.183C3.87635 20.7937 4.08743 20.3974 4.52481 20.0116C4.96181 19.6262 5.6063 19.269 6.42038 18.964C8.047 18.3545 10.3089 17.9687 12.8185 17.9591C15.328 17.9494 17.5922 18.3178 19.2226 18.9147C20.0386 19.2135 20.6852 19.5657 21.1246 19.9477C21.5644 20.3301 21.7779 20.7248 21.7791 21.1141Z" stroke="black" stroke-width="0.4"/>
<g filter="url(#filter4_i_0_1)">
<ellipse cx="9.15085" cy="3.38948" rx="9.15085" ry="3.38948" transform="matrix(0.999993 -0.00384836 0.00309995 0.999995 0 15.0704)" fill="#FFD439"/>
</g>
<path d="M18.1121 18.3902C18.1133 18.7795 17.9022 19.1758 17.4648 19.5616C17.0278 19.947 16.3833 20.3042 15.5692 20.6092C13.9426 21.2187 11.6807 21.6045 9.17117 21.6141C6.66165 21.6238 4.39739 21.2554 2.76702 20.6585C1.95107 20.3597 1.30438 20.0075 0.865006 19.6255C0.425241 19.2431 0.211712 18.8484 0.210506 18.4591C0.209299 18.0699 0.420375 17.6735 0.857759 17.2877C1.29475 16.9023 1.93924 16.5452 2.75333 16.2401C4.37995 15.6307 6.64188 15.2449 9.1514 15.2352C11.6609 15.2256 13.9252 15.594 15.5555 16.1909C16.3715 16.4896 17.0182 16.8418 17.4576 17.2239C17.8973 17.6063 18.1109 18.001 18.1121 18.3902Z" stroke="black" stroke-width="0.4"/>
<g filter="url(#filter5_i_0_1)">
<ellipse cx="8.91663" cy="3.2452" rx="8.91663" ry="3.2452" transform="matrix(0.999993 -0.00378133 0.0031549 0.999995 17.1464 23.5388)" fill="#FFD439"/>
</g>
<path d="M34.7897 26.7173C34.7909 27.0852 34.5878 27.4623 34.1621 27.8312C33.737 28.1996 33.1095 28.5414 32.3164 28.8334C30.7317 29.4168 28.528 29.7862 26.0828 29.7954C23.6376 29.8047 21.4315 29.452 19.8432 28.8806C19.0483 28.5946 18.4187 28.2576 17.9913 27.8924C17.5632 27.5266 17.3578 27.1511 17.3566 26.7832C17.3554 26.4153 17.5585 26.0382 17.9842 25.6692C18.4094 25.3008 19.0368 24.9591 19.83 24.6671C21.4146 24.0837 23.6184 23.7143 26.0636 23.705C28.5087 23.6958 30.7148 24.0485 32.3031 24.6199C33.098 24.9059 33.7276 25.2429 34.1551 25.6081C34.5831 25.9738 34.7886 26.3493 34.7897 26.7173Z" stroke="black" stroke-width="0.4"/>
<g filter="url(#filter6_i_0_1)">
<ellipse cx="8.91663" cy="3.2452" rx="8.91663" ry="3.2452" transform="matrix(0.999993 -0.00378133 0.0031549 0.999995 17.1464 20.9308)" fill="#FFD439"/>
</g>
<path d="M34.7897 24.1093C34.7909 24.4773 34.5878 24.8543 34.1621 25.2233C33.737 25.5917 33.1095 25.9335 32.3164 26.2255C30.7317 26.8089 28.528 27.1782 26.0828 27.1875C23.6376 27.1967 21.4315 26.844 19.8432 26.2726C19.0483 25.9866 18.4187 25.6496 17.9913 25.2844C17.5632 24.9187 17.3578 24.5432 17.3566 24.1753C17.3554 23.8073 17.5585 23.4303 17.9842 23.0613C18.4094 22.6929 19.0368 22.3511 19.83 22.0591C21.4146 21.4757 23.6184 21.1064 26.0636 21.0971C28.5087 21.0879 30.7148 21.4406 32.3031 22.012C33.098 22.298 33.7276 22.635 34.1551 23.0002C34.5831 23.3659 34.7886 23.7414 34.7897 24.1093Z" stroke="black" stroke-width="0.4"/>
<g filter="url(#filter7_i_0_1)">
<ellipse cx="8.91663" cy="3.2452" rx="8.91663" ry="3.2452" transform="matrix(0.999993 -0.00378133 0.0031549 0.999995 17.1464 18.3229)" fill="#FFD439"/>
</g>
<path d="M34.7897 21.5014C34.7909 21.8693 34.5878 22.2464 34.1621 22.6154C33.737 22.9838 33.1095 23.3255 32.3164 23.6175C30.7317 24.2009 28.528 24.5703 26.0828 24.5796C23.6376 24.5888 21.4315 24.2361 19.8432 23.6647C19.0483 23.3787 18.4187 23.0417 17.9913 22.6765C17.5632 22.3108 17.3578 21.9353 17.3566 21.5673C17.3554 21.1994 17.5585 20.8223 17.9842 20.4534C18.4094 20.085 19.0368 19.7432 19.83 19.4512C21.4146 18.8678 23.6184 18.4984 26.0636 18.4892C28.5087 18.4799 30.7148 18.8326 32.3031 19.404C33.098 19.69 33.7276 20.027 34.1551 20.3922C34.5831 20.758 34.7886 21.1335 34.7897 21.5014Z" stroke="black" stroke-width="0.4"/>
<g filter="url(#filter8_i_0_1)">
<ellipse cx="8.91663" cy="3.2452" rx="8.91663" ry="3.2452" transform="matrix(0.999993 -0.00378133 0.0031549 0.999995 15.9553 15.715)" fill="#FFD439"/>
</g>
<path d="M33.5987 18.8935C33.5999 19.2614 33.3968 19.6385 32.971 20.0074C32.5459 20.3759 31.9185 20.7176 31.1253 21.0096C29.5407 21.593 27.3369 21.9624 24.8917 21.9716C22.4466 21.9809 20.2405 21.6282 18.6522 21.0568C17.8572 20.7708 17.2277 20.4338 16.8002 20.0686C16.3722 19.7029 16.1667 19.3273 16.1656 18.9594C16.1644 18.5915 16.3675 18.2144 16.7932 17.8455C17.2183 17.477 17.8458 17.1353 18.6389 16.8433C20.2236 16.2599 22.4273 15.8905 24.8725 15.8813C27.3177 15.872 29.5238 16.2247 31.112 16.7961C31.907 17.0821 32.5366 17.4191 32.964 17.7843C33.3921 18.15 33.5975 18.5256 33.5987 18.8935Z" stroke="black" stroke-width="0.4"/>
<g filter="url(#filter9_i_0_1)">
<ellipse cx="8.91663" cy="3.2452" rx="8.91663" ry="3.2452" transform="matrix(0.999993 -0.00378133 0.0031549 0.999995 13.5732 13.1071)" fill="#FFD439"/>
</g>
<path d="M31.2166 16.2856C31.2177 16.6535 31.0147 17.0306 30.5889 17.3995C30.1638 17.7679 29.5363 18.1097 28.7432 18.4017C27.1586 18.9851 24.9548 19.3545 22.5096 19.3637C20.0644 19.373 17.8583 19.0203 16.2701 18.4489C15.4751 18.1629 14.8455 17.8259 14.4181 17.4607C13.99 17.0949 13.7846 16.7194 13.7834 16.3515C13.7823 15.9836 13.9853 15.6065 14.4111 15.2375C14.8362 14.8691 15.4636 14.5274 16.2568 14.2354C17.8414 13.652 20.0452 13.2826 22.4904 13.2733C24.9356 13.2641 27.1416 13.6168 28.7299 14.1882C29.5249 14.4742 30.1545 14.8112 30.5819 15.1764C31.01 15.5421 31.2154 15.9176 31.2166 16.2856Z" stroke="black" stroke-width="0.4"/>
<g filter="url(#filter10_i_0_1)">
<ellipse cx="8.91663" cy="3.2452" rx="8.91663" ry="3.2452" transform="matrix(0.999993 -0.00378133 0.0031549 0.999995 15.9553 10.4991)" fill="#FFD439"/>
</g>
<path d="M33.5987 13.6776C33.5999 14.0456 33.3968 14.4226 32.971 14.7916C32.5459 15.16 31.9185 15.5018 31.1253 15.7938C29.5407 16.3772 27.3369 16.7465 24.8917 16.7558C22.4466 16.765 20.2405 16.4123 18.6522 15.8409C17.8572 15.5549 17.2277 15.2179 16.8002 14.8527C16.3722 14.487 16.1667 14.1115 16.1656 13.7436C16.1644 13.3756 16.3675 12.9986 16.7932 12.6296C17.2183 12.2612 17.8458 11.9194 18.6389 11.6274C20.2236 11.044 22.4273 10.6747 24.8725 10.6654C27.3177 10.6562 29.5238 11.0089 31.112 11.5803C31.907 11.8663 32.5366 12.2033 32.964 12.5685C33.3921 12.9342 33.5975 13.3097 33.5987 13.6776Z" stroke="black" stroke-width="0.4"/>
<g filter="url(#filter11_i_0_1)">
<ellipse cx="8.91663" cy="3.2452" rx="8.91663" ry="3.2452" transform="matrix(0.999993 -0.00378133 0.0031549 0.999995 15.9553 7.8912)" fill="#FFD439"/>
</g>
<path d="M33.5987 11.0697C33.5999 11.4376 33.3968 11.8147 32.971 12.1837C32.5459 12.5521 31.9185 12.8938 31.1253 13.1858C29.5407 13.7692 27.3369 14.1386 24.8917 14.1479C22.4466 14.1571 20.2405 13.8044 18.6522 13.233C17.8572 12.947 17.2277 12.61 16.8002 12.2448C16.3722 11.8791 16.1667 11.5036 16.1656 11.1356C16.1644 10.7677 16.3675 10.3906 16.7932 10.0217C17.2183 9.65326 17.8458 9.3115 18.6389 9.0195C20.2236 8.43611 22.4273 8.06673 24.8725 8.05749C27.3177 8.04824 29.5238 8.40094 31.112 8.97234C31.907 9.25833 32.5366 9.59534 32.964 9.96053C33.3921 10.3263 33.5975 10.7018 33.5987 11.0697Z" stroke="black" stroke-width="0.4"/>
<g filter="url(#filter12_i_0_1)">
<ellipse cx="8.91663" cy="3.2452" rx="8.91663" ry="3.2452" transform="matrix(0.999993 -0.00378133 0.0031549 0.999995 10 7.8912)" fill="#FFD439"/>
</g>
<path d="M27.6434 11.0697C27.6445 11.4376 27.4415 11.8147 27.0157 12.1837C26.5906 12.5521 25.9632 12.8938 25.17 13.1858C23.5854 13.7692 21.3816 14.1386 18.9364 14.1479C16.4912 14.1571 14.2852 13.8044 12.6969 13.233C11.9019 12.947 11.2723 12.61 10.8449 12.2448C10.4168 11.8791 10.2114 11.5036 10.2102 11.1356C10.2091 10.7677 10.4121 10.3906 10.8379 10.0217C11.263 9.65326 11.8905 9.3115 12.6836 9.0195C14.2682 8.43611 16.472 8.06673 18.9172 8.05749C21.3624 8.04824 23.5684 8.40094 25.1567 8.97234C25.9517 9.25833 26.5813 9.59534 27.0087 9.96053C27.4368 10.3263 27.6422 10.7018 27.6434 11.0697Z" stroke="black" stroke-width="0.4"/>
<g filter="url(#filter13_i_0_1)">
<ellipse cx="8.91663" cy="3.2452" rx="8.91663" ry="3.2452" transform="matrix(0.999993 -0.00378133 0.0031549 0.999995 14.7643 5.28328)" fill="#FFD439"/>
</g>
<path d="M32.4077 8.46179C32.4088 8.8297 32.2058 9.20678 31.78 9.57575C31.3549 9.94416 30.7274 10.2859 29.9343 10.5779C28.3497 11.1613 26.1459 11.5307 23.7007 11.5399C21.2555 11.5492 19.0495 11.1965 17.4612 10.6251C16.6662 10.3391 16.0366 10.0021 15.6092 9.63689C15.1811 9.27116 14.9757 8.89562 14.9745 8.52771C14.9734 8.15979 15.1764 7.78271 15.6022 7.41375C16.0273 7.04534 16.6547 6.70357 17.4479 6.41158C19.0325 5.82819 21.2363 5.45881 23.6815 5.44956C26.1267 5.44032 28.3327 5.79302 29.921 6.36441C30.716 6.6504 31.3456 6.98742 31.773 7.3526C32.2011 7.71833 32.4065 8.09387 32.4077 8.46179Z" stroke="black" stroke-width="0.4"/>
<g filter="url(#filter14_i_0_1)">
<ellipse cx="8.91663" cy="3.2452" rx="8.91663" ry="3.2452" transform="matrix(0.999993 -0.00378133 0.0031549 0.999995 13.5732 2.67535)" fill="#FFD439"/>
</g>
<path d="M31.2166 5.85386C31.2177 6.22178 31.0147 6.59886 30.5889 6.96782C30.1638 7.33623 29.5363 7.678 28.7432 7.96999C27.1586 8.55338 24.9548 8.92276 22.5096 8.93201C20.0644 8.94125 17.8583 8.58855 16.2701 8.01716C15.4751 7.73117 14.8455 7.39415 14.4181 7.02897C13.99 6.66324 13.7846 6.2877 13.7834 5.91978C13.7823 5.55187 13.9853 5.17479 14.4111 4.80582C14.8362 4.43741 15.4636 4.09565 16.2568 3.80365C17.8414 3.22026 20.0452 2.85088 22.4904 2.84164C24.9356 2.83239 27.1416 3.18509 28.7299 3.75649C29.5249 4.04248 30.1545 4.37949 30.5819 4.74468C31.01 5.11041 31.2154 5.48595 31.2166 5.85386Z" stroke="black" stroke-width="0.4"/>
<g filter="url(#filter15_i_0_1)">
<ellipse cx="8.91663" cy="3.2452" rx="8.91663" ry="3.2452" transform="matrix(0.999993 -0.00378133 0.0031549 0.999995 12.3821 0.0674286)" fill="#FFD439"/>
</g>
<path d="M30.0255 3.24594C30.0267 3.61385 29.8236 3.99093 29.3979 4.35989C28.9727 4.72831 28.3453 5.07007 27.5522 5.36207C25.9675 5.94546 23.7637 6.31484 21.3186 6.32408C18.8734 6.33333 16.6673 5.98063 15.079 5.40923C14.2841 5.12324 13.6545 4.78623 13.227 4.42104C12.799 4.05531 12.5935 3.67977 12.5924 3.31186C12.5912 2.94394 12.7943 2.56686 13.22 2.1979C13.6451 1.82949 14.2726 1.48772 15.0657 1.19573C16.6504 0.612335 18.8542 0.242957 21.2993 0.233711C23.7445 0.224465 25.9506 0.577168 27.5389 1.14856C28.3338 1.43455 28.9634 1.77156 29.3909 2.13675C29.8189 2.50248 30.0244 2.87802 30.0255 3.24594Z" stroke="black" stroke-width="0.4"/>
<defs>
<filter id="filter0_i_0_1" x="1.24554" y="20.2374" width="18.3016" height="9.7793" filterUnits="userSpaceOnUse" color-interpolation-filters="sRGB">
<feFlood flood-opacity="0" result="BackgroundImageFix"/>
<feBlend mode="normal" in="SourceGraphic" in2="BackgroundImageFix" result="shape"/>
<feColorMatrix in="SourceAlpha" type="matrix" values="0 0 0 0 0 0 0 0 0 0 0 0 0 0 0 0 0 0 127 0" result="hardAlpha"/>
<feMorphology radius="1" operator="dilate" in="SourceAlpha" result="effect1_innerShadow_0_1"/>
<feOffset dy="-4"/>
<feGaussianBlur stdDeviation="2"/>
<feComposite in2="hardAlpha" operator="arithmetic" k2="-1" k3="1"/>
<feColorMatrix type="matrix" values="0 0 0 0 0.783333 0 0 0 0 0.649122 0 0 0 0 0.165336 0 0 0 1 0"/>
<feBlend mode="plus-darker" in2="shape" result="effect1_innerShadow_0_1"/>
</filter>
<filter id="filter1_i_0_1" x="2.4552" y="18.8447" width="18.3016" height="9.7793" filterUnits="userSpaceOnUse" color-interpolation-filters="sRGB">
<feFlood flood-opacity="0" result="BackgroundImageFix"/>
<feBlend mode="normal" in="SourceGraphic" in2="BackgroundImageFix" result="shape"/>
<feColorMatrix in="SourceAlpha" type="matrix" values="0 0 0 0 0 0 0 0 0 0 0 0 0 0 0 0 0 0 127 0" result="hardAlpha"/>
<feMorphology radius="1" operator="dilate" in="SourceAlpha" result="effect1_innerShadow_0_1"/>
<feOffset dy="-4"/>
<feGaussianBlur stdDeviation="2"/>
<feComposite in2="hardAlpha" operator="arithmetic" k2="-1" k3="1"/>
<feColorMatrix type="matrix" values="0 0 0 0 0.783333 0 0 0 0 0.649122 0 0 0 0 0.165336 0 0 0 1 0"/>
<feBlend mode="plus-darker" in2="shape" result="effect1_innerShadow_0_1"/>
</filter>
<filter id="filter2_i_0_1" x="1.23285" y="16.1208" width="18.3016" height="9.7793" filterUnits="userSpaceOnUse" color-interpolation-filters="sRGB">
<feFlood flood-opacity="0" result="BackgroundImageFix"/>
<feBlend mode="normal" in="SourceGraphic" in2="BackgroundImageFix" result="shape"/>
<feColorMatrix in="SourceAlpha" type="matrix" values="0 0 0 0 0 0 0 0 0 0 0 0 0 0 0 0 0 0 127 0" result="hardAlpha"/>
<feMorphology radius="1" operator="dilate" in="SourceAlpha" result="effect1_innerShadow_0_1"/>
<feOffset dy="-4"/>
<feGaussianBlur stdDeviation="2"/>
<feComposite in2="hardAlpha" operator="arithmetic" k2="-1" k3="1"/>
<feColorMatrix type="matrix" values="0 0 0 0 0.783333 0 0 0 0 0.649122 0 0 0 0 0.165336 0 0 0 1 0"/>
<feBlend mode="plus-darker" in2="shape" result="effect1_innerShadow_0_1"/>
</filter>
<filter id="filter3_i_0_1" x="3.67755" y="14.7589" width="18.3016" height="9.7793" filterUnits="userSpaceOnUse" color-interpolation-filters="sRGB">
<feFlood flood-opacity="0" result="BackgroundImageFix"/>
<feBlend mode="normal" in="SourceGraphic" in2="BackgroundImageFix" result="shape"/>
<feColorMatrix in="SourceAlpha" type="matrix" values="0 0 0 0 0 0 0 0 0 0 0 0 0 0 0 0 0 0 127 0" result="hardAlpha"/>
<feMorphology radius="1" operator="dilate" in="SourceAlpha" result="effect1_innerShadow_0_1"/>
<feOffset dy="-4"/>
<feGaussianBlur stdDeviation="2"/>
<feComposite in2="hardAlpha" operator="arithmetic" k2="-1" k3="1"/>
<feColorMatrix type="matrix" values="0 0 0 0 0.783333 0 0 0 0 0.649122 0 0 0 0 0.165336 0 0 0 1 0"/>
<feBlend mode="plus-darker" in2="shape" result="effect1_innerShadow_0_1"/>
</filter>
<filter id="filter4_i_0_1" x="0.010498" y="12.035" width="18.3016" height="9.7793" filterUnits="userSpaceOnUse" color-interpolation-filters="sRGB">
<feFlood flood-opacity="0" result="BackgroundImageFix"/>
<feBlend mode="normal" in="SourceGraphic" in2="BackgroundImageFix" result="shape"/>
<feColorMatrix in="SourceAlpha" type="matrix" values="0 0 0 0 0 0 0 0 0 0 0 0 0 0 0 0 0 0 127 0" result="hardAlpha"/>
<feMorphology radius="1" operator="dilate" in="SourceAlpha" result="effect1_innerShadow_0_1"/>
<feOffset dy="-4"/>
<feGaussianBlur stdDeviation="2"/>
<feComposite in2="hardAlpha" operator="arithmetic" k2="-1" k3="1"/>
<feColorMatrix type="matrix" values="0 0 0 0 0.783333 0 0 0 0 0.649122 0 0 0 0 0.165336 0 0 0 1 0"/>
<feBlend mode="plus-darker" in2="shape" result="effect1_innerShadow_0_1"/>
</filter>
<filter id="filter5_i_0_1" x="17.1566" y="20.5049" width="17.8331" height="9.49072" filterUnits="userSpaceOnUse" color-interpolation-filters="sRGB">
<feFlood flood-opacity="0" result="BackgroundImageFix"/>
<feBlend mode="normal" in="SourceGraphic" in2="BackgroundImageFix" result="shape"/>
<feColorMatrix in="SourceAlpha" type="matrix" values="0 0 0 0 0 0 0 0 0 0 0 0 0 0 0 0 0 0 127 0" result="hardAlpha"/>
<feMorphology radius="1" operator="dilate" in="SourceAlpha" result="effect1_innerShadow_0_1"/>
<feOffset dy="-4"/>
<feGaussianBlur stdDeviation="2"/>
<feComposite in2="hardAlpha" operator="arithmetic" k2="-1" k3="1"/>
<feColorMatrix type="matrix" values="0 0 0 0 0.783333 0 0 0 0 0.649122 0 0 0 0 0.165336 0 0 0 1 0"/>
<feBlend mode="plus-darker" in2="shape" result="effect1_innerShadow_0_1"/>
</filter>
<filter id="filter6_i_0_1" x="17.1566" y="17.8969" width="17.8331" height="9.49072" filterUnits="userSpaceOnUse" color-interpolation-filters="sRGB">
<feFlood flood-opacity="0" result="BackgroundImageFix"/>
<feBlend mode="normal" in="SourceGraphic" in2="BackgroundImageFix" result="shape"/>
<feColorMatrix in="SourceAlpha" type="matrix" values="0 0 0 0 0 0 0 0 0 0 0 0 0 0 0 0 0 0 127 0" result="hardAlpha"/>
<feMorphology radius="1" operator="dilate" in="SourceAlpha" result="effect1_innerShadow_0_1"/>
<feOffset dy="-4"/>
<feGaussianBlur stdDeviation="2"/>
<feComposite in2="hardAlpha" operator="arithmetic" k2="-1" k3="1"/>
<feColorMatrix type="matrix" values="0 0 0 0 0.783333 0 0 0 0 0.649122 0 0 0 0 0.165336 0 0 0 1 0"/>
<feBlend mode="plus-darker" in2="shape" result="effect1_innerShadow_0_1"/>
</filter>
<filter id="filter7_i_0_1" x="17.1566" y="15.289" width="17.8331" height="9.49072" filterUnits="userSpaceOnUse" color-interpolation-filters="sRGB">
<feFlood flood-opacity="0" result="BackgroundImageFix"/>
<feBlend mode="normal" in="SourceGraphic" in2="BackgroundImageFix" result="shape"/>
<feColorMatrix in="SourceAlpha" type="matrix" values="0 0 0 0 0 0 0 0 0 0 0 0 0 0 0 0 0 0 127 0" result="hardAlpha"/>
<feMorphology radius="1" operator="dilate" in="SourceAlpha" result="effect1_innerShadow_0_1"/>
<feOffset dy="-4"/>
<feGaussianBlur stdDeviation="2"/>
<feComposite in2="hardAlpha" operator="arithmetic" k2="-1" k3="1"/>
<feColorMatrix type="matrix" values="0 0 0 0 0.783333 0 0 0 0 0.649122 0 0 0 0 0.165336 0 0 0 1 0"/>
<feBlend mode="plus-darker" in2="shape" result="effect1_innerShadow_0_1"/>
</filter>
<filter id="filter8_i_0_1" x="15.9656" y="12.6811" width="17.8331" height="9.49072" filterUnits="userSpaceOnUse" color-interpolation-filters="sRGB">
<feFlood flood-opacity="0" result="BackgroundImageFix"/>
<feBlend mode="normal" in="SourceGraphic" in2="BackgroundImageFix" result="shape"/>
<feColorMatrix in="SourceAlpha" type="matrix" values="0 0 0 0 0 0 0 0 0 0 0 0 0 0 0 0 0 0 127 0" result="hardAlpha"/>
<feMorphology radius="1" operator="dilate" in="SourceAlpha" result="effect1_innerShadow_0_1"/>
<feOffset dy="-4"/>
<feGaussianBlur stdDeviation="2"/>
<feComposite in2="hardAlpha" operator="arithmetic" k2="-1" k3="1"/>
<feColorMatrix type="matrix" values="0 0 0 0 0.783333 0 0 0 0 0.649122 0 0 0 0 0.165336 0 0 0 1 0"/>
<feBlend mode="plus-darker" in2="shape" result="effect1_innerShadow_0_1"/>
</filter>
<filter id="filter9_i_0_1" x="13.5834" y="10.0732" width="17.8331" height="9.49072" filterUnits="userSpaceOnUse" color-interpolation-filters="sRGB">
<feFlood flood-opacity="0" result="BackgroundImageFix"/>
<feBlend mode="normal" in="SourceGraphic" in2="BackgroundImageFix" result="shape"/>
<feColorMatrix in="SourceAlpha" type="matrix" values="0 0 0 0 0 0 0 0 0 0 0 0 0 0 0 0 0 0 127 0" result="hardAlpha"/>
<feMorphology radius="1" operator="dilate" in="SourceAlpha" result="effect1_innerShadow_0_1"/>
<feOffset dy="-4"/>
<feGaussianBlur stdDeviation="2"/>
<feComposite in2="hardAlpha" operator="arithmetic" k2="-1" k3="1"/>
<feColorMatrix type="matrix" values="0 0 0 0 0.783333 0 0 0 0 0.649122 0 0 0 0 0.165336 0 0 0 1 0"/>
<feBlend mode="plus-darker" in2="shape" result="effect1_innerShadow_0_1"/>
</filter>
<filter id="filter10_i_0_1" x="15.9656" y="7.46524" width="17.8331" height="9.49072" filterUnits="userSpaceOnUse" color-interpolation-filters="sRGB">
<feFlood flood-opacity="0" result="BackgroundImageFix"/>
<feBlend mode="normal" in="SourceGraphic" in2="BackgroundImageFix" result="shape"/>
<feColorMatrix in="SourceAlpha" type="matrix" values="0 0 0 0 0 0 0 0 0 0 0 0 0 0 0 0 0 0 127 0" result="hardAlpha"/>
<feMorphology radius="1" operator="dilate" in="SourceAlpha" result="effect1_innerShadow_0_1"/>
<feOffset dy="-4"/>
<feGaussianBlur stdDeviation="2"/>
<feComposite in2="hardAlpha" operator="arithmetic" k2="-1" k3="1"/>
<feColorMatrix type="matrix" values="0 0 0 0 0.783333 0 0 0 0 0.649122 0 0 0 0 0.165336 0 0 0 1 0"/>
<feBlend mode="plus-darker" in2="shape" result="effect1_innerShadow_0_1"/>
</filter>
<filter id="filter11_i_0_1" x="15.9656" y="4.85732" width="17.8331" height="9.49072" filterUnits="userSpaceOnUse" color-interpolation-filters="sRGB">
<feFlood flood-opacity="0" result="BackgroundImageFix"/>
<feBlend mode="normal" in="SourceGraphic" in2="BackgroundImageFix" result="shape"/>
<feColorMatrix in="SourceAlpha" type="matrix" values="0 0 0 0 0 0 0 0 0 0 0 0 0 0 0 0 0 0 127 0" result="hardAlpha"/>
<feMorphology radius="1" operator="dilate" in="SourceAlpha" result="effect1_innerShadow_0_1"/>
<feOffset dy="-4"/>
<feGaussianBlur stdDeviation="2"/>
<feComposite in2="hardAlpha" operator="arithmetic" k2="-1" k3="1"/>
<feColorMatrix type="matrix" values="0 0 0 0 0.783333 0 0 0 0 0.649122 0 0 0 0 0.165336 0 0 0 1 0"/>
<feBlend mode="plus-darker" in2="shape" result="effect1_innerShadow_0_1"/>
</filter>
<filter id="filter12_i_0_1" x="10.0103" y="4.85732" width="17.8331" height="9.49072" filterUnits="userSpaceOnUse" color-interpolation-filters="sRGB">
<feFlood flood-opacity="0" result="BackgroundImageFix"/>
<feBlend mode="normal" in="SourceGraphic" in2="BackgroundImageFix" result="shape"/>
<feColorMatrix in="SourceAlpha" type="matrix" values="0 0 0 0 0 0 0 0 0 0 0 0 0 0 0 0 0 0 127 0" result="hardAlpha"/>
<feMorphology radius="1" operator="dilate" in="SourceAlpha" result="effect1_innerShadow_0_1"/>
<feOffset dy="-4"/>
<feGaussianBlur stdDeviation="2"/>
<feComposite in2="hardAlpha" operator="arithmetic" k2="-1" k3="1"/>
<feColorMatrix type="matrix" values="0 0 0 0 0.783333 0 0 0 0 0.649122 0 0 0 0 0.165336 0 0 0 1 0"/>
<feBlend mode="plus-darker" in2="shape" result="effect1_innerShadow_0_1"/>
</filter>
<filter id="filter13_i_0_1" x="14.7745" y="2.24939" width="17.8331" height="9.49072" filterUnits="userSpaceOnUse" color-interpolation-filters="sRGB">
<feFlood flood-opacity="0" result="BackgroundImageFix"/>
<feBlend mode="normal" in="SourceGraphic" in2="BackgroundImageFix" result="shape"/>
<feColorMatrix in="SourceAlpha" type="matrix" values="0 0 0 0 0 0 0 0 0 0 0 0 0 0 0 0 0 0 127 0" result="hardAlpha"/>
<feMorphology radius="1" operator="dilate" in="SourceAlpha" result="effect1_innerShadow_0_1"/>
<feOffset dy="-4"/>
<feGaussianBlur stdDeviation="2"/>
<feComposite in2="hardAlpha" operator="arithmetic" k2="-1" k3="1"/>
<feColorMatrix type="matrix" values="0 0 0 0 0.783333 0 0 0 0 0.649122 0 0 0 0 0.165336 0 0 0 1 0"/>
<feBlend mode="plus-darker" in2="shape" result="effect1_innerShadow_0_1"/>
</filter>
<filter id="filter14_i_0_1" x="13.5834" y="-0.358536" width="17.8331" height="9.49072" filterUnits="userSpaceOnUse" color-interpolation-filters="sRGB">
<feFlood flood-opacity="0" result="BackgroundImageFix"/>
<feBlend mode="normal" in="SourceGraphic" in2="BackgroundImageFix" result="shape"/>
<feColorMatrix in="SourceAlpha" type="matrix" values="0 0 0 0 0 0 0 0 0 0 0 0 0 0 0 0 0 0 127 0" result="hardAlpha"/>
<feMorphology radius="1" operator="dilate" in="SourceAlpha" result="effect1_innerShadow_0_1"/>
<feOffset dy="-4"/>
<feGaussianBlur stdDeviation="2"/>
<feComposite in2="hardAlpha" operator="arithmetic" k2="-1" k3="1"/>
<feColorMatrix type="matrix" values="0 0 0 0 0.783333 0 0 0 0 0.649122 0 0 0 0 0.165336 0 0 0 1 0"/>
<feBlend mode="plus-darker" in2="shape" result="effect1_innerShadow_0_1"/>
</filter>
<filter id="filter15_i_0_1" x="12.3924" y="-2.96646" width="17.8331" height="9.49072" filterUnits="userSpaceOnUse" color-interpolation-filters="sRGB">
<feFlood flood-opacity="0" result="BackgroundImageFix"/>
<feBlend mode="normal" in="SourceGraphic" in2="BackgroundImageFix" result="shape"/>
<feColorMatrix in="SourceAlpha" type="matrix" values="0 0 0 0 0 0 0 0 0 0 0 0 0 0 0 0 0 0 127 0" result="hardAlpha"/>
<feMorphology radius="1" operator="dilate" in="SourceAlpha" result="effect1_innerShadow_0_1"/>
<feOffset dy="-4"/>
<feGaussianBlur stdDeviation="2"/>
<feComposite in2="hardAlpha" operator="arithmetic" k2="-1" k3="1"/>
<feColorMatrix type="matrix" values="0 0 0 0 0.783333 0 0 0 0 0.649122 0 0 0 0 0.165336 0 0 0 1 0"/>
<feBlend mode="plus-darker" in2="shape" result="effect1_innerShadow_0_1"/>
</filter>
</defs>
</svg>
