<?xml version="1.0" encoding="UTF-8"?>
<svg xmlns="http://www.w3.org/2000/svg" viewBox="0 0 181.3 178.5">
  <g>
    <path
      d="M6,133.1h169.3v27.4c0,8.1-6.6,14.7-14.7,14.7H20.7c-8.1,0-14.7-6.6-14.7-14.7V133.1z"
      fill="#000"
    />
    <path
      d="M6,133.1h169.3v27.4c0,8.1-6.6,14.7-14.7,14.7H20.7c-8.1,0-14.7-6.6-14.7-14.7V133.1z"
      opacity="0.3"
      fill="rgb(255,255,255)"
    />
    <path
      d="M181.3,19.5c0-10.8-8.7-19.5-19.5-19.5H19.5C8.7,0,0,8.7,0,19.5v129.5c0,10.8,8.7,19.5,19.5,19.5h142.3c10.8,0,19.5-8.7,19.5-19.5V19.5z"
      clip-rule="evenodd"
      fill-rule="evenodd"
      fill="rgb(6,74,117)"
    />
    <path
      d="M175.3,23.8v120.9c0,10-8.1,18.2-18.2,18.2H24.2c-10,0-18.2-8.1-18.2-18.2V23.8C6,13.8,14.1,5.6,24.1,5.6h132.9C167.1,5.6,175.3,13.7,175.3,23.8z"
      clip-rule="evenodd"
      fill-rule="evenodd"
      fill="rgb(234,203,73)"
    />
    <path
      d="M175.3,143.5v1.3c0,10-8.1,18.2-18.2,18.2H24.2c-10,0-18.2-8.1-18.2-18.2V27.9c0,0,9.1,107.8,21.3,110.9c0,0,28.8,12.6,137.6,7.8C168.5,146.1,172,145,175.3,143.5z"
      clip-rule="evenodd"
      fill-rule="evenodd"
      opacity="0.12"
      fill="#000"
    />
    <path
      d="M129.7,60.5H51.6c0-21.1,17.1-38.2,38.3-38.3h1.6C112.6,22.3,129.7,39.4,129.7,60.5z"
      clip-rule="evenodd"
      fill-rule="evenodd"
      fill="rgb(255,255,255)"
    />
    <path
      d="M93.8,36.6v23.9h-6.4V36.6c0-1.8,1.4-3.2,3.2-3.2S93.8,34.8,93.8,36.6z"
      fill="rgb(236,28,36)"
    />
    <path
      d="M129.7,60.5h-4.3C125.5,42.6,110.9,28,93,28h-1.4c-17.9,0-32.5,14.6-32.5,32.5h-7.5c0-21.1,17.1-38.2,38.3-38.3h1.6C112.6,22.3,129.7,39.4,129.7,60.5z"
      clip-rule="evenodd"
      fill-rule="evenodd"
      opacity="0.17"
      fill="#000"
    />
  </g>
</svg>
