<svg width="28" height="34" viewBox="0 0 28 34" fill="none" xmlns="http://www.w3.org/2000/svg">
<path d="M6.96754 20.886C7.66872 21.686 8.52706 22.0861 9.54256 22.0861C10.5581 22.0861 11.4164 21.686 12.1176 20.886L17.9204 14.2648C18.6216 13.4647 18.9722 12.4853 18.9722 11.3266C18.9722 10.1679 18.6216 9.18851 17.9204 8.38844C17.2193 7.58838 16.3609 7.18835 15.3454 7.18835C14.3299 7.18835 13.4716 7.58838 12.7704 8.38844C11.8758 8.0298 10.9933 7.94703 10.1228 8.14015C9.25242 8.33327 8.51497 8.77468 7.91051 9.46439C7.30604 10.1541 6.91918 10.9955 6.74993 11.9887C6.58068 12.9819 6.65322 13.9889 6.96754 15.0097C6.26636 15.8097 5.91577 16.7891 5.91577 17.9478C5.91577 19.1065 6.26636 20.0859 6.96754 20.886ZM4.46506 33.6732V26.5554C3.08688 25.1208 2.01698 23.4448 1.25535 21.5274C0.493728 19.61 0.112915 17.5892 0.112915 15.4649C0.112915 11.3266 1.38229 7.80909 3.92104 4.91231C6.45979 2.01553 9.54256 0.567139 13.1693 0.567139C16.1917 0.567139 18.8694 1.58101 21.2027 3.60876C23.5359 5.6365 25.0531 8.27809 25.7543 11.5335L27.6402 20.0169C27.7611 20.5411 27.6765 21.017 27.3864 21.4446C27.0962 21.8723 26.7094 22.0861 26.2258 22.0861H23.3243V27.052C23.3243 27.9624 23.0403 28.7418 22.4721 29.3901C21.9039 30.0384 21.2208 30.3626 20.4229 30.3626H17.5215V33.6732H14.6201V27.052H20.4229V18.7755H24.3398L22.9617 12.3612C22.4056 9.85063 21.2208 7.80909 19.4074 6.23655C17.594 4.66401 15.5147 3.87774 13.1693 3.87774C10.3646 3.87774 7.97095 4.99507 5.98831 7.22973C4.00567 9.46439 3.01434 12.1818 3.01434 15.3821C3.01434 17.0374 3.31053 18.6099 3.90291 20.0997C4.49528 21.5895 5.33549 22.9137 6.42352 24.0724L7.36649 25.0656V33.6732H4.46506Z" fill="black"/>
</svg>
