<svg width="31" height="23" viewBox="0 0 31 23" fill="none" xmlns="http://www.w3.org/2000/svg">
<path d="M0.274109 22.9978V17.3225C0.274109 16.5185 0.544169 15.8445 1.08429 15.3006C1.62441 14.7568 2.27371 14.4848 3.03217 14.4848H7.5485C8.00818 14.4848 8.44487 14.6031 8.85858 14.8395C9.27229 15.076 9.60556 15.3952 9.85838 15.7972C10.5249 16.7195 11.3466 17.4407 12.3234 17.961C13.3002 18.4812 14.3402 18.7413 15.4435 18.7413C16.5697 18.7413 17.6212 18.4812 18.598 17.961C19.5748 17.4407 20.385 16.7195 21.0285 15.7972C21.3273 15.3952 21.6778 15.076 22.0801 14.8395C22.4823 14.6031 22.9017 14.4848 23.3384 14.4848H27.8548C28.6362 14.4848 29.2912 14.7568 29.8199 15.3006C30.3485 15.8445 30.6128 16.5185 30.6128 17.3225V22.9978H20.9596V19.77C20.1552 20.3611 19.2875 20.8104 18.3567 21.1179C17.4258 21.4253 16.4548 21.579 15.4435 21.579C14.4552 21.579 13.4898 21.4194 12.5475 21.1001C11.6052 20.7809 10.7318 20.3257 9.92733 19.7345V22.9978H0.274109ZM15.4435 17.3225C14.5701 17.3225 13.7427 17.1156 12.9612 16.7017C12.1798 16.2879 11.5247 15.7145 10.9961 14.9814C10.6054 14.3902 10.117 13.9232 9.53086 13.5803C8.94477 13.2374 8.30697 13.066 7.61746 13.066C8.1231 12.191 9.19185 11.4994 10.8237 10.9909C12.4556 10.4825 13.9955 10.2283 15.4435 10.2283C16.8914 10.2283 18.4314 10.4825 20.0632 10.9909C21.6951 11.4994 22.7638 12.191 23.2695 13.066C22.6029 13.066 21.9709 13.2374 21.3733 13.5803C20.7757 13.9232 20.2816 14.3902 19.8908 14.9814C19.3852 15.7381 18.7416 16.3175 17.9602 16.7195C17.1787 17.1215 16.3398 17.3225 15.4435 17.3225ZM4.41121 13.066C3.26201 13.066 2.2852 12.6522 1.48076 11.8245C0.676327 10.9969 0.274109 9.99185 0.274109 8.80949C0.274109 7.60349 0.676327 6.59257 1.48076 5.77674C2.2852 4.96092 3.26201 4.553 4.41121 4.553C5.58338 4.553 6.56594 4.96092 7.35889 5.77674C8.15183 6.59257 8.5483 7.60349 8.5483 8.80949C8.5483 9.99185 8.15183 10.9969 7.35889 11.8245C6.56594 12.6522 5.58338 13.066 4.41121 13.066ZM26.4757 13.066C25.3265 13.066 24.3497 12.6522 23.5453 11.8245C22.7408 10.9969 22.3386 9.99185 22.3386 8.80949C22.3386 7.60349 22.7408 6.59257 23.5453 5.77674C24.3497 4.96092 25.3265 4.553 26.4757 4.553C27.6479 4.553 28.6305 4.96092 29.4234 5.77674C30.2163 6.59257 30.6128 7.60349 30.6128 8.80949C30.6128 9.99185 30.2163 10.9969 29.4234 11.8245C28.6305 12.6522 27.6479 13.066 26.4757 13.066ZM15.4435 8.80949C14.2943 8.80949 13.3175 8.39567 12.513 7.56802C11.7086 6.74037 11.3064 5.73536 11.3064 4.553C11.3064 3.347 11.7086 2.33608 12.513 1.52025C13.3175 0.704423 14.2943 0.296509 15.4435 0.296509C16.6156 0.296509 17.5982 0.704423 18.3911 1.52025C19.1841 2.33608 19.5806 3.347 19.5806 4.553C19.5806 5.73536 19.1841 6.74037 18.3911 7.56802C17.5982 8.39567 16.6156 8.80949 15.4435 8.80949Z" fill="black"/>
</svg>
